M48
; DRILL file {KiCad (6.0.1)} date Mon Jan 23 14:34:56 2023
; FORMAT={3:3/ absolute / metric / suppress leading zeros}
; #@! TF.CreationDate,2023-01-23T14:34:56-05:00
; #@! TF.GenerationSoftware,Kicad,Pcbnew,(6.0.1)
; #@! TF.FileFunction,Plated,1,2,PTH
FMAT,2
METRIC,TZ
; #@! TA.AperFunction,Plated,PTH,ViaDrill
T1C0.400
; #@! TA.AperFunction,Plated,PTH,ComponentDrill
T2C1.000
%
G90
G05
T1
X3500Y-27500
X7304Y-28500
X7988Y-14988
X9000Y-27701
X10500Y-22500
X10500Y-24000
X10500Y-25500
X11988Y-11988
X15500Y-29000
X27075Y-29500
X50000Y-9000
X87500Y-2000
T2
X5220Y-4000
X7760Y-4000
X8800Y-35000
X10300Y-4000
X11340Y-35000
X12840Y-4000
X13880Y-35000
X15380Y-4000
X16420Y-35000
X17920Y-4000
X18960Y-35000
X19000Y-16000
X20460Y-4000
X21500Y-35000
X21540Y-16000
X23000Y-4000
X24040Y-35000
X24080Y-16000
X25540Y-4000
X26580Y-35000
X26620Y-16000
X28080Y-4000
X29120Y-35000
X29160Y-16000
X30620Y-4000
X31660Y-35000
X31700Y-16000
X33160Y-4000
X34200Y-35000
X34240Y-16000
X35700Y-4000
X36740Y-35000
X36780Y-16000
X38240Y-4000
X39280Y-35000
X39320Y-16000
X40780Y-4000
X41820Y-35000
X41860Y-16000
X43320Y-4000
X44360Y-35000
X44400Y-16000
X46900Y-35000
X46940Y-16000
X55095Y-4025
X57635Y-4025
X60175Y-4025
X62715Y-4025
X65255Y-4025
X67795Y-4025
X70335Y-4025
X72875Y-4025
X85180Y-4025
X87720Y-4025
X90260Y-4025
X92800Y-4025
T0
M30
