%TF.GenerationSoftware,KiCad,Pcbnew,(6.0.1)*%
%TF.CreationDate,2023-01-23T14:34:39-05:00*%
%TF.ProjectId,blu_model_m,626c755f-6d6f-4646-956c-5f6d2e6b6963,rev?*%
%TF.SameCoordinates,PX2719c40PY3fe56c0*%
%TF.FileFunction,Copper,L1,Top*%
%TF.FilePolarity,Positive*%
%FSLAX46Y46*%
G04 Gerber Fmt 4.6, Leading zero omitted, Abs format (unit mm)*
G04 Created by KiCad (PCBNEW (6.0.1)) date 2023-01-23 14:34:39*
%MOMM*%
%LPD*%
G01*
G04 APERTURE LIST*
G04 Aperture macros list*
%AMRoundRect*
0 Rectangle with rounded corners*
0 $1 Rounding radius*
0 $2 $3 $4 $5 $6 $7 $8 $9 X,Y pos of 4 corners*
0 Add a 4 corners polygon primitive as box body*
4,1,4,$2,$3,$4,$5,$6,$7,$8,$9,$2,$3,0*
0 Add four circle primitives for the rounded corners*
1,1,$1+$1,$2,$3*
1,1,$1+$1,$4,$5*
1,1,$1+$1,$6,$7*
1,1,$1+$1,$8,$9*
0 Add four rect primitives between the rounded corners*
20,1,$1+$1,$2,$3,$4,$5,0*
20,1,$1+$1,$4,$5,$6,$7,0*
20,1,$1+$1,$6,$7,$8,$9,0*
20,1,$1+$1,$8,$9,$2,$3,0*%
G04 Aperture macros list end*
%TA.AperFunction,ComponentPad*%
%ADD10R,1.700000X1.700000*%
%TD*%
%TA.AperFunction,ComponentPad*%
%ADD11O,1.700000X1.700000*%
%TD*%
%TA.AperFunction,SMDPad,CuDef*%
%ADD12RoundRect,0.250000X-0.450000X0.350000X-0.450000X-0.350000X0.450000X-0.350000X0.450000X0.350000X0*%
%TD*%
%TA.AperFunction,SMDPad,CuDef*%
%ADD13RoundRect,0.250000X0.450000X-0.350000X0.450000X0.350000X-0.450000X0.350000X-0.450000X-0.350000X0*%
%TD*%
%TA.AperFunction,SMDPad,CuDef*%
%ADD14R,1.750000X0.450000*%
%TD*%
%TA.AperFunction,ViaPad*%
%ADD15C,0.800000*%
%TD*%
%TA.AperFunction,Conductor*%
%ADD16C,0.250000*%
%TD*%
G04 APERTURE END LIST*
D10*
%TO.P,JP1,1,1*%
%TO.N,VBAT*%
X19000000Y-16000000D03*
D11*
%TO.P,JP1,2,2*%
%TO.N,/EN*%
X21540000Y-16000000D03*
%TO.P,JP1,3,3*%
%TO.N,VBUS*%
X24080000Y-16000000D03*
%TO.P,JP1,4,4*%
%TO.N,/IO13_A12*%
X26620000Y-16000000D03*
%TO.P,JP1,5,5*%
%TO.N,/IO12_A11*%
X29160000Y-16000000D03*
%TO.P,JP1,6,6*%
%TO.N,/IO27_A10*%
X31700000Y-16000000D03*
%TO.P,JP1,7,7*%
%TO.N,/IO33_A9*%
X34240000Y-16000000D03*
%TO.P,JP1,8,8*%
%TO.N,/IO15_A8*%
X36780000Y-16000000D03*
%TO.P,JP1,9,9*%
%TO.N,/IO32_A7*%
X39320000Y-16000000D03*
%TO.P,JP1,10,10*%
%TO.N,/IO14_A6*%
X41860000Y-16000000D03*
%TO.P,JP1,11,11*%
%TO.N,/SCL*%
X44400000Y-16000000D03*
%TO.P,JP1,12,12*%
%TO.N,/SDA*%
X46940000Y-16000000D03*
%TD*%
%TO.P,JP2,16,16*%
%TO.N,/RESET*%
X8800000Y-35000000D03*
%TO.P,JP2,15,15*%
%TO.N,3.3V*%
X11340000Y-35000000D03*
%TO.P,JP2,14,14*%
%TO.N,unconnected-(JP2-Pad14)*%
X13880000Y-35000000D03*
%TO.P,JP2,13,13*%
%TO.N,GND*%
X16420000Y-35000000D03*
%TO.P,JP2,12,12*%
%TO.N,/A0_DAC2*%
X18960000Y-35000000D03*
%TO.P,JP2,11,11*%
%TO.N,/A1_DAC1*%
X21500000Y-35000000D03*
%TO.P,JP2,10,10*%
%TO.N,/A2_I34*%
X24040000Y-35000000D03*
%TO.P,JP2,9,9*%
%TO.N,/A3_I39*%
X26580000Y-35000000D03*
%TO.P,JP2,8,8*%
%TO.N,/A4_IO36*%
X29120000Y-35000000D03*
%TO.P,JP2,7,7*%
%TO.N,/A5_IO4*%
X31660000Y-35000000D03*
%TO.P,JP2,6,6*%
%TO.N,/SCK*%
X34200000Y-35000000D03*
%TO.P,JP2,5,5*%
%TO.N,/MOSI*%
X36740000Y-35000000D03*
%TO.P,JP2,4,4*%
%TO.N,/MISO*%
X39280000Y-35000000D03*
%TO.P,JP2,3,3*%
%TO.N,/IO16*%
X41820000Y-35000000D03*
%TO.P,JP2,2,2*%
%TO.N,/IO17*%
X44360000Y-35000000D03*
D10*
%TO.P,JP2,1,1*%
%TO.N,/IO21*%
X46900000Y-35000000D03*
%TD*%
%TO.P,J3,1,Pin_1*%
%TO.N,/IO17*%
X92800000Y-4025000D03*
D11*
%TO.P,J3,2,Pin_2*%
%TO.N,/IO16*%
X90260000Y-4025000D03*
%TO.P,J3,3,Pin_3*%
%TO.N,GND*%
X87720000Y-4025000D03*
%TO.P,J3,4,Pin_4*%
%TO.N,/A5_IO4*%
X85180000Y-4025000D03*
%TD*%
D10*
%TO.P,J2,1,Pin_1*%
%TO.N,/IO14_A6*%
X72875000Y-4025000D03*
D11*
%TO.P,J2,2,Pin_2*%
%TO.N,/IO32_A7*%
X70335000Y-4025000D03*
%TO.P,J2,3,Pin_3*%
%TO.N,/IO15_A8*%
X67795000Y-4025000D03*
%TO.P,J2,4,Pin_4*%
%TO.N,/IO33_A9*%
X65255000Y-4025000D03*
%TO.P,J2,5,Pin_5*%
%TO.N,/IO27_A10*%
X62715000Y-4025000D03*
%TO.P,J2,6,Pin_6*%
%TO.N,/IO12_A11*%
X60175000Y-4025000D03*
%TO.P,J2,7,Pin_7*%
%TO.N,/IO13_A12*%
X57635000Y-4025000D03*
%TO.P,J2,8,Pin_8*%
%TO.N,/IO21*%
X55095000Y-4025000D03*
%TD*%
D10*
%TO.P,J1,1,Pin_1*%
%TO.N,/P00*%
X43320000Y-4000000D03*
D11*
%TO.P,J1,2,Pin_2*%
%TO.N,/P01*%
X40780000Y-4000000D03*
%TO.P,J1,3,Pin_3*%
%TO.N,/P02*%
X38240000Y-4000000D03*
%TO.P,J1,4,Pin_4*%
%TO.N,/P03*%
X35700000Y-4000000D03*
%TO.P,J1,5,Pin_5*%
%TO.N,/P04*%
X33160000Y-4000000D03*
%TO.P,J1,6,Pin_6*%
%TO.N,/P05*%
X30620000Y-4000000D03*
%TO.P,J1,7,Pin_7*%
%TO.N,/P06*%
X28080000Y-4000000D03*
%TO.P,J1,8,Pin_8*%
%TO.N,/P07*%
X25540000Y-4000000D03*
%TO.P,J1,9,Pin_9*%
%TO.N,/P10*%
X23000000Y-4000000D03*
%TO.P,J1,10,Pin_10*%
%TO.N,/P11*%
X20460000Y-4000000D03*
%TO.P,J1,11,Pin_11*%
%TO.N,/P12*%
X17920000Y-4000000D03*
%TO.P,J1,12,Pin_12*%
%TO.N,/P13*%
X15380000Y-4000000D03*
%TO.P,J1,13,Pin_13*%
%TO.N,/P14*%
X12840000Y-4000000D03*
%TO.P,J1,14,Pin_14*%
%TO.N,/P15*%
X10300000Y-4000000D03*
%TO.P,J1,15,Pin_15*%
%TO.N,/P16*%
X7760000Y-4000000D03*
%TO.P,J1,16,Pin_16*%
%TO.N,/P17*%
X5220000Y-4000000D03*
%TD*%
D12*
%TO.P,R3,1*%
%TO.N,3.3V*%
X29000000Y-29000000D03*
%TO.P,R3,2*%
%TO.N,/A4_IO36*%
X29000000Y-31000000D03*
%TD*%
%TO.P,R2,2*%
%TO.N,3.3V*%
X47000000Y-21500000D03*
%TO.P,R2,1*%
%TO.N,/SDA*%
X47000000Y-19500000D03*
%TD*%
D13*
%TO.P,R1,2*%
%TO.N,/SCL*%
X44500000Y-19500000D03*
%TO.P,R1,1*%
%TO.N,3.3V*%
X44500000Y-21500000D03*
%TD*%
D14*
%TO.P,U1,1,\u002AINT*%
%TO.N,/A4_IO36*%
X12600000Y-29075000D03*
%TO.P,U1,2,A1*%
%TO.N,GND*%
X12600000Y-28425000D03*
%TO.P,U1,3,A2*%
X12600000Y-27775000D03*
%TO.P,U1,4,P00*%
%TO.N,/P00*%
X12600000Y-27125000D03*
%TO.P,U1,5,P01*%
%TO.N,/P01*%
X12600000Y-26475000D03*
%TO.P,U1,6,P02*%
%TO.N,/P02*%
X12600000Y-25825000D03*
%TO.P,U1,7,P03*%
%TO.N,/P03*%
X12600000Y-25175000D03*
%TO.P,U1,8,P04*%
%TO.N,/P04*%
X12600000Y-24525000D03*
%TO.P,U1,9,P05*%
%TO.N,/P05*%
X12600000Y-23875000D03*
%TO.P,U1,10,P06*%
%TO.N,/P06*%
X12600000Y-23225000D03*
%TO.P,U1,11,P07*%
%TO.N,/P07*%
X12600000Y-22575000D03*
%TO.P,U1,12,GND*%
%TO.N,GND*%
X12600000Y-21925000D03*
%TO.P,U1,13,P10*%
%TO.N,/P10*%
X5400000Y-21925000D03*
%TO.P,U1,14,P11*%
%TO.N,/P11*%
X5400000Y-22575000D03*
%TO.P,U1,15,P12*%
%TO.N,/P12*%
X5400000Y-23225000D03*
%TO.P,U1,16,P13*%
%TO.N,/P13*%
X5400000Y-23875000D03*
%TO.P,U1,17,P14*%
%TO.N,/P14*%
X5400000Y-24525000D03*
%TO.P,U1,18,P15*%
%TO.N,/P15*%
X5400000Y-25175000D03*
%TO.P,U1,19,P16*%
%TO.N,/P16*%
X5400000Y-25825000D03*
%TO.P,U1,20,P17*%
%TO.N,/P17*%
X5400000Y-26475000D03*
%TO.P,U1,21,A0*%
%TO.N,GND*%
X5400000Y-27125000D03*
%TO.P,U1,22,SCL*%
%TO.N,/SDA*%
X5400000Y-27775000D03*
%TO.P,U1,23,SDA*%
%TO.N,/SCL*%
X5400000Y-28425000D03*
%TO.P,U1,24,VCC*%
%TO.N,3.3V*%
X5400000Y-29075000D03*
%TD*%
D15*
%TO.N,GND*%
X87500000Y-2000000D03*
X10500000Y-25500000D03*
X10500000Y-24000000D03*
X10500000Y-22500000D03*
%TO.N,/A4_IO36*%
X15500000Y-29000000D03*
X27075000Y-29500000D03*
%TO.N,GND*%
X3500000Y-27500000D03*
%TO.N,/SDA*%
X9000000Y-27700500D03*
%TO.N,/SCL*%
X7303763Y-28499500D03*
%TO.N,/IO21*%
X50000000Y-9000000D03*
%TO.N,/P10*%
X7987701Y-14987701D03*
%TO.N,/P11*%
X11987701Y-11987701D03*
%TD*%
D16*
%TO.N,GND*%
X87500000Y-2000000D02*
X87500000Y-2060000D01*
X87500000Y-2060000D02*
X87720000Y-2280000D01*
X87720000Y-2280000D02*
X87720000Y-4025000D01*
%TO.N,/A5_IO4*%
X83205000Y-6000000D02*
X85180000Y-4025000D01*
X53755718Y-6000000D02*
X83205000Y-6000000D01*
X45000000Y-30000000D02*
X51000000Y-24000000D01*
X51000000Y-24000000D02*
X51000000Y-8755718D01*
X51000000Y-8755718D02*
X53755718Y-6000000D01*
X36000000Y-30000000D02*
X45000000Y-30000000D01*
X31660000Y-34340000D02*
X36000000Y-30000000D01*
X31660000Y-35000000D02*
X31660000Y-34340000D01*
%TO.N,GND*%
X12600000Y-28425000D02*
X12600000Y-27775000D01*
X10500000Y-26774022D02*
X10500000Y-22500000D01*
X11500978Y-27775000D02*
X10500000Y-26774022D01*
X12600000Y-27775000D02*
X11500978Y-27775000D01*
%TO.N,/SDA*%
X8925500Y-27775000D02*
X5400000Y-27775000D01*
X9000000Y-27700500D02*
X8925500Y-27775000D01*
%TO.N,/SCL*%
X7229263Y-28425000D02*
X7303763Y-28499500D01*
X5400000Y-28425000D02*
X7229263Y-28425000D01*
%TO.N,GND*%
X11075000Y-21925000D02*
X10500000Y-22500000D01*
X12600000Y-21925000D02*
X11075000Y-21925000D01*
%TO.N,/A4_IO36*%
X15425000Y-29075000D02*
X12600000Y-29075000D01*
X15500000Y-29000000D02*
X15425000Y-29075000D01*
%TO.N,/P06*%
X15027292Y-22252029D02*
X15027292Y-16785025D01*
X27812317Y-4000000D02*
X28080000Y-4000000D01*
X14054321Y-23225000D02*
X15027292Y-22252029D01*
X15027292Y-16785025D02*
X27812317Y-4000000D01*
X12600000Y-23225000D02*
X14054321Y-23225000D01*
%TO.N,/P07*%
X13725000Y-22575000D02*
X12600000Y-22575000D01*
X14183199Y-22116801D02*
X13725000Y-22575000D01*
X14183199Y-15356801D02*
X14183199Y-22116801D01*
X25540000Y-4000000D02*
X14183199Y-15356801D01*
%TO.N,/P00*%
X12600000Y-27125000D02*
X22390914Y-27125000D01*
X22390914Y-27125000D02*
X27944406Y-21571508D01*
%TO.N,/P01*%
X20756897Y-26475000D02*
X26355525Y-20876372D01*
X12600000Y-26475000D02*
X20756897Y-26475000D01*
%TO.N,/P02*%
X25089385Y-20230889D02*
X19495274Y-25825000D01*
X19495274Y-25825000D02*
X12600000Y-25825000D01*
%TO.N,/P03*%
X16825000Y-25175000D02*
X22500000Y-19500000D01*
X12600000Y-25175000D02*
X16825000Y-25175000D01*
%TO.N,/P04*%
X21000000Y-19000000D02*
X15475000Y-24525000D01*
X15475000Y-24525000D02*
X12600000Y-24525000D01*
%TO.N,/P05*%
X30620000Y-4000000D02*
X20284511Y-14335489D01*
X20284511Y-14335489D02*
X20284511Y-18000000D01*
%TO.N,/A4_IO36*%
X27500000Y-29500000D02*
X29000000Y-31000000D01*
X27075000Y-29500000D02*
X27500000Y-29500000D01*
%TO.N,GND*%
X3875000Y-27125000D02*
X3500000Y-27500000D01*
X5400000Y-27125000D02*
X3875000Y-27125000D01*
%TO.N,/P12*%
X13000000Y-12000000D02*
X13000000Y-17500000D01*
%TO.N,/P11*%
X6525000Y-22575000D02*
X11987701Y-17112299D01*
X11987701Y-17112299D02*
X11987701Y-11987701D01*
X5400000Y-22575000D02*
X6525000Y-22575000D01*
%TO.N,/P10*%
X7987701Y-19337299D02*
X7987701Y-14987701D01*
X5400000Y-21925000D02*
X7987701Y-19337299D01*
%TO.N,/P13*%
X15000000Y-4000000D02*
X15380000Y-4000000D01*
X3479991Y-15520009D02*
X15000000Y-4000000D01*
X3479991Y-21020009D02*
X3479991Y-15520009D01*
%TO.N,/P14*%
X4275000Y-24525000D02*
X5400000Y-24525000D01*
X3000000Y-13840000D02*
X3000000Y-23250000D01*
X3000000Y-23250000D02*
X4275000Y-24525000D01*
X12840000Y-4000000D02*
X3000000Y-13840000D01*
%TO.N,/P17*%
X4275000Y-26475000D02*
X5400000Y-26475000D01*
X1651440Y-23851440D02*
X4275000Y-26475000D01*
X1651440Y-7568560D02*
X1651440Y-23851440D01*
X5220000Y-4000000D02*
X1651440Y-7568560D01*
%TO.N,/P16*%
X4275000Y-25825000D02*
X5400000Y-25825000D01*
X2100960Y-23650960D02*
X4275000Y-25825000D01*
X2100960Y-9659040D02*
X2100960Y-23650960D01*
X7760000Y-4000000D02*
X2100960Y-9659040D01*
%TO.N,/P15*%
X4275000Y-25175000D02*
X5400000Y-25175000D01*
X2550480Y-23450480D02*
X4275000Y-25175000D01*
X2550480Y-11749520D02*
X2550480Y-23450480D01*
X10300000Y-4000000D02*
X2550480Y-11749520D01*
%TO.N,/P05*%
X14240227Y-23975489D02*
X13000000Y-23975489D01*
X20265635Y-17950081D02*
X14240227Y-23975489D01*
%TO.N,/A4_IO36*%
X29120000Y-31120000D02*
X29120000Y-35000000D01*
X29000000Y-31000000D02*
X29120000Y-31120000D01*
%TO.N,/SDA*%
X46940000Y-19440000D02*
X46940000Y-16000000D01*
X47000000Y-19500000D02*
X46940000Y-19440000D01*
%TO.N,/SCL*%
X44400000Y-19400000D02*
X44400000Y-16000000D01*
X44500000Y-19500000D02*
X44400000Y-19400000D01*
%TO.N,/P00*%
X43000000Y-4000000D02*
X43320000Y-4000000D01*
X33022864Y-13977136D02*
X43000000Y-4000000D01*
X27894389Y-21625000D02*
X33022864Y-16496525D01*
X33022864Y-16496525D02*
X33022864Y-13977136D01*
%TO.N,/P01*%
X30457482Y-16761339D02*
X30457482Y-14322518D01*
X26243821Y-20975000D02*
X30457482Y-16761339D01*
X30457482Y-14322518D02*
X40780000Y-4000000D01*
%TO.N,/P02*%
X27875550Y-14364450D02*
X27875550Y-17488732D01*
X27875550Y-17488732D02*
X25039282Y-20325000D01*
X38240000Y-4000000D02*
X27875550Y-14364450D01*
%TO.N,/P03*%
X25359821Y-14340179D02*
X35700000Y-4000000D01*
X25359821Y-16718635D02*
X25359821Y-14340179D01*
X22403456Y-19675000D02*
X25359821Y-16718635D01*
%TO.N,/P04*%
X22784838Y-17215162D02*
X20975000Y-19025000D01*
X22784838Y-14375162D02*
X22784838Y-17215162D01*
X33160000Y-4000000D02*
X22784838Y-14375162D01*
%TO.N,/IO16*%
X52000000Y-24000000D02*
X52000000Y-8391436D01*
X42000000Y-34000000D02*
X52000000Y-24000000D01*
X52000000Y-8391436D02*
X53941916Y-6449520D01*
X87835480Y-6449520D02*
X90260000Y-4025000D01*
X42000000Y-34820000D02*
X42000000Y-34000000D01*
X53941916Y-6449520D02*
X87835480Y-6449520D01*
X41820000Y-35000000D02*
X42000000Y-34820000D01*
%TO.N,/IO17*%
X92800000Y-4200000D02*
X92800000Y-4025000D01*
X54027154Y-7000000D02*
X90000000Y-7000000D01*
X53000000Y-8027154D02*
X54027154Y-7000000D01*
X53000000Y-24000000D02*
X53000000Y-8027154D01*
X90000000Y-7000000D02*
X92800000Y-4200000D01*
X44360000Y-35000000D02*
X44360000Y-32640000D01*
X44360000Y-32640000D02*
X53000000Y-24000000D01*
%TO.N,/IO14_A6*%
X41860000Y-15140000D02*
X41860000Y-16000000D01*
X55055649Y-1944351D02*
X41860000Y-15140000D01*
X70794351Y-1944351D02*
X55055649Y-1944351D01*
X72875000Y-4025000D02*
X70794351Y-1944351D01*
%TO.N,/IO21*%
X50120000Y-9000000D02*
X50000000Y-9000000D01*
X55095000Y-4025000D02*
X50120000Y-9000000D01*
%TO.N,/P13*%
X3479991Y-23054013D02*
X4300978Y-23875000D01*
X4300978Y-23875000D02*
X5400000Y-23875000D01*
X3479991Y-21020009D02*
X3479991Y-23054013D01*
%TO.N,/P12*%
X13000000Y-17500000D02*
X7275000Y-23225000D01*
X7275000Y-23225000D02*
X5400000Y-23225000D01*
X13000000Y-8920000D02*
X13000000Y-12000000D01*
X17920000Y-4000000D02*
X13000000Y-8920000D01*
%TD*%
%TA.AperFunction,Conductor*%
%TO.N,3.3V*%
G36*
X95970056Y-509500D02*
G01*
X95972284Y-509847D01*
X95984859Y-511805D01*
X95984861Y-511805D01*
X95993730Y-513186D01*
X96002632Y-512022D01*
X96002634Y-512022D01*
X96008959Y-511195D01*
X96034282Y-510452D01*
X96198126Y-522170D01*
X96203343Y-522543D01*
X96221137Y-525101D01*
X96411540Y-566521D01*
X96428788Y-571586D01*
X96611363Y-639684D01*
X96627710Y-647149D01*
X96798735Y-740536D01*
X96813847Y-750248D01*
X96969841Y-867024D01*
X96983427Y-878797D01*
X97121203Y-1016573D01*
X97132976Y-1030159D01*
X97249752Y-1186153D01*
X97259464Y-1201265D01*
X97352849Y-1372285D01*
X97360316Y-1388637D01*
X97428414Y-1571212D01*
X97433479Y-1588460D01*
X97443545Y-1634729D01*
X97474899Y-1778863D01*
X97477457Y-1796658D01*
X97489041Y-1958629D01*
X97488297Y-1976533D01*
X97488195Y-1984858D01*
X97486814Y-1993730D01*
X97487978Y-2002632D01*
X97487978Y-2002635D01*
X97490936Y-2025251D01*
X97492000Y-2041589D01*
X97492000Y-7950672D01*
X97490500Y-7970056D01*
X97486814Y-7993730D01*
X97487978Y-8002632D01*
X97487978Y-8002634D01*
X97488805Y-8008959D01*
X97489548Y-8034287D01*
X97477457Y-8203343D01*
X97474899Y-8221137D01*
X97446764Y-8350474D01*
X97433480Y-8411538D01*
X97428414Y-8428788D01*
X97360316Y-8611363D01*
X97352851Y-8627710D01*
X97259464Y-8798735D01*
X97249753Y-8813846D01*
X97207610Y-8870142D01*
X97132976Y-8969841D01*
X97121203Y-8983427D01*
X96983427Y-9121203D01*
X96969841Y-9132976D01*
X96813847Y-9249752D01*
X96798735Y-9259464D01*
X96627710Y-9352851D01*
X96611363Y-9360316D01*
X96428788Y-9428414D01*
X96411540Y-9433479D01*
X96248022Y-9469051D01*
X96221137Y-9474899D01*
X96203342Y-9477457D01*
X96154443Y-9480954D01*
X96041369Y-9489041D01*
X96023467Y-9488297D01*
X96015142Y-9488195D01*
X96006270Y-9486814D01*
X95997368Y-9487978D01*
X95997365Y-9487978D01*
X95974749Y-9490936D01*
X95958411Y-9492000D01*
X57053207Y-9492000D01*
X57032303Y-9490254D01*
X57029137Y-9489721D01*
X57012539Y-9486929D01*
X57006349Y-9486853D01*
X57004864Y-9486835D01*
X57004859Y-9486835D01*
X57000000Y-9486776D01*
X56995190Y-9487465D01*
X56992699Y-9487627D01*
X56987110Y-9488196D01*
X56941809Y-9490936D01*
X56700938Y-9505506D01*
X56700933Y-9505507D01*
X56697141Y-9505736D01*
X56398699Y-9560427D01*
X56109025Y-9650693D01*
X56105555Y-9652255D01*
X56105549Y-9652257D01*
X56046427Y-9678866D01*
X55832344Y-9775217D01*
X55829087Y-9777186D01*
X55829083Y-9777188D01*
X55801599Y-9793803D01*
X55572690Y-9932184D01*
X55333849Y-10119304D01*
X55119304Y-10333849D01*
X55087508Y-10374434D01*
X54978893Y-10513071D01*
X54932184Y-10572690D01*
X54775217Y-10832344D01*
X54712955Y-10970684D01*
X54655458Y-11098438D01*
X54650693Y-11109025D01*
X54560427Y-11398699D01*
X54505736Y-11697141D01*
X54505507Y-11700933D01*
X54505506Y-11700938D01*
X54488777Y-11977506D01*
X54488223Y-11982639D01*
X54488216Y-11983271D01*
X54488381Y-11983670D01*
X54486814Y-11993730D01*
X54487485Y-11998861D01*
X54487416Y-12000000D01*
X54487634Y-12000000D01*
X54488623Y-12007562D01*
X54490936Y-12025250D01*
X54492000Y-12041588D01*
X54492000Y-37950672D01*
X54490500Y-37970056D01*
X54486814Y-37993730D01*
X54487978Y-38002632D01*
X54487978Y-38002634D01*
X54488805Y-38008959D01*
X54489548Y-38034287D01*
X54477457Y-38203343D01*
X54474899Y-38221137D01*
X54433480Y-38411538D01*
X54428414Y-38428788D01*
X54360316Y-38611363D01*
X54352851Y-38627710D01*
X54259464Y-38798735D01*
X54249752Y-38813847D01*
X54132976Y-38969841D01*
X54121203Y-38983427D01*
X53983427Y-39121203D01*
X53969841Y-39132976D01*
X53813847Y-39249752D01*
X53798735Y-39259464D01*
X53627710Y-39352851D01*
X53611363Y-39360316D01*
X53428788Y-39428414D01*
X53411540Y-39433479D01*
X53248022Y-39469051D01*
X53221137Y-39474899D01*
X53203342Y-39477457D01*
X53154443Y-39480954D01*
X53041369Y-39489041D01*
X53023467Y-39488297D01*
X53015142Y-39488195D01*
X53006270Y-39486814D01*
X52997368Y-39487978D01*
X52997365Y-39487978D01*
X52974749Y-39490936D01*
X52958411Y-39492000D01*
X2049328Y-39492000D01*
X2029943Y-39490500D01*
X2029661Y-39490456D01*
X2027117Y-39490060D01*
X2015141Y-39488195D01*
X2015139Y-39488195D01*
X2006270Y-39486814D01*
X1997368Y-39487978D01*
X1997366Y-39487978D01*
X1991041Y-39488805D01*
X1965718Y-39489548D01*
X1796657Y-39477457D01*
X1778863Y-39474899D01*
X1751978Y-39469051D01*
X1588460Y-39433479D01*
X1571212Y-39428414D01*
X1388637Y-39360316D01*
X1372290Y-39352851D01*
X1201265Y-39259464D01*
X1186153Y-39249752D01*
X1030159Y-39132976D01*
X1016573Y-39121203D01*
X878797Y-38983427D01*
X867024Y-38969841D01*
X750248Y-38813847D01*
X740536Y-38798735D01*
X647149Y-38627710D01*
X639684Y-38611363D01*
X571586Y-38428788D01*
X566520Y-38411538D01*
X525101Y-38221137D01*
X522543Y-38203342D01*
X510959Y-38041371D01*
X511703Y-38023467D01*
X511805Y-38015142D01*
X513186Y-38006270D01*
X511547Y-37993730D01*
X509064Y-37974749D01*
X508000Y-37958411D01*
X508000Y-34966695D01*
X7437251Y-34966695D01*
X7450110Y-35189715D01*
X7451247Y-35194761D01*
X7451248Y-35194767D01*
X7472275Y-35288069D01*
X7499222Y-35407639D01*
X7583266Y-35614616D01*
X7620685Y-35675678D01*
X7697291Y-35800688D01*
X7699987Y-35805088D01*
X7846250Y-35973938D01*
X8018126Y-36116632D01*
X8211000Y-36229338D01*
X8419692Y-36309030D01*
X8424760Y-36310061D01*
X8424763Y-36310062D01*
X8519862Y-36329410D01*
X8638597Y-36353567D01*
X8643772Y-36353757D01*
X8643774Y-36353757D01*
X8856673Y-36361564D01*
X8856677Y-36361564D01*
X8861837Y-36361753D01*
X8866957Y-36361097D01*
X8866959Y-36361097D01*
X9078288Y-36334025D01*
X9078289Y-36334025D01*
X9083416Y-36333368D01*
X9088366Y-36331883D01*
X9292429Y-36270661D01*
X9292434Y-36270659D01*
X9297384Y-36269174D01*
X9497994Y-36170896D01*
X9679860Y-36041173D01*
X9838096Y-35883489D01*
X9897594Y-35800689D01*
X9968453Y-35702077D01*
X9969640Y-35702930D01*
X10016960Y-35659362D01*
X10086897Y-35647145D01*
X10152338Y-35674678D01*
X10180166Y-35706511D01*
X10237694Y-35800388D01*
X10243777Y-35808699D01*
X10383213Y-35969667D01*
X10390580Y-35976883D01*
X10554434Y-36112916D01*
X10562881Y-36118831D01*
X10746756Y-36226279D01*
X10756042Y-36230729D01*
X10955001Y-36306703D01*
X10964899Y-36309579D01*
X11068250Y-36330606D01*
X11082299Y-36329410D01*
X11086000Y-36319065D01*
X11086000Y-33683102D01*
X11082082Y-33669758D01*
X11067806Y-33667771D01*
X11029324Y-33673660D01*
X11019288Y-33676051D01*
X10816868Y-33742212D01*
X10807359Y-33746209D01*
X10618463Y-33844542D01*
X10609738Y-33850036D01*
X10439433Y-33977905D01*
X10431726Y-33984748D01*
X10284590Y-34138717D01*
X10278109Y-34146722D01*
X10173498Y-34300074D01*
X10118587Y-34345076D01*
X10048062Y-34353247D01*
X9984315Y-34321993D01*
X9963618Y-34297509D01*
X9882822Y-34172617D01*
X9882820Y-34172614D01*
X9880014Y-34168277D01*
X9729670Y-34003051D01*
X9725619Y-33999852D01*
X9725615Y-33999848D01*
X9558414Y-33867800D01*
X9558410Y-33867798D01*
X9554359Y-33864598D01*
X9549831Y-33862098D01*
X9433988Y-33798150D01*
X9358789Y-33756638D01*
X9353920Y-33754914D01*
X9353916Y-33754912D01*
X9153087Y-33683795D01*
X9153083Y-33683794D01*
X9148212Y-33682069D01*
X9143119Y-33681162D01*
X9143116Y-33681161D01*
X8933373Y-33643800D01*
X8933367Y-33643799D01*
X8928284Y-33642894D01*
X8854452Y-33641992D01*
X8710081Y-33640228D01*
X8710079Y-33640228D01*
X8704911Y-33640165D01*
X8484091Y-33673955D01*
X8271756Y-33743357D01*
X8198757Y-33781358D01*
X8097975Y-33833822D01*
X8073607Y-33846507D01*
X8069474Y-33849610D01*
X8069471Y-33849612D01*
X7899100Y-33977530D01*
X7894965Y-33980635D01*
X7869541Y-34007240D01*
X7801280Y-34078671D01*
X7740629Y-34142138D01*
X7737720Y-34146403D01*
X7737714Y-34146411D01*
X7719627Y-34172926D01*
X7614743Y-34326680D01*
X7520688Y-34529305D01*
X7460989Y-34744570D01*
X7437251Y-34966695D01*
X508000Y-34966695D01*
X508000Y-7548503D01*
X1013220Y-7548503D01*
X1013966Y-7556395D01*
X1017381Y-7592521D01*
X1017940Y-7604379D01*
X1017940Y-23772673D01*
X1017413Y-23783856D01*
X1015738Y-23791349D01*
X1015987Y-23799275D01*
X1015987Y-23799276D01*
X1017878Y-23859426D01*
X1017940Y-23863385D01*
X1017940Y-23891296D01*
X1018437Y-23895230D01*
X1018437Y-23895231D01*
X1018445Y-23895296D01*
X1019378Y-23907133D01*
X1020767Y-23951329D01*
X1024501Y-23964181D01*
X1026418Y-23970779D01*
X1030427Y-23990140D01*
X1032966Y-24010237D01*
X1035885Y-24017608D01*
X1035885Y-24017610D01*
X1049244Y-24051352D01*
X1053089Y-24062582D01*
X1063211Y-24097423D01*
X1065422Y-24105033D01*
X1069455Y-24111852D01*
X1069457Y-24111857D01*
X1075733Y-24122468D01*
X1084428Y-24140216D01*
X1091888Y-24159057D01*
X1096550Y-24165473D01*
X1096550Y-24165474D01*
X1117876Y-24194827D01*
X1124392Y-24204747D01*
X1146898Y-24242802D01*
X1161219Y-24257123D01*
X1174059Y-24272156D01*
X1185968Y-24288547D01*
X1192074Y-24293598D01*
X1220045Y-24316738D01*
X1228824Y-24324728D01*
X3315536Y-26411440D01*
X3349562Y-26473752D01*
X3344497Y-26544567D01*
X3301950Y-26601403D01*
X3252639Y-26623781D01*
X3224176Y-26629831D01*
X3224167Y-26629834D01*
X3217712Y-26631206D01*
X3211682Y-26633891D01*
X3211681Y-26633891D01*
X3049278Y-26706197D01*
X3049276Y-26706198D01*
X3043248Y-26708882D01*
X3037907Y-26712762D01*
X3037906Y-26712763D01*
X3025388Y-26721858D01*
X2888747Y-26821134D01*
X2884326Y-26826044D01*
X2884325Y-26826045D01*
X2823714Y-26893361D01*
X2760960Y-26963056D01*
X2665473Y-27128444D01*
X2606458Y-27310072D01*
X2586496Y-27500000D01*
X2587186Y-27506565D01*
X2603162Y-27658564D01*
X2606458Y-27689928D01*
X2665473Y-27871556D01*
X2668776Y-27877278D01*
X2668777Y-27877279D01*
X2683047Y-27901995D01*
X2760960Y-28036944D01*
X2765378Y-28041851D01*
X2765379Y-28041852D01*
X2844598Y-28129834D01*
X2888747Y-28178866D01*
X2961502Y-28231726D01*
X3036423Y-28286159D01*
X3043248Y-28291118D01*
X3049276Y-28293802D01*
X3049278Y-28293803D01*
X3211679Y-28366108D01*
X3217712Y-28368794D01*
X3311113Y-28388647D01*
X3398056Y-28407128D01*
X3398061Y-28407128D01*
X3404513Y-28408500D01*
X3595487Y-28408500D01*
X3601939Y-28407128D01*
X3601944Y-28407128D01*
X3688887Y-28388647D01*
X3782288Y-28368794D01*
X3788315Y-28366111D01*
X3788323Y-28366108D01*
X3839252Y-28343433D01*
X3909619Y-28333999D01*
X3973916Y-28364106D01*
X4011729Y-28424195D01*
X4016500Y-28458540D01*
X4016500Y-28698134D01*
X4020909Y-28738720D01*
X4020909Y-28765933D01*
X4017369Y-28798517D01*
X4017000Y-28805328D01*
X4017000Y-28831885D01*
X4021475Y-28847124D01*
X4047170Y-28869389D01*
X4046712Y-28869918D01*
X4059100Y-28876682D01*
X4074207Y-28896839D01*
X4074385Y-28896705D01*
X4161739Y-29013261D01*
X4185043Y-29030726D01*
X4241681Y-29073174D01*
X4284196Y-29130033D01*
X4289222Y-29200851D01*
X4255162Y-29263145D01*
X4192831Y-29297135D01*
X4166116Y-29300000D01*
X4035116Y-29300000D01*
X4019877Y-29304475D01*
X4018672Y-29305865D01*
X4017001Y-29313548D01*
X4017001Y-29344669D01*
X4017371Y-29351490D01*
X4022895Y-29402352D01*
X4026521Y-29417604D01*
X4071676Y-29538054D01*
X4080214Y-29553649D01*
X4156715Y-29655724D01*
X4169276Y-29668285D01*
X4271351Y-29744786D01*
X4286946Y-29753324D01*
X4407394Y-29798478D01*
X4422649Y-29802105D01*
X4473514Y-29807631D01*
X4480328Y-29808000D01*
X5156885Y-29808000D01*
X5172124Y-29803525D01*
X5173329Y-29802135D01*
X5175000Y-29794452D01*
X5175000Y-29300000D01*
X5175552Y-29300000D01*
X5175553Y-29249000D01*
X5213938Y-29189275D01*
X5278519Y-29159782D01*
X5296449Y-29158500D01*
X5499000Y-29158500D01*
X5567121Y-29178502D01*
X5613614Y-29232158D01*
X5625000Y-29284500D01*
X5625000Y-29789884D01*
X5629475Y-29805123D01*
X5630865Y-29806328D01*
X5638548Y-29807999D01*
X6319669Y-29807999D01*
X6326490Y-29807629D01*
X6377352Y-29802105D01*
X6392604Y-29798479D01*
X6513054Y-29753324D01*
X6528649Y-29744786D01*
X6630724Y-29668285D01*
X6643285Y-29655724D01*
X6719786Y-29553649D01*
X6728324Y-29538054D01*
X6776252Y-29410207D01*
X6778350Y-29410994D01*
X6807918Y-29359239D01*
X6870874Y-29326421D01*
X6946529Y-29334927D01*
X7015440Y-29365608D01*
X7015448Y-29365611D01*
X7021475Y-29368294D01*
X7114876Y-29388147D01*
X7201819Y-29406628D01*
X7201824Y-29406628D01*
X7208276Y-29408000D01*
X7399250Y-29408000D01*
X7405702Y-29406628D01*
X7405707Y-29406628D01*
X7492650Y-29388147D01*
X7586051Y-29368294D01*
X7594467Y-29364547D01*
X7754485Y-29293303D01*
X7754487Y-29293302D01*
X7760515Y-29290618D01*
X7915016Y-29178366D01*
X7931749Y-29159782D01*
X8038384Y-29041352D01*
X8038385Y-29041351D01*
X8042803Y-29036444D01*
X8138290Y-28871056D01*
X8197305Y-28689428D01*
X8203142Y-28633891D01*
X8214973Y-28521329D01*
X8241986Y-28455673D01*
X8300208Y-28415043D01*
X8340283Y-28408500D01*
X8387906Y-28408500D01*
X8461967Y-28432564D01*
X8497181Y-28458148D01*
X8543248Y-28491618D01*
X8549276Y-28494302D01*
X8549278Y-28494303D01*
X8609980Y-28521329D01*
X8717712Y-28569294D01*
X8811112Y-28589147D01*
X8898056Y-28607628D01*
X8898061Y-28607628D01*
X8904513Y-28609000D01*
X9095487Y-28609000D01*
X9101939Y-28607628D01*
X9101944Y-28607628D01*
X9188888Y-28589147D01*
X9282288Y-28569294D01*
X9390020Y-28521329D01*
X9450722Y-28494303D01*
X9450724Y-28494302D01*
X9456752Y-28491618D01*
X9611253Y-28379366D01*
X9652807Y-28333216D01*
X9734621Y-28242352D01*
X9734622Y-28242351D01*
X9739040Y-28237444D01*
X9801169Y-28129834D01*
X9831223Y-28077779D01*
X9831224Y-28077778D01*
X9834527Y-28072056D01*
X9893542Y-27890428D01*
X9913504Y-27700500D01*
X9909096Y-27658564D01*
X9894232Y-27517135D01*
X9894232Y-27517133D01*
X9893542Y-27510572D01*
X9842672Y-27354010D01*
X9840645Y-27283042D01*
X9877307Y-27222245D01*
X9941019Y-27190919D01*
X10011553Y-27199012D01*
X10042822Y-27217990D01*
X10068606Y-27239321D01*
X10077384Y-27247310D01*
X10997321Y-28167247D01*
X11004865Y-28175537D01*
X11008978Y-28182018D01*
X11014755Y-28187443D01*
X11058645Y-28228658D01*
X11061487Y-28231413D01*
X11081209Y-28251135D01*
X11084333Y-28253558D01*
X11084337Y-28253562D01*
X11084402Y-28253612D01*
X11093423Y-28261317D01*
X11125657Y-28291586D01*
X11132605Y-28295405D01*
X11132607Y-28295407D01*
X11143410Y-28301346D01*
X11159931Y-28312198D01*
X11167723Y-28318242D01*
X11209291Y-28375795D01*
X11216500Y-28417803D01*
X11216500Y-28698134D01*
X11216869Y-28701528D01*
X11216869Y-28701533D01*
X11220656Y-28736393D01*
X11220656Y-28763606D01*
X11216500Y-28801866D01*
X11216500Y-29348134D01*
X11223255Y-29410316D01*
X11274385Y-29546705D01*
X11361739Y-29663261D01*
X11478295Y-29750615D01*
X11614684Y-29801745D01*
X11676866Y-29808500D01*
X13523134Y-29808500D01*
X13585316Y-29801745D01*
X13721705Y-29750615D01*
X13744311Y-29733673D01*
X13810815Y-29708826D01*
X13819874Y-29708500D01*
X14888595Y-29708500D01*
X14956716Y-29728502D01*
X14962656Y-29732564D01*
X15043248Y-29791118D01*
X15049276Y-29793802D01*
X15049278Y-29793803D01*
X15209799Y-29865271D01*
X15217712Y-29868794D01*
X15311112Y-29888647D01*
X15398056Y-29907128D01*
X15398061Y-29907128D01*
X15404513Y-29908500D01*
X15595487Y-29908500D01*
X15601939Y-29907128D01*
X15601944Y-29907128D01*
X15688888Y-29888647D01*
X15782288Y-29868794D01*
X15790201Y-29865271D01*
X15950722Y-29793803D01*
X15950724Y-29793802D01*
X15956752Y-29791118D01*
X16111253Y-29678866D01*
X16206419Y-29573173D01*
X16234621Y-29541852D01*
X16234622Y-29541851D01*
X16239040Y-29536944D01*
X16316747Y-29402352D01*
X16331223Y-29377279D01*
X16331224Y-29377278D01*
X16334527Y-29371556D01*
X16393542Y-29189928D01*
X16395274Y-29173455D01*
X16412814Y-29006565D01*
X16413504Y-29000000D01*
X16406620Y-28934498D01*
X16394232Y-28816635D01*
X16394232Y-28816633D01*
X16393542Y-28810072D01*
X16334527Y-28628444D01*
X16313990Y-28592872D01*
X16260081Y-28499500D01*
X16239040Y-28463056D01*
X16232393Y-28455673D01*
X16115675Y-28326045D01*
X16115674Y-28326044D01*
X16111253Y-28321134D01*
X15956752Y-28208882D01*
X15950724Y-28206198D01*
X15950722Y-28206197D01*
X15788319Y-28133891D01*
X15788318Y-28133891D01*
X15782288Y-28131206D01*
X15688888Y-28111353D01*
X15601944Y-28092872D01*
X15601939Y-28092872D01*
X15595487Y-28091500D01*
X15404513Y-28091500D01*
X15398061Y-28092872D01*
X15398056Y-28092872D01*
X15311112Y-28111353D01*
X15217712Y-28131206D01*
X15211682Y-28133891D01*
X15211681Y-28133891D01*
X15049278Y-28206197D01*
X15049276Y-28206198D01*
X15043248Y-28208882D01*
X14888747Y-28321134D01*
X14832819Y-28383249D01*
X14817907Y-28399810D01*
X14757461Y-28437050D01*
X14724271Y-28441500D01*
X14109500Y-28441500D01*
X14041379Y-28421498D01*
X13994886Y-28367842D01*
X13983500Y-28315500D01*
X13983500Y-28151866D01*
X13981548Y-28133891D01*
X13979344Y-28113607D01*
X13979344Y-28086393D01*
X13983131Y-28051533D01*
X13983131Y-28051529D01*
X13983500Y-28048134D01*
X13983500Y-27884500D01*
X14003502Y-27816379D01*
X14057158Y-27769886D01*
X14109500Y-27758500D01*
X22312147Y-27758500D01*
X22323330Y-27759027D01*
X22330823Y-27760702D01*
X22338749Y-27760453D01*
X22338750Y-27760453D01*
X22398900Y-27758562D01*
X22402859Y-27758500D01*
X22430770Y-27758500D01*
X22434705Y-27758003D01*
X22434770Y-27757995D01*
X22446607Y-27757062D01*
X22478865Y-27756048D01*
X22482884Y-27755922D01*
X22490803Y-27755673D01*
X22510257Y-27750021D01*
X22529614Y-27746013D01*
X22541844Y-27744468D01*
X22541845Y-27744468D01*
X22549711Y-27743474D01*
X22557082Y-27740555D01*
X22557084Y-27740555D01*
X22590826Y-27727196D01*
X22602056Y-27723351D01*
X22636897Y-27713229D01*
X22636898Y-27713229D01*
X22644507Y-27711018D01*
X22651326Y-27706985D01*
X22651331Y-27706983D01*
X22661942Y-27700707D01*
X22679690Y-27692012D01*
X22698531Y-27684552D01*
X22734301Y-27658564D01*
X22744221Y-27652048D01*
X22775449Y-27633580D01*
X22775452Y-27633578D01*
X22782276Y-27629542D01*
X22796597Y-27615221D01*
X22811631Y-27602380D01*
X22821608Y-27595131D01*
X22828021Y-27590472D01*
X22856212Y-27556395D01*
X22864202Y-27547616D01*
X28270255Y-22141563D01*
X28280094Y-22132888D01*
X28285751Y-22129542D01*
X28518198Y-21897095D01*
X43292001Y-21897095D01*
X43292338Y-21903614D01*
X43302257Y-21999206D01*
X43305149Y-22012600D01*
X43356588Y-22166784D01*
X43362761Y-22179962D01*
X43448063Y-22317807D01*
X43457099Y-22329208D01*
X43571829Y-22443739D01*
X43583240Y-22452751D01*
X43721243Y-22537816D01*
X43734424Y-22543963D01*
X43888710Y-22595138D01*
X43902086Y-22598005D01*
X43996438Y-22607672D01*
X44002854Y-22608000D01*
X44227885Y-22608000D01*
X44243124Y-22603525D01*
X44244329Y-22602135D01*
X44246000Y-22594452D01*
X44246000Y-21772115D01*
X44241525Y-21756876D01*
X44240135Y-21755671D01*
X44232452Y-21754000D01*
X43310116Y-21754000D01*
X43294877Y-21758475D01*
X43293672Y-21759865D01*
X43292001Y-21767548D01*
X43292001Y-21897095D01*
X28518198Y-21897095D01*
X30763899Y-19651394D01*
X33289879Y-17125415D01*
X33352191Y-17091389D01*
X33423006Y-17096454D01*
X33451242Y-17111295D01*
X33454151Y-17113332D01*
X33458126Y-17116632D01*
X33462586Y-17119238D01*
X33462590Y-17119241D01*
X33545847Y-17167892D01*
X33651000Y-17229338D01*
X33655825Y-17231180D01*
X33655826Y-17231181D01*
X33674299Y-17238235D01*
X33859692Y-17309030D01*
X33864760Y-17310061D01*
X33864763Y-17310062D01*
X33916314Y-17320550D01*
X34078597Y-17353567D01*
X34083772Y-17353757D01*
X34083774Y-17353757D01*
X34296673Y-17361564D01*
X34296677Y-17361564D01*
X34301837Y-17361753D01*
X34306957Y-17361097D01*
X34306959Y-17361097D01*
X34518288Y-17334025D01*
X34518289Y-17334025D01*
X34523416Y-17333368D01*
X34532289Y-17330706D01*
X34732429Y-17270661D01*
X34732434Y-17270659D01*
X34737384Y-17269174D01*
X34937994Y-17170896D01*
X35119860Y-17041173D01*
X35278096Y-16883489D01*
X35408453Y-16702077D01*
X35409776Y-16703028D01*
X35456645Y-16659857D01*
X35526580Y-16647625D01*
X35592026Y-16675144D01*
X35619875Y-16706994D01*
X35679987Y-16805088D01*
X35826250Y-16973938D01*
X35963996Y-17088297D01*
X35991698Y-17111295D01*
X35998126Y-17116632D01*
X36191000Y-17229338D01*
X36195825Y-17231180D01*
X36195826Y-17231181D01*
X36214299Y-17238235D01*
X36399692Y-17309030D01*
X36404760Y-17310061D01*
X36404763Y-17310062D01*
X36456314Y-17320550D01*
X36618597Y-17353567D01*
X36623772Y-17353757D01*
X36623774Y-17353757D01*
X36836673Y-17361564D01*
X36836677Y-17361564D01*
X36841837Y-17361753D01*
X36846957Y-17361097D01*
X36846959Y-17361097D01*
X37058288Y-17334025D01*
X37058289Y-17334025D01*
X37063416Y-17333368D01*
X37072289Y-17330706D01*
X37272429Y-17270661D01*
X37272434Y-17270659D01*
X37277384Y-17269174D01*
X37477994Y-17170896D01*
X37659860Y-17041173D01*
X37818096Y-16883489D01*
X37948453Y-16702077D01*
X37949776Y-16703028D01*
X37996645Y-16659857D01*
X38066580Y-16647625D01*
X38132026Y-16675144D01*
X38159875Y-16706994D01*
X38219987Y-16805088D01*
X38366250Y-16973938D01*
X38503996Y-17088297D01*
X38531698Y-17111295D01*
X38538126Y-17116632D01*
X38731000Y-17229338D01*
X38735825Y-17231180D01*
X38735826Y-17231181D01*
X38754299Y-17238235D01*
X38939692Y-17309030D01*
X38944760Y-17310061D01*
X38944763Y-17310062D01*
X38996314Y-17320550D01*
X39158597Y-17353567D01*
X39163772Y-17353757D01*
X39163774Y-17353757D01*
X39376673Y-17361564D01*
X39376677Y-17361564D01*
X39381837Y-17361753D01*
X39386957Y-17361097D01*
X39386959Y-17361097D01*
X39598288Y-17334025D01*
X39598289Y-17334025D01*
X39603416Y-17333368D01*
X39612289Y-17330706D01*
X39812429Y-17270661D01*
X39812434Y-17270659D01*
X39817384Y-17269174D01*
X40017994Y-17170896D01*
X40199860Y-17041173D01*
X40358096Y-16883489D01*
X40488453Y-16702077D01*
X40489776Y-16703028D01*
X40536645Y-16659857D01*
X40606580Y-16647625D01*
X40672026Y-16675144D01*
X40699875Y-16706994D01*
X40759987Y-16805088D01*
X40906250Y-16973938D01*
X41043996Y-17088297D01*
X41071698Y-17111295D01*
X41078126Y-17116632D01*
X41271000Y-17229338D01*
X41275825Y-17231180D01*
X41275826Y-17231181D01*
X41294299Y-17238235D01*
X41479692Y-17309030D01*
X41484760Y-17310061D01*
X41484763Y-17310062D01*
X41536314Y-17320550D01*
X41698597Y-17353567D01*
X41703772Y-17353757D01*
X41703774Y-17353757D01*
X41916673Y-17361564D01*
X41916677Y-17361564D01*
X41921837Y-17361753D01*
X41926957Y-17361097D01*
X41926959Y-17361097D01*
X42138288Y-17334025D01*
X42138289Y-17334025D01*
X42143416Y-17333368D01*
X42152289Y-17330706D01*
X42352429Y-17270661D01*
X42352434Y-17270659D01*
X42357384Y-17269174D01*
X42557994Y-17170896D01*
X42739860Y-17041173D01*
X42898096Y-16883489D01*
X43028453Y-16702077D01*
X43029776Y-16703028D01*
X43076645Y-16659857D01*
X43146580Y-16647625D01*
X43212026Y-16675144D01*
X43239875Y-16706994D01*
X43299987Y-16805088D01*
X43446250Y-16973938D01*
X43583996Y-17088297D01*
X43611698Y-17111295D01*
X43618126Y-17116632D01*
X43666392Y-17144836D01*
X43704070Y-17166853D01*
X43752794Y-17218491D01*
X43766500Y-17275641D01*
X43766500Y-18363219D01*
X43746498Y-18431340D01*
X43706803Y-18470363D01*
X43575652Y-18551522D01*
X43450695Y-18676697D01*
X43357885Y-18827262D01*
X43302203Y-18995139D01*
X43301503Y-19001975D01*
X43301502Y-19001978D01*
X43297091Y-19045031D01*
X43291500Y-19099600D01*
X43291500Y-19900400D01*
X43302474Y-20006166D01*
X43358450Y-20173946D01*
X43451522Y-20324348D01*
X43456704Y-20329521D01*
X43538463Y-20411138D01*
X43572542Y-20473421D01*
X43567539Y-20544241D01*
X43538618Y-20589329D01*
X43456261Y-20671829D01*
X43447249Y-20683240D01*
X43362184Y-20821243D01*
X43356037Y-20834424D01*
X43304862Y-20988710D01*
X43301995Y-21002086D01*
X43292328Y-21096438D01*
X43292000Y-21102855D01*
X43292000Y-21227885D01*
X43296475Y-21243124D01*
X43297865Y-21244329D01*
X43305548Y-21246000D01*
X44628000Y-21246000D01*
X44696121Y-21266002D01*
X44742614Y-21319658D01*
X44754000Y-21372000D01*
X44754000Y-22589884D01*
X44758475Y-22605123D01*
X44759865Y-22606328D01*
X44767548Y-22607999D01*
X44997095Y-22607999D01*
X45003614Y-22607662D01*
X45099206Y-22597743D01*
X45112600Y-22594851D01*
X45266784Y-22543412D01*
X45279962Y-22537239D01*
X45417807Y-22451937D01*
X45429208Y-22442901D01*
X45543739Y-22328171D01*
X45552751Y-22316760D01*
X45641658Y-22172525D01*
X45643877Y-22173893D01*
X45682732Y-22129763D01*
X45751009Y-22110301D01*
X45818970Y-22130842D01*
X45857146Y-22174821D01*
X45858906Y-22173732D01*
X45948063Y-22317807D01*
X45957099Y-22329208D01*
X46071829Y-22443739D01*
X46083240Y-22452751D01*
X46221243Y-22537816D01*
X46234424Y-22543963D01*
X46388710Y-22595138D01*
X46402086Y-22598005D01*
X46496438Y-22607672D01*
X46502854Y-22608000D01*
X46727885Y-22608000D01*
X46743124Y-22603525D01*
X46744329Y-22602135D01*
X46746000Y-22594452D01*
X46746000Y-22589884D01*
X47254000Y-22589884D01*
X47258475Y-22605123D01*
X47259865Y-22606328D01*
X47267548Y-22607999D01*
X47497095Y-22607999D01*
X47503614Y-22607662D01*
X47599206Y-22597743D01*
X47612600Y-22594851D01*
X47766784Y-22543412D01*
X47779962Y-22537239D01*
X47917807Y-22451937D01*
X47929208Y-22442901D01*
X48043739Y-22328171D01*
X48052751Y-22316760D01*
X48137816Y-22178757D01*
X48143963Y-22165576D01*
X48195138Y-22011290D01*
X48198005Y-21997914D01*
X48207672Y-21903562D01*
X48208000Y-21897146D01*
X48208000Y-21772115D01*
X48203525Y-21756876D01*
X48202135Y-21755671D01*
X48194452Y-21754000D01*
X47272115Y-21754000D01*
X47256876Y-21758475D01*
X47255671Y-21759865D01*
X47254000Y-21767548D01*
X47254000Y-22589884D01*
X46746000Y-22589884D01*
X46746000Y-21372000D01*
X46766002Y-21303879D01*
X46819658Y-21257386D01*
X46872000Y-21246000D01*
X48189884Y-21246000D01*
X48205123Y-21241525D01*
X48206328Y-21240135D01*
X48207999Y-21232452D01*
X48207999Y-21102905D01*
X48207662Y-21096386D01*
X48197743Y-21000794D01*
X48194851Y-20987400D01*
X48143412Y-20833216D01*
X48137239Y-20820038D01*
X48051937Y-20682193D01*
X48042901Y-20670792D01*
X47961538Y-20589570D01*
X47927459Y-20527287D01*
X47932462Y-20456467D01*
X47961383Y-20411380D01*
X48044130Y-20328488D01*
X48044134Y-20328483D01*
X48049305Y-20323303D01*
X48090185Y-20256984D01*
X48138275Y-20178968D01*
X48138276Y-20178966D01*
X48142115Y-20172738D01*
X48197797Y-20004861D01*
X48208500Y-19900400D01*
X48208500Y-19099600D01*
X48197526Y-18993834D01*
X48141550Y-18826054D01*
X48048478Y-18675652D01*
X47923303Y-18550695D01*
X47772738Y-18457885D01*
X47692707Y-18431340D01*
X47659833Y-18420436D01*
X47601473Y-18380005D01*
X47574236Y-18314441D01*
X47573500Y-18300843D01*
X47573500Y-17280427D01*
X47593502Y-17212306D01*
X47634618Y-17172550D01*
X47637994Y-17170896D01*
X47819860Y-17041173D01*
X47978096Y-16883489D01*
X48108453Y-16702077D01*
X48129320Y-16659857D01*
X48205136Y-16506453D01*
X48205137Y-16506451D01*
X48207430Y-16501811D01*
X48272370Y-16288069D01*
X48301529Y-16066590D01*
X48303156Y-16000000D01*
X48284852Y-15777361D01*
X48230431Y-15560702D01*
X48141354Y-15355840D01*
X48020014Y-15168277D01*
X47869670Y-15003051D01*
X47865619Y-14999852D01*
X47865615Y-14999848D01*
X47698414Y-14867800D01*
X47698410Y-14867798D01*
X47694359Y-14864598D01*
X47498789Y-14756638D01*
X47493920Y-14754914D01*
X47493916Y-14754912D01*
X47293087Y-14683795D01*
X47293083Y-14683794D01*
X47288212Y-14682069D01*
X47283119Y-14681162D01*
X47283116Y-14681161D01*
X47073373Y-14643800D01*
X47073367Y-14643799D01*
X47068284Y-14642894D01*
X46994452Y-14641992D01*
X46850081Y-14640228D01*
X46850079Y-14640228D01*
X46844911Y-14640165D01*
X46624091Y-14673955D01*
X46411756Y-14743357D01*
X46213607Y-14846507D01*
X46209474Y-14849610D01*
X46209471Y-14849612D01*
X46046355Y-14972083D01*
X46034965Y-14980635D01*
X45880629Y-15142138D01*
X45773201Y-15299621D01*
X45718293Y-15344621D01*
X45647768Y-15352792D01*
X45584021Y-15321538D01*
X45563324Y-15297054D01*
X45482822Y-15172617D01*
X45482820Y-15172614D01*
X45480014Y-15168277D01*
X45329670Y-15003051D01*
X45325619Y-14999852D01*
X45325615Y-14999848D01*
X45158414Y-14867800D01*
X45158410Y-14867798D01*
X45154359Y-14864598D01*
X44958789Y-14756638D01*
X44953920Y-14754914D01*
X44953916Y-14754912D01*
X44753087Y-14683795D01*
X44753083Y-14683794D01*
X44748212Y-14682069D01*
X44743119Y-14681162D01*
X44743116Y-14681161D01*
X44533373Y-14643800D01*
X44533367Y-14643799D01*
X44528284Y-14642894D01*
X44454452Y-14641992D01*
X44310081Y-14640228D01*
X44310079Y-14640228D01*
X44304911Y-14640165D01*
X44084091Y-14673955D01*
X43871756Y-14743357D01*
X43673607Y-14846507D01*
X43669474Y-14849610D01*
X43669471Y-14849612D01*
X43506355Y-14972083D01*
X43494965Y-14980635D01*
X43340629Y-15142138D01*
X43233201Y-15299621D01*
X43178293Y-15344621D01*
X43107768Y-15352792D01*
X43044021Y-15321538D01*
X43023324Y-15297054D01*
X42942822Y-15172617D01*
X42942820Y-15172614D01*
X42940014Y-15168277D01*
X42919724Y-15145978D01*
X42888672Y-15082133D01*
X42897066Y-15011635D01*
X42923822Y-14972083D01*
X45902175Y-11993730D01*
X48881577Y-9014327D01*
X48943889Y-8980301D01*
X49014704Y-8985366D01*
X49071540Y-9027913D01*
X49095982Y-9090251D01*
X49106458Y-9189928D01*
X49165473Y-9371556D01*
X49260960Y-9536944D01*
X49388747Y-9678866D01*
X49487843Y-9750864D01*
X49519210Y-9773653D01*
X49543248Y-9791118D01*
X49549276Y-9793802D01*
X49549278Y-9793803D01*
X49711681Y-9866109D01*
X49717712Y-9868794D01*
X49811112Y-9888647D01*
X49898056Y-9907128D01*
X49898061Y-9907128D01*
X49904513Y-9908500D01*
X50095487Y-9908500D01*
X50101939Y-9907128D01*
X50101944Y-9907128D01*
X50214303Y-9883245D01*
X50285094Y-9888647D01*
X50341727Y-9931464D01*
X50366220Y-9998102D01*
X50366500Y-10006492D01*
X50366500Y-23685405D01*
X50346498Y-23753526D01*
X50329595Y-23774500D01*
X44774500Y-29329595D01*
X44712188Y-29363621D01*
X44685405Y-29366500D01*
X36078767Y-29366500D01*
X36067584Y-29365973D01*
X36060091Y-29364298D01*
X36052165Y-29364547D01*
X36052164Y-29364547D01*
X35992001Y-29366438D01*
X35988043Y-29366500D01*
X35960144Y-29366500D01*
X35956154Y-29367004D01*
X35944320Y-29367936D01*
X35900111Y-29369326D01*
X35892497Y-29371538D01*
X35892492Y-29371539D01*
X35880659Y-29374977D01*
X35861296Y-29378988D01*
X35841203Y-29381526D01*
X35833836Y-29384443D01*
X35833831Y-29384444D01*
X35800092Y-29397802D01*
X35788865Y-29401646D01*
X35786064Y-29402460D01*
X35746407Y-29413982D01*
X35739581Y-29418019D01*
X35728972Y-29424293D01*
X35711224Y-29432988D01*
X35692383Y-29440448D01*
X35685967Y-29445110D01*
X35685966Y-29445110D01*
X35656613Y-29466436D01*
X35646693Y-29472952D01*
X35615465Y-29491420D01*
X35615462Y-29491422D01*
X35608638Y-29495458D01*
X35594317Y-29509779D01*
X35579284Y-29522619D01*
X35562893Y-29534528D01*
X35534702Y-29568605D01*
X35526712Y-29577384D01*
X31474893Y-33629202D01*
X31412581Y-33663228D01*
X31404863Y-33664656D01*
X31386811Y-33667418D01*
X31349205Y-33673172D01*
X31349200Y-33673173D01*
X31344091Y-33673955D01*
X31131756Y-33743357D01*
X31058757Y-33781358D01*
X30957975Y-33833822D01*
X30933607Y-33846507D01*
X30929474Y-33849610D01*
X30929471Y-33849612D01*
X30759100Y-33977530D01*
X30754965Y-33980635D01*
X30729541Y-34007240D01*
X30661280Y-34078671D01*
X30600629Y-34142138D01*
X30493201Y-34299621D01*
X30438293Y-34344621D01*
X30367768Y-34352792D01*
X30304021Y-34321538D01*
X30283324Y-34297054D01*
X30202822Y-34172617D01*
X30202820Y-34172614D01*
X30200014Y-34168277D01*
X30049670Y-34003051D01*
X30045619Y-33999852D01*
X30045615Y-33999848D01*
X29878414Y-33867800D01*
X29878410Y-33867798D01*
X29874359Y-33864598D01*
X29869835Y-33862101D01*
X29869831Y-33862098D01*
X29818608Y-33833822D01*
X29768636Y-33783390D01*
X29753500Y-33723513D01*
X29753500Y-32124405D01*
X29773502Y-32056284D01*
X29813197Y-32017261D01*
X29918120Y-31952332D01*
X29924348Y-31948478D01*
X30049305Y-31823303D01*
X30142115Y-31672738D01*
X30197797Y-31504861D01*
X30208500Y-31400400D01*
X30208500Y-30599600D01*
X30197526Y-30493834D01*
X30141550Y-30326054D01*
X30048478Y-30175652D01*
X29961537Y-30088862D01*
X29927458Y-30026579D01*
X29932461Y-29955759D01*
X29961382Y-29910671D01*
X30043739Y-29828171D01*
X30052751Y-29816760D01*
X30137816Y-29678757D01*
X30143963Y-29665576D01*
X30195138Y-29511290D01*
X30198005Y-29497914D01*
X30207672Y-29403562D01*
X30208000Y-29397146D01*
X30208000Y-29272115D01*
X30203525Y-29256876D01*
X30202135Y-29255671D01*
X30194452Y-29254000D01*
X28872000Y-29254000D01*
X28803879Y-29233998D01*
X28757386Y-29180342D01*
X28746000Y-29128000D01*
X28746000Y-28727885D01*
X29254000Y-28727885D01*
X29258475Y-28743124D01*
X29259865Y-28744329D01*
X29267548Y-28746000D01*
X30189884Y-28746000D01*
X30205123Y-28741525D01*
X30206328Y-28740135D01*
X30207999Y-28732452D01*
X30207999Y-28602905D01*
X30207662Y-28596386D01*
X30197743Y-28500794D01*
X30194851Y-28487400D01*
X30143412Y-28333216D01*
X30137239Y-28320038D01*
X30051937Y-28182193D01*
X30042901Y-28170792D01*
X29928171Y-28056261D01*
X29916760Y-28047249D01*
X29778757Y-27962184D01*
X29765576Y-27956037D01*
X29611290Y-27904862D01*
X29597914Y-27901995D01*
X29503562Y-27892328D01*
X29497145Y-27892000D01*
X29272115Y-27892000D01*
X29256876Y-27896475D01*
X29255671Y-27897865D01*
X29254000Y-27905548D01*
X29254000Y-28727885D01*
X28746000Y-28727885D01*
X28746000Y-27910116D01*
X28741525Y-27894877D01*
X28740135Y-27893672D01*
X28732452Y-27892001D01*
X28502905Y-27892001D01*
X28496386Y-27892338D01*
X28400794Y-27902257D01*
X28387400Y-27905149D01*
X28233216Y-27956588D01*
X28220038Y-27962761D01*
X28082193Y-28048063D01*
X28070792Y-28057099D01*
X27956261Y-28171829D01*
X27947249Y-28183240D01*
X27862184Y-28321243D01*
X27856037Y-28334424D01*
X27804862Y-28488710D01*
X27801995Y-28502086D01*
X27792328Y-28596438D01*
X27792000Y-28602855D01*
X27792000Y-28650675D01*
X27771998Y-28718796D01*
X27718342Y-28765289D01*
X27648068Y-28775393D01*
X27591942Y-28752612D01*
X27531752Y-28708882D01*
X27525724Y-28706198D01*
X27525722Y-28706197D01*
X27363319Y-28633891D01*
X27363318Y-28633891D01*
X27357288Y-28631206D01*
X27246363Y-28607628D01*
X27176944Y-28592872D01*
X27176939Y-28592872D01*
X27170487Y-28591500D01*
X26979513Y-28591500D01*
X26973061Y-28592872D01*
X26973056Y-28592872D01*
X26903637Y-28607628D01*
X26792712Y-28631206D01*
X26786682Y-28633891D01*
X26786681Y-28633891D01*
X26624278Y-28706197D01*
X26624276Y-28706198D01*
X26618248Y-28708882D01*
X26612907Y-28712762D01*
X26612906Y-28712763D01*
X26575232Y-28740135D01*
X26463747Y-28821134D01*
X26459326Y-28826044D01*
X26459325Y-28826045D01*
X26395703Y-28896705D01*
X26335960Y-28963056D01*
X26240473Y-29128444D01*
X26181458Y-29310072D01*
X26180768Y-29316633D01*
X26180768Y-29316635D01*
X26168062Y-29437531D01*
X26161496Y-29500000D01*
X26162186Y-29506565D01*
X26178899Y-29665576D01*
X26181458Y-29689928D01*
X26240473Y-29871556D01*
X26243776Y-29877278D01*
X26243777Y-29877279D01*
X26261803Y-29908500D01*
X26335960Y-30036944D01*
X26463747Y-30178866D01*
X26618248Y-30291118D01*
X26624276Y-30293802D01*
X26624278Y-30293803D01*
X26770615Y-30358956D01*
X26792712Y-30368794D01*
X26886113Y-30388647D01*
X26973056Y-30407128D01*
X26973061Y-30407128D01*
X26979513Y-30408500D01*
X27170487Y-30408500D01*
X27176939Y-30407128D01*
X27176944Y-30407128D01*
X27315660Y-30377642D01*
X27357288Y-30368794D01*
X27363324Y-30366107D01*
X27369598Y-30364068D01*
X27370475Y-30366767D01*
X27428457Y-30358956D01*
X27492772Y-30389023D01*
X27498510Y-30394414D01*
X27754595Y-30650499D01*
X27788621Y-30712811D01*
X27791500Y-30739594D01*
X27791500Y-31400400D01*
X27802474Y-31506166D01*
X27858450Y-31673946D01*
X27951522Y-31824348D01*
X28076697Y-31949305D01*
X28082927Y-31953145D01*
X28082928Y-31953146D01*
X28186942Y-32017261D01*
X28227262Y-32042115D01*
X28395139Y-32097797D01*
X28394596Y-32099433D01*
X28449328Y-32129106D01*
X28483540Y-32191316D01*
X28486500Y-32218468D01*
X28486500Y-33721692D01*
X28466498Y-33789813D01*
X28418683Y-33833453D01*
X28393607Y-33846507D01*
X28389474Y-33849610D01*
X28389471Y-33849612D01*
X28219100Y-33977530D01*
X28214965Y-33980635D01*
X28189541Y-34007240D01*
X28121280Y-34078671D01*
X28060629Y-34142138D01*
X27953201Y-34299621D01*
X27898293Y-34344621D01*
X27827768Y-34352792D01*
X27764021Y-34321538D01*
X27743324Y-34297054D01*
X27662822Y-34172617D01*
X27662820Y-34172614D01*
X27660014Y-34168277D01*
X27509670Y-34003051D01*
X27505619Y-33999852D01*
X27505615Y-33999848D01*
X27338414Y-33867800D01*
X27338410Y-33867798D01*
X27334359Y-33864598D01*
X27329831Y-33862098D01*
X27213988Y-33798150D01*
X27138789Y-33756638D01*
X27133920Y-33754914D01*
X27133916Y-33754912D01*
X26933087Y-33683795D01*
X26933083Y-33683794D01*
X26928212Y-33682069D01*
X26923119Y-33681162D01*
X26923116Y-33681161D01*
X26713373Y-33643800D01*
X26713367Y-33643799D01*
X26708284Y-33642894D01*
X26634452Y-33641992D01*
X26490081Y-33640228D01*
X26490079Y-33640228D01*
X26484911Y-33640165D01*
X26264091Y-33673955D01*
X26051756Y-33743357D01*
X25978757Y-33781358D01*
X25877975Y-33833822D01*
X25853607Y-33846507D01*
X25849474Y-33849610D01*
X25849471Y-33849612D01*
X25679100Y-33977530D01*
X25674965Y-33980635D01*
X25649541Y-34007240D01*
X25581280Y-34078671D01*
X25520629Y-34142138D01*
X25413201Y-34299621D01*
X25358293Y-34344621D01*
X25287768Y-34352792D01*
X25224021Y-34321538D01*
X25203324Y-34297054D01*
X25122822Y-34172617D01*
X25122820Y-34172614D01*
X25120014Y-34168277D01*
X24969670Y-34003051D01*
X24965619Y-33999852D01*
X24965615Y-33999848D01*
X24798414Y-33867800D01*
X24798410Y-33867798D01*
X24794359Y-33864598D01*
X24789831Y-33862098D01*
X24673988Y-33798150D01*
X24598789Y-33756638D01*
X24593920Y-33754914D01*
X24593916Y-33754912D01*
X24393087Y-33683795D01*
X24393083Y-33683794D01*
X24388212Y-33682069D01*
X24383119Y-33681162D01*
X24383116Y-33681161D01*
X24173373Y-33643800D01*
X24173367Y-33643799D01*
X24168284Y-33642894D01*
X24094452Y-33641992D01*
X23950081Y-33640228D01*
X23950079Y-33640228D01*
X23944911Y-33640165D01*
X23724091Y-33673955D01*
X23511756Y-33743357D01*
X23438757Y-33781358D01*
X23337975Y-33833822D01*
X23313607Y-33846507D01*
X23309474Y-33849610D01*
X23309471Y-33849612D01*
X23139100Y-33977530D01*
X23134965Y-33980635D01*
X23109541Y-34007240D01*
X23041280Y-34078671D01*
X22980629Y-34142138D01*
X22873201Y-34299621D01*
X22818293Y-34344621D01*
X22747768Y-34352792D01*
X22684021Y-34321538D01*
X22663324Y-34297054D01*
X22582822Y-34172617D01*
X22582820Y-34172614D01*
X22580014Y-34168277D01*
X22429670Y-34003051D01*
X22425619Y-33999852D01*
X22425615Y-33999848D01*
X22258414Y-33867800D01*
X22258410Y-33867798D01*
X22254359Y-33864598D01*
X22249831Y-33862098D01*
X22133988Y-33798150D01*
X22058789Y-33756638D01*
X22053920Y-33754914D01*
X22053916Y-33754912D01*
X21853087Y-33683795D01*
X21853083Y-33683794D01*
X21848212Y-33682069D01*
X21843119Y-33681162D01*
X21843116Y-33681161D01*
X21633373Y-33643800D01*
X21633367Y-33643799D01*
X21628284Y-33642894D01*
X21554452Y-33641992D01*
X21410081Y-33640228D01*
X21410079Y-33640228D01*
X21404911Y-33640165D01*
X21184091Y-33673955D01*
X20971756Y-33743357D01*
X20898757Y-33781358D01*
X20797975Y-33833822D01*
X20773607Y-33846507D01*
X20769474Y-33849610D01*
X20769471Y-33849612D01*
X20599100Y-33977530D01*
X20594965Y-33980635D01*
X20569541Y-34007240D01*
X20501280Y-34078671D01*
X20440629Y-34142138D01*
X20333201Y-34299621D01*
X20278293Y-34344621D01*
X20207768Y-34352792D01*
X20144021Y-34321538D01*
X20123324Y-34297054D01*
X20042822Y-34172617D01*
X20042820Y-34172614D01*
X20040014Y-34168277D01*
X19889670Y-34003051D01*
X19885619Y-33999852D01*
X19885615Y-33999848D01*
X19718414Y-33867800D01*
X19718410Y-33867798D01*
X19714359Y-33864598D01*
X19709831Y-33862098D01*
X19593988Y-33798150D01*
X19518789Y-33756638D01*
X19513920Y-33754914D01*
X19513916Y-33754912D01*
X19313087Y-33683795D01*
X19313083Y-33683794D01*
X19308212Y-33682069D01*
X19303119Y-33681162D01*
X19303116Y-33681161D01*
X19093373Y-33643800D01*
X19093367Y-33643799D01*
X19088284Y-33642894D01*
X19014452Y-33641992D01*
X18870081Y-33640228D01*
X18870079Y-33640228D01*
X18864911Y-33640165D01*
X18644091Y-33673955D01*
X18431756Y-33743357D01*
X18358757Y-33781358D01*
X18257975Y-33833822D01*
X18233607Y-33846507D01*
X18229474Y-33849610D01*
X18229471Y-33849612D01*
X18059100Y-33977530D01*
X18054965Y-33980635D01*
X18029541Y-34007240D01*
X17961280Y-34078671D01*
X17900629Y-34142138D01*
X17793201Y-34299621D01*
X17738293Y-34344621D01*
X17667768Y-34352792D01*
X17604021Y-34321538D01*
X17583324Y-34297054D01*
X17502822Y-34172617D01*
X17502820Y-34172614D01*
X17500014Y-34168277D01*
X17349670Y-34003051D01*
X17345619Y-33999852D01*
X17345615Y-33999848D01*
X17178414Y-33867800D01*
X17178410Y-33867798D01*
X17174359Y-33864598D01*
X17169831Y-33862098D01*
X17053988Y-33798150D01*
X16978789Y-33756638D01*
X16973920Y-33754914D01*
X16973916Y-33754912D01*
X16773087Y-33683795D01*
X16773083Y-33683794D01*
X16768212Y-33682069D01*
X16763119Y-33681162D01*
X16763116Y-33681161D01*
X16553373Y-33643800D01*
X16553367Y-33643799D01*
X16548284Y-33642894D01*
X16474452Y-33641992D01*
X16330081Y-33640228D01*
X16330079Y-33640228D01*
X16324911Y-33640165D01*
X16104091Y-33673955D01*
X15891756Y-33743357D01*
X15818757Y-33781358D01*
X15717975Y-33833822D01*
X15693607Y-33846507D01*
X15689474Y-33849610D01*
X15689471Y-33849612D01*
X15519100Y-33977530D01*
X15514965Y-33980635D01*
X15489541Y-34007240D01*
X15421280Y-34078671D01*
X15360629Y-34142138D01*
X15253201Y-34299621D01*
X15198293Y-34344621D01*
X15127768Y-34352792D01*
X15064021Y-34321538D01*
X15043324Y-34297054D01*
X14962822Y-34172617D01*
X14962820Y-34172614D01*
X14960014Y-34168277D01*
X14809670Y-34003051D01*
X14805619Y-33999852D01*
X14805615Y-33999848D01*
X14638414Y-33867800D01*
X14638410Y-33867798D01*
X14634359Y-33864598D01*
X14629831Y-33862098D01*
X14513988Y-33798150D01*
X14438789Y-33756638D01*
X14433920Y-33754914D01*
X14433916Y-33754912D01*
X14233087Y-33683795D01*
X14233083Y-33683794D01*
X14228212Y-33682069D01*
X14223119Y-33681162D01*
X14223116Y-33681161D01*
X14013373Y-33643800D01*
X14013367Y-33643799D01*
X14008284Y-33642894D01*
X13934452Y-33641992D01*
X13790081Y-33640228D01*
X13790079Y-33640228D01*
X13784911Y-33640165D01*
X13564091Y-33673955D01*
X13351756Y-33743357D01*
X13278757Y-33781358D01*
X13177975Y-33833822D01*
X13153607Y-33846507D01*
X13149474Y-33849610D01*
X13149471Y-33849612D01*
X12979100Y-33977530D01*
X12974965Y-33980635D01*
X12949541Y-34007240D01*
X12881280Y-34078671D01*
X12820629Y-34142138D01*
X12817720Y-34146403D01*
X12817714Y-34146411D01*
X12799627Y-34172926D01*
X12713204Y-34299618D01*
X12712898Y-34300066D01*
X12657987Y-34345069D01*
X12587462Y-34353240D01*
X12523715Y-34321986D01*
X12503018Y-34297502D01*
X12422426Y-34172926D01*
X12416136Y-34164757D01*
X12272806Y-34007240D01*
X12265273Y-34000215D01*
X12098139Y-33868222D01*
X12089552Y-33862517D01*
X11903117Y-33759599D01*
X11893705Y-33755369D01*
X11692959Y-33684280D01*
X11682988Y-33681646D01*
X11611837Y-33668972D01*
X11598540Y-33670432D01*
X11594000Y-33684989D01*
X11594000Y-36318517D01*
X11598064Y-36332359D01*
X11611478Y-36334393D01*
X11618184Y-36333534D01*
X11628262Y-36331392D01*
X11832255Y-36270191D01*
X11841842Y-36266433D01*
X12033095Y-36172739D01*
X12041945Y-36167464D01*
X12215328Y-36043792D01*
X12223200Y-36037139D01*
X12374052Y-35886812D01*
X12380730Y-35878965D01*
X12508022Y-35701819D01*
X12509279Y-35702722D01*
X12556373Y-35659362D01*
X12626311Y-35647145D01*
X12691751Y-35674678D01*
X12719579Y-35706511D01*
X12779987Y-35805088D01*
X12926250Y-35973938D01*
X13098126Y-36116632D01*
X13291000Y-36229338D01*
X13499692Y-36309030D01*
X13504760Y-36310061D01*
X13504763Y-36310062D01*
X13599862Y-36329410D01*
X13718597Y-36353567D01*
X13723772Y-36353757D01*
X13723774Y-36353757D01*
X13936673Y-36361564D01*
X13936677Y-36361564D01*
X13941837Y-36361753D01*
X13946957Y-36361097D01*
X13946959Y-36361097D01*
X14158288Y-36334025D01*
X14158289Y-36334025D01*
X14163416Y-36333368D01*
X14168366Y-36331883D01*
X14372429Y-36270661D01*
X14372434Y-36270659D01*
X14377384Y-36269174D01*
X14577994Y-36170896D01*
X14759860Y-36041173D01*
X14918096Y-35883489D01*
X14977594Y-35800689D01*
X15048453Y-35702077D01*
X15049776Y-35703028D01*
X15096645Y-35659857D01*
X15166580Y-35647625D01*
X15232026Y-35675144D01*
X15259875Y-35706994D01*
X15319987Y-35805088D01*
X15466250Y-35973938D01*
X15638126Y-36116632D01*
X15831000Y-36229338D01*
X16039692Y-36309030D01*
X16044760Y-36310061D01*
X16044763Y-36310062D01*
X16139862Y-36329410D01*
X16258597Y-36353567D01*
X16263772Y-36353757D01*
X16263774Y-36353757D01*
X16476673Y-36361564D01*
X16476677Y-36361564D01*
X16481837Y-36361753D01*
X16486957Y-36361097D01*
X16486959Y-36361097D01*
X16698288Y-36334025D01*
X16698289Y-36334025D01*
X16703416Y-36333368D01*
X16708366Y-36331883D01*
X16912429Y-36270661D01*
X16912434Y-36270659D01*
X16917384Y-36269174D01*
X17117994Y-36170896D01*
X17299860Y-36041173D01*
X17458096Y-35883489D01*
X17517594Y-35800689D01*
X17588453Y-35702077D01*
X17589776Y-35703028D01*
X17636645Y-35659857D01*
X17706580Y-35647625D01*
X17772026Y-35675144D01*
X17799875Y-35706994D01*
X17859987Y-35805088D01*
X18006250Y-35973938D01*
X18178126Y-36116632D01*
X18371000Y-36229338D01*
X18579692Y-36309030D01*
X18584760Y-36310061D01*
X18584763Y-36310062D01*
X18679862Y-36329410D01*
X18798597Y-36353567D01*
X18803772Y-36353757D01*
X18803774Y-36353757D01*
X19016673Y-36361564D01*
X19016677Y-36361564D01*
X19021837Y-36361753D01*
X19026957Y-36361097D01*
X19026959Y-36361097D01*
X19238288Y-36334025D01*
X19238289Y-36334025D01*
X19243416Y-36333368D01*
X19248366Y-36331883D01*
X19452429Y-36270661D01*
X19452434Y-36270659D01*
X19457384Y-36269174D01*
X19657994Y-36170896D01*
X19839860Y-36041173D01*
X19998096Y-35883489D01*
X20057594Y-35800689D01*
X20128453Y-35702077D01*
X20129776Y-35703028D01*
X20176645Y-35659857D01*
X20246580Y-35647625D01*
X20312026Y-35675144D01*
X20339875Y-35706994D01*
X20399987Y-35805088D01*
X20546250Y-35973938D01*
X20718126Y-36116632D01*
X20911000Y-36229338D01*
X21119692Y-36309030D01*
X21124760Y-36310061D01*
X21124763Y-36310062D01*
X21219862Y-36329410D01*
X21338597Y-36353567D01*
X21343772Y-36353757D01*
X21343774Y-36353757D01*
X21556673Y-36361564D01*
X21556677Y-36361564D01*
X21561837Y-36361753D01*
X21566957Y-36361097D01*
X21566959Y-36361097D01*
X21778288Y-36334025D01*
X21778289Y-36334025D01*
X21783416Y-36333368D01*
X21788366Y-36331883D01*
X21992429Y-36270661D01*
X21992434Y-36270659D01*
X21997384Y-36269174D01*
X22197994Y-36170896D01*
X22379860Y-36041173D01*
X22538096Y-35883489D01*
X22597594Y-35800689D01*
X22668453Y-35702077D01*
X22669776Y-35703028D01*
X22716645Y-35659857D01*
X22786580Y-35647625D01*
X22852026Y-35675144D01*
X22879875Y-35706994D01*
X22939987Y-35805088D01*
X23086250Y-35973938D01*
X23258126Y-36116632D01*
X23451000Y-36229338D01*
X23659692Y-36309030D01*
X23664760Y-36310061D01*
X23664763Y-36310062D01*
X23759862Y-36329410D01*
X23878597Y-36353567D01*
X23883772Y-36353757D01*
X23883774Y-36353757D01*
X24096673Y-36361564D01*
X24096677Y-36361564D01*
X24101837Y-36361753D01*
X24106957Y-36361097D01*
X24106959Y-36361097D01*
X24318288Y-36334025D01*
X24318289Y-36334025D01*
X24323416Y-36333368D01*
X24328366Y-36331883D01*
X24532429Y-36270661D01*
X24532434Y-36270659D01*
X24537384Y-36269174D01*
X24737994Y-36170896D01*
X24919860Y-36041173D01*
X25078096Y-35883489D01*
X25137594Y-35800689D01*
X25208453Y-35702077D01*
X25209776Y-35703028D01*
X25256645Y-35659857D01*
X25326580Y-35647625D01*
X25392026Y-35675144D01*
X25419875Y-35706994D01*
X25479987Y-35805088D01*
X25626250Y-35973938D01*
X25798126Y-36116632D01*
X25991000Y-36229338D01*
X26199692Y-36309030D01*
X26204760Y-36310061D01*
X26204763Y-36310062D01*
X26299862Y-36329410D01*
X26418597Y-36353567D01*
X26423772Y-36353757D01*
X26423774Y-36353757D01*
X26636673Y-36361564D01*
X26636677Y-36361564D01*
X26641837Y-36361753D01*
X26646957Y-36361097D01*
X26646959Y-36361097D01*
X26858288Y-36334025D01*
X26858289Y-36334025D01*
X26863416Y-36333368D01*
X26868366Y-36331883D01*
X27072429Y-36270661D01*
X27072434Y-36270659D01*
X27077384Y-36269174D01*
X27277994Y-36170896D01*
X27459860Y-36041173D01*
X27618096Y-35883489D01*
X27677594Y-35800689D01*
X27748453Y-35702077D01*
X27749776Y-35703028D01*
X27796645Y-35659857D01*
X27866580Y-35647625D01*
X27932026Y-35675144D01*
X27959875Y-35706994D01*
X28019987Y-35805088D01*
X28166250Y-35973938D01*
X28338126Y-36116632D01*
X28531000Y-36229338D01*
X28739692Y-36309030D01*
X28744760Y-36310061D01*
X28744763Y-36310062D01*
X28839862Y-36329410D01*
X28958597Y-36353567D01*
X28963772Y-36353757D01*
X28963774Y-36353757D01*
X29176673Y-36361564D01*
X29176677Y-36361564D01*
X29181837Y-36361753D01*
X29186957Y-36361097D01*
X29186959Y-36361097D01*
X29398288Y-36334025D01*
X29398289Y-36334025D01*
X29403416Y-36333368D01*
X29408366Y-36331883D01*
X29612429Y-36270661D01*
X29612434Y-36270659D01*
X29617384Y-36269174D01*
X29817994Y-36170896D01*
X29999860Y-36041173D01*
X30158096Y-35883489D01*
X30217594Y-35800689D01*
X30288453Y-35702077D01*
X30289776Y-35703028D01*
X30336645Y-35659857D01*
X30406580Y-35647625D01*
X30472026Y-35675144D01*
X30499875Y-35706994D01*
X30559987Y-35805088D01*
X30706250Y-35973938D01*
X30878126Y-36116632D01*
X31071000Y-36229338D01*
X31279692Y-36309030D01*
X31284760Y-36310061D01*
X31284763Y-36310062D01*
X31379862Y-36329410D01*
X31498597Y-36353567D01*
X31503772Y-36353757D01*
X31503774Y-36353757D01*
X31716673Y-36361564D01*
X31716677Y-36361564D01*
X31721837Y-36361753D01*
X31726957Y-36361097D01*
X31726959Y-36361097D01*
X31938288Y-36334025D01*
X31938289Y-36334025D01*
X31943416Y-36333368D01*
X31948366Y-36331883D01*
X32152429Y-36270661D01*
X32152434Y-36270659D01*
X32157384Y-36269174D01*
X32357994Y-36170896D01*
X32539860Y-36041173D01*
X32698096Y-35883489D01*
X32757594Y-35800689D01*
X32828453Y-35702077D01*
X32829776Y-35703028D01*
X32876645Y-35659857D01*
X32946580Y-35647625D01*
X33012026Y-35675144D01*
X33039875Y-35706994D01*
X33099987Y-35805088D01*
X33246250Y-35973938D01*
X33418126Y-36116632D01*
X33611000Y-36229338D01*
X33819692Y-36309030D01*
X33824760Y-36310061D01*
X33824763Y-36310062D01*
X33919862Y-36329410D01*
X34038597Y-36353567D01*
X34043772Y-36353757D01*
X34043774Y-36353757D01*
X34256673Y-36361564D01*
X34256677Y-36361564D01*
X34261837Y-36361753D01*
X34266957Y-36361097D01*
X34266959Y-36361097D01*
X34478288Y-36334025D01*
X34478289Y-36334025D01*
X34483416Y-36333368D01*
X34488366Y-36331883D01*
X34692429Y-36270661D01*
X34692434Y-36270659D01*
X34697384Y-36269174D01*
X34897994Y-36170896D01*
X35079860Y-36041173D01*
X35238096Y-35883489D01*
X35297594Y-35800689D01*
X35368453Y-35702077D01*
X35369776Y-35703028D01*
X35416645Y-35659857D01*
X35486580Y-35647625D01*
X35552026Y-35675144D01*
X35579875Y-35706994D01*
X35639987Y-35805088D01*
X35786250Y-35973938D01*
X35958126Y-36116632D01*
X36151000Y-36229338D01*
X36359692Y-36309030D01*
X36364760Y-36310061D01*
X36364763Y-36310062D01*
X36459862Y-36329410D01*
X36578597Y-36353567D01*
X36583772Y-36353757D01*
X36583774Y-36353757D01*
X36796673Y-36361564D01*
X36796677Y-36361564D01*
X36801837Y-36361753D01*
X36806957Y-36361097D01*
X36806959Y-36361097D01*
X37018288Y-36334025D01*
X37018289Y-36334025D01*
X37023416Y-36333368D01*
X37028366Y-36331883D01*
X37232429Y-36270661D01*
X37232434Y-36270659D01*
X37237384Y-36269174D01*
X37437994Y-36170896D01*
X37619860Y-36041173D01*
X37778096Y-35883489D01*
X37837594Y-35800689D01*
X37908453Y-35702077D01*
X37909776Y-35703028D01*
X37956645Y-35659857D01*
X38026580Y-35647625D01*
X38092026Y-35675144D01*
X38119875Y-35706994D01*
X38179987Y-35805088D01*
X38326250Y-35973938D01*
X38498126Y-36116632D01*
X38691000Y-36229338D01*
X38899692Y-36309030D01*
X38904760Y-36310061D01*
X38904763Y-36310062D01*
X38999862Y-36329410D01*
X39118597Y-36353567D01*
X39123772Y-36353757D01*
X39123774Y-36353757D01*
X39336673Y-36361564D01*
X39336677Y-36361564D01*
X39341837Y-36361753D01*
X39346957Y-36361097D01*
X39346959Y-36361097D01*
X39558288Y-36334025D01*
X39558289Y-36334025D01*
X39563416Y-36333368D01*
X39568366Y-36331883D01*
X39772429Y-36270661D01*
X39772434Y-36270659D01*
X39777384Y-36269174D01*
X39977994Y-36170896D01*
X40159860Y-36041173D01*
X40318096Y-35883489D01*
X40377594Y-35800689D01*
X40448453Y-35702077D01*
X40449776Y-35703028D01*
X40496645Y-35659857D01*
X40566580Y-35647625D01*
X40632026Y-35675144D01*
X40659875Y-35706994D01*
X40719987Y-35805088D01*
X40866250Y-35973938D01*
X41038126Y-36116632D01*
X41231000Y-36229338D01*
X41439692Y-36309030D01*
X41444760Y-36310061D01*
X41444763Y-36310062D01*
X41539862Y-36329410D01*
X41658597Y-36353567D01*
X41663772Y-36353757D01*
X41663774Y-36353757D01*
X41876673Y-36361564D01*
X41876677Y-36361564D01*
X41881837Y-36361753D01*
X41886957Y-36361097D01*
X41886959Y-36361097D01*
X42098288Y-36334025D01*
X42098289Y-36334025D01*
X42103416Y-36333368D01*
X42108366Y-36331883D01*
X42312429Y-36270661D01*
X42312434Y-36270659D01*
X42317384Y-36269174D01*
X42517994Y-36170896D01*
X42699860Y-36041173D01*
X42858096Y-35883489D01*
X42917594Y-35800689D01*
X42988453Y-35702077D01*
X42989776Y-35703028D01*
X43036645Y-35659857D01*
X43106580Y-35647625D01*
X43172026Y-35675144D01*
X43199875Y-35706994D01*
X43259987Y-35805088D01*
X43406250Y-35973938D01*
X43578126Y-36116632D01*
X43771000Y-36229338D01*
X43979692Y-36309030D01*
X43984760Y-36310061D01*
X43984763Y-36310062D01*
X44079862Y-36329410D01*
X44198597Y-36353567D01*
X44203772Y-36353757D01*
X44203774Y-36353757D01*
X44416673Y-36361564D01*
X44416677Y-36361564D01*
X44421837Y-36361753D01*
X44426957Y-36361097D01*
X44426959Y-36361097D01*
X44638288Y-36334025D01*
X44638289Y-36334025D01*
X44643416Y-36333368D01*
X44648366Y-36331883D01*
X44852429Y-36270661D01*
X44852434Y-36270659D01*
X44857384Y-36269174D01*
X45057994Y-36170896D01*
X45239860Y-36041173D01*
X45348091Y-35933319D01*
X45410462Y-35899404D01*
X45481268Y-35904592D01*
X45538030Y-35947238D01*
X45555012Y-35978341D01*
X45599385Y-36096705D01*
X45686739Y-36213261D01*
X45803295Y-36300615D01*
X45939684Y-36351745D01*
X46001866Y-36358500D01*
X47798134Y-36358500D01*
X47860316Y-36351745D01*
X47996705Y-36300615D01*
X48113261Y-36213261D01*
X48200615Y-36096705D01*
X48251745Y-35960316D01*
X48258500Y-35898134D01*
X48258500Y-34101866D01*
X48251745Y-34039684D01*
X48200615Y-33903295D01*
X48113261Y-33786739D01*
X47996705Y-33699385D01*
X47860316Y-33648255D01*
X47798134Y-33641500D01*
X46001866Y-33641500D01*
X45939684Y-33648255D01*
X45803295Y-33699385D01*
X45686739Y-33786739D01*
X45599385Y-33903295D01*
X45596233Y-33911703D01*
X45554919Y-34021907D01*
X45512277Y-34078671D01*
X45445716Y-34103371D01*
X45376367Y-34088163D01*
X45343743Y-34062476D01*
X45293151Y-34006875D01*
X45293142Y-34006866D01*
X45289670Y-34003051D01*
X45285619Y-33999852D01*
X45285615Y-33999848D01*
X45118414Y-33867800D01*
X45118410Y-33867798D01*
X45114359Y-33864598D01*
X45109835Y-33862101D01*
X45109831Y-33862098D01*
X45058608Y-33833822D01*
X45008636Y-33783390D01*
X44993500Y-33723513D01*
X44993500Y-32954594D01*
X45013502Y-32886473D01*
X45030405Y-32865499D01*
X53392247Y-24503657D01*
X53400537Y-24496113D01*
X53407018Y-24492000D01*
X53453659Y-24442332D01*
X53456413Y-24439491D01*
X53476134Y-24419770D01*
X53478612Y-24416575D01*
X53486318Y-24407553D01*
X53511158Y-24381101D01*
X53516586Y-24375321D01*
X53526346Y-24357568D01*
X53537199Y-24341045D01*
X53544753Y-24331306D01*
X53549613Y-24325041D01*
X53567176Y-24284457D01*
X53572383Y-24273827D01*
X53593695Y-24235060D01*
X53595666Y-24227383D01*
X53595668Y-24227378D01*
X53598732Y-24215442D01*
X53605138Y-24196730D01*
X53609612Y-24186393D01*
X53613181Y-24178145D01*
X53614421Y-24170317D01*
X53614423Y-24170310D01*
X53620099Y-24134476D01*
X53622505Y-24122856D01*
X53631528Y-24087711D01*
X53631528Y-24087710D01*
X53633500Y-24080030D01*
X53633500Y-24059776D01*
X53635051Y-24040065D01*
X53636980Y-24027886D01*
X53638220Y-24020057D01*
X53634059Y-23976038D01*
X53633500Y-23964181D01*
X53633500Y-8341749D01*
X53653502Y-8273628D01*
X53670405Y-8252653D01*
X54252655Y-7670404D01*
X54314967Y-7636379D01*
X54341750Y-7633500D01*
X89921233Y-7633500D01*
X89932416Y-7634027D01*
X89939909Y-7635702D01*
X89947835Y-7635453D01*
X89947836Y-7635453D01*
X90007986Y-7633562D01*
X90011945Y-7633500D01*
X90039856Y-7633500D01*
X90043791Y-7633003D01*
X90043856Y-7632995D01*
X90055693Y-7632062D01*
X90087951Y-7631048D01*
X90091970Y-7630922D01*
X90099889Y-7630673D01*
X90119343Y-7625021D01*
X90138700Y-7621013D01*
X90150930Y-7619468D01*
X90150931Y-7619468D01*
X90158797Y-7618474D01*
X90166168Y-7615555D01*
X90166170Y-7615555D01*
X90199912Y-7602196D01*
X90211142Y-7598351D01*
X90245983Y-7588229D01*
X90245984Y-7588229D01*
X90253593Y-7586018D01*
X90260412Y-7581985D01*
X90260417Y-7581983D01*
X90271028Y-7575707D01*
X90288776Y-7567012D01*
X90307617Y-7559552D01*
X90343387Y-7533564D01*
X90353307Y-7527048D01*
X90384535Y-7508580D01*
X90384538Y-7508578D01*
X90391362Y-7504542D01*
X90405683Y-7490221D01*
X90420717Y-7477380D01*
X90430694Y-7470131D01*
X90437107Y-7465472D01*
X90465298Y-7431395D01*
X90473288Y-7422616D01*
X92475500Y-5420405D01*
X92537812Y-5386379D01*
X92564595Y-5383500D01*
X93698134Y-5383500D01*
X93760316Y-5376745D01*
X93896705Y-5325615D01*
X94013261Y-5238261D01*
X94100615Y-5121705D01*
X94151745Y-4985316D01*
X94158500Y-4923134D01*
X94158500Y-3126866D01*
X94151745Y-3064684D01*
X94100615Y-2928295D01*
X94013261Y-2811739D01*
X93896705Y-2724385D01*
X93760316Y-2673255D01*
X93698134Y-2666500D01*
X91901866Y-2666500D01*
X91839684Y-2673255D01*
X91703295Y-2724385D01*
X91586739Y-2811739D01*
X91499385Y-2928295D01*
X91496233Y-2936703D01*
X91454919Y-3046907D01*
X91412277Y-3103671D01*
X91345716Y-3128371D01*
X91276367Y-3113163D01*
X91243743Y-3087476D01*
X91193151Y-3031875D01*
X91193142Y-3031866D01*
X91189670Y-3028051D01*
X91185619Y-3024852D01*
X91185615Y-3024848D01*
X91018414Y-2892800D01*
X91018410Y-2892798D01*
X91014359Y-2889598D01*
X91009831Y-2887098D01*
X90893988Y-2823150D01*
X90818789Y-2781638D01*
X90813920Y-2779914D01*
X90813916Y-2779912D01*
X90613087Y-2708795D01*
X90613083Y-2708794D01*
X90608212Y-2707069D01*
X90603119Y-2706162D01*
X90603116Y-2706161D01*
X90393373Y-2668800D01*
X90393367Y-2668799D01*
X90388284Y-2667894D01*
X90314452Y-2666992D01*
X90170081Y-2665228D01*
X90170079Y-2665228D01*
X90164911Y-2665165D01*
X89944091Y-2698955D01*
X89731756Y-2768357D01*
X89701443Y-2784137D01*
X89557975Y-2858822D01*
X89533607Y-2871507D01*
X89529474Y-2874610D01*
X89529471Y-2874612D01*
X89359100Y-3002530D01*
X89354965Y-3005635D01*
X89329498Y-3032285D01*
X89224520Y-3142138D01*
X89200629Y-3167138D01*
X89093201Y-3324621D01*
X89038293Y-3369621D01*
X88967768Y-3377792D01*
X88904021Y-3346538D01*
X88883324Y-3322054D01*
X88802822Y-3197617D01*
X88802820Y-3197614D01*
X88800014Y-3193277D01*
X88649670Y-3028051D01*
X88645619Y-3024852D01*
X88645615Y-3024848D01*
X88478414Y-2892800D01*
X88478410Y-2892798D01*
X88474359Y-2889598D01*
X88469835Y-2887101D01*
X88469831Y-2887098D01*
X88418608Y-2858822D01*
X88368636Y-2808390D01*
X88353500Y-2748513D01*
X88353500Y-2358767D01*
X88354027Y-2347584D01*
X88355702Y-2340091D01*
X88355427Y-2331337D01*
X88355737Y-2329160D01*
X88356199Y-2324272D01*
X88356429Y-2324294D01*
X88361532Y-2288444D01*
X88391502Y-2196206D01*
X88393542Y-2189928D01*
X88413504Y-2000000D01*
X88393542Y-1810072D01*
X88334527Y-1628444D01*
X88239040Y-1463056D01*
X88234516Y-1458031D01*
X88115675Y-1326045D01*
X88115674Y-1326044D01*
X88111253Y-1321134D01*
X87956752Y-1208882D01*
X87950724Y-1206198D01*
X87950722Y-1206197D01*
X87788319Y-1133891D01*
X87788318Y-1133891D01*
X87782288Y-1131206D01*
X87677935Y-1109025D01*
X87601944Y-1092872D01*
X87601939Y-1092872D01*
X87595487Y-1091500D01*
X87404513Y-1091500D01*
X87398061Y-1092872D01*
X87398056Y-1092872D01*
X87322065Y-1109025D01*
X87217712Y-1131206D01*
X87211682Y-1133891D01*
X87211681Y-1133891D01*
X87049278Y-1206197D01*
X87049276Y-1206198D01*
X87043248Y-1208882D01*
X86888747Y-1321134D01*
X86884326Y-1326044D01*
X86884325Y-1326045D01*
X86765485Y-1458031D01*
X86760960Y-1463056D01*
X86665473Y-1628444D01*
X86606458Y-1810072D01*
X86586496Y-2000000D01*
X86606458Y-2189928D01*
X86665473Y-2371556D01*
X86760960Y-2536944D01*
X86765378Y-2541851D01*
X86765379Y-2541852D01*
X86882927Y-2672402D01*
X86888747Y-2678866D01*
X86934425Y-2712053D01*
X86977777Y-2768275D01*
X86983852Y-2839011D01*
X86950720Y-2901803D01*
X86936015Y-2914748D01*
X86822673Y-2999848D01*
X86814965Y-3005635D01*
X86789498Y-3032285D01*
X86684520Y-3142138D01*
X86660629Y-3167138D01*
X86553201Y-3324621D01*
X86498293Y-3369621D01*
X86427768Y-3377792D01*
X86364021Y-3346538D01*
X86343324Y-3322054D01*
X86262822Y-3197617D01*
X86262820Y-3197614D01*
X86260014Y-3193277D01*
X86109670Y-3028051D01*
X86105619Y-3024852D01*
X86105615Y-3024848D01*
X85938414Y-2892800D01*
X85938410Y-2892798D01*
X85934359Y-2889598D01*
X85929831Y-2887098D01*
X85813988Y-2823150D01*
X85738789Y-2781638D01*
X85733920Y-2779914D01*
X85733916Y-2779912D01*
X85533087Y-2708795D01*
X85533083Y-2708794D01*
X85528212Y-2707069D01*
X85523119Y-2706162D01*
X85523116Y-2706161D01*
X85313373Y-2668800D01*
X85313367Y-2668799D01*
X85308284Y-2667894D01*
X85234452Y-2666992D01*
X85090081Y-2665228D01*
X85090079Y-2665228D01*
X85084911Y-2665165D01*
X84864091Y-2698955D01*
X84651756Y-2768357D01*
X84621443Y-2784137D01*
X84477975Y-2858822D01*
X84453607Y-2871507D01*
X84449474Y-2874610D01*
X84449471Y-2874612D01*
X84279100Y-3002530D01*
X84274965Y-3005635D01*
X84249498Y-3032285D01*
X84144520Y-3142138D01*
X84120629Y-3167138D01*
X83994743Y-3351680D01*
X83947716Y-3452992D01*
X83912293Y-3529305D01*
X83900688Y-3554305D01*
X83840989Y-3769570D01*
X83817251Y-3991695D01*
X83817548Y-3996848D01*
X83817548Y-3996851D01*
X83828960Y-4194767D01*
X83830110Y-4214715D01*
X83831247Y-4219761D01*
X83831248Y-4219767D01*
X83863453Y-4362668D01*
X83858917Y-4433520D01*
X83829631Y-4479464D01*
X82979500Y-5329595D01*
X82917188Y-5363621D01*
X82890405Y-5366500D01*
X74244042Y-5366500D01*
X74175921Y-5346498D01*
X74129428Y-5292842D01*
X74119324Y-5222568D01*
X74143216Y-5164935D01*
X74170229Y-5128892D01*
X74170230Y-5128890D01*
X74175615Y-5121705D01*
X74226745Y-4985316D01*
X74233500Y-4923134D01*
X74233500Y-3126866D01*
X74226745Y-3064684D01*
X74175615Y-2928295D01*
X74088261Y-2811739D01*
X73971705Y-2724385D01*
X73835316Y-2673255D01*
X73773134Y-2666500D01*
X72464594Y-2666500D01*
X72396473Y-2646498D01*
X72375499Y-2629595D01*
X71298003Y-1552098D01*
X71290463Y-1543812D01*
X71286351Y-1537333D01*
X71236699Y-1490707D01*
X71233858Y-1487953D01*
X71214121Y-1468216D01*
X71210924Y-1465736D01*
X71201902Y-1458031D01*
X71188473Y-1445420D01*
X71169672Y-1427765D01*
X71162726Y-1423946D01*
X71162723Y-1423944D01*
X71151917Y-1418003D01*
X71135398Y-1407152D01*
X71134934Y-1406792D01*
X71119392Y-1394737D01*
X71112123Y-1391592D01*
X71112119Y-1391589D01*
X71078814Y-1377177D01*
X71068164Y-1371960D01*
X71029411Y-1350656D01*
X71009788Y-1345618D01*
X70991085Y-1339214D01*
X70979771Y-1334318D01*
X70979770Y-1334318D01*
X70972496Y-1331170D01*
X70964673Y-1329931D01*
X70964663Y-1329928D01*
X70928827Y-1324252D01*
X70917207Y-1321846D01*
X70882062Y-1312823D01*
X70882061Y-1312823D01*
X70874381Y-1310851D01*
X70854127Y-1310851D01*
X70834416Y-1309300D01*
X70822237Y-1307371D01*
X70814408Y-1306131D01*
X70785137Y-1308898D01*
X70770390Y-1310292D01*
X70758532Y-1310851D01*
X55134417Y-1310851D01*
X55123234Y-1310324D01*
X55115741Y-1308649D01*
X55107815Y-1308898D01*
X55107814Y-1308898D01*
X55047651Y-1310789D01*
X55043693Y-1310851D01*
X55015793Y-1310851D01*
X55011803Y-1311355D01*
X54999969Y-1312287D01*
X54955760Y-1313677D01*
X54948146Y-1315889D01*
X54948141Y-1315890D01*
X54936308Y-1319328D01*
X54916945Y-1323339D01*
X54896852Y-1325877D01*
X54889485Y-1328794D01*
X54889480Y-1328795D01*
X54855741Y-1342153D01*
X54844514Y-1345997D01*
X54802056Y-1358333D01*
X54795230Y-1362370D01*
X54784621Y-1368644D01*
X54766873Y-1377339D01*
X54748032Y-1384799D01*
X54741616Y-1389461D01*
X54741615Y-1389461D01*
X54712262Y-1410787D01*
X54702342Y-1417303D01*
X54671114Y-1435771D01*
X54671111Y-1435773D01*
X54664287Y-1439809D01*
X54649966Y-1454130D01*
X54634933Y-1466970D01*
X54618542Y-1478879D01*
X54609866Y-1489367D01*
X54590351Y-1512956D01*
X54582361Y-1521735D01*
X41467747Y-14636348D01*
X41459461Y-14643888D01*
X41452982Y-14648000D01*
X41447557Y-14653777D01*
X41406357Y-14697651D01*
X41403602Y-14700493D01*
X41396119Y-14707976D01*
X41346170Y-14738646D01*
X41331756Y-14743357D01*
X41133607Y-14846507D01*
X41129474Y-14849610D01*
X41129471Y-14849612D01*
X40966355Y-14972083D01*
X40954965Y-14980635D01*
X40800629Y-15142138D01*
X40693201Y-15299621D01*
X40638293Y-15344621D01*
X40567768Y-15352792D01*
X40504021Y-15321538D01*
X40483324Y-15297054D01*
X40402822Y-15172617D01*
X40402820Y-15172614D01*
X40400014Y-15168277D01*
X40249670Y-15003051D01*
X40245619Y-14999852D01*
X40245615Y-14999848D01*
X40078414Y-14867800D01*
X40078410Y-14867798D01*
X40074359Y-14864598D01*
X39878789Y-14756638D01*
X39873920Y-14754914D01*
X39873916Y-14754912D01*
X39673087Y-14683795D01*
X39673083Y-14683794D01*
X39668212Y-14682069D01*
X39663119Y-14681162D01*
X39663116Y-14681161D01*
X39453373Y-14643800D01*
X39453367Y-14643799D01*
X39448284Y-14642894D01*
X39374452Y-14641992D01*
X39230081Y-14640228D01*
X39230079Y-14640228D01*
X39224911Y-14640165D01*
X39004091Y-14673955D01*
X38791756Y-14743357D01*
X38593607Y-14846507D01*
X38589474Y-14849610D01*
X38589471Y-14849612D01*
X38426355Y-14972083D01*
X38414965Y-14980635D01*
X38260629Y-15142138D01*
X38153201Y-15299621D01*
X38098293Y-15344621D01*
X38027768Y-15352792D01*
X37964021Y-15321538D01*
X37943324Y-15297054D01*
X37862822Y-15172617D01*
X37862820Y-15172614D01*
X37860014Y-15168277D01*
X37709670Y-15003051D01*
X37705619Y-14999852D01*
X37705615Y-14999848D01*
X37538414Y-14867800D01*
X37538410Y-14867798D01*
X37534359Y-14864598D01*
X37338789Y-14756638D01*
X37333920Y-14754914D01*
X37333916Y-14754912D01*
X37133087Y-14683795D01*
X37133083Y-14683794D01*
X37128212Y-14682069D01*
X37123119Y-14681162D01*
X37123116Y-14681161D01*
X36913373Y-14643800D01*
X36913367Y-14643799D01*
X36908284Y-14642894D01*
X36834452Y-14641992D01*
X36690081Y-14640228D01*
X36690079Y-14640228D01*
X36684911Y-14640165D01*
X36464091Y-14673955D01*
X36251756Y-14743357D01*
X36053607Y-14846507D01*
X36049474Y-14849610D01*
X36049471Y-14849612D01*
X35886355Y-14972083D01*
X35874965Y-14980635D01*
X35720629Y-15142138D01*
X35613201Y-15299621D01*
X35558293Y-15344621D01*
X35487768Y-15352792D01*
X35424021Y-15321538D01*
X35403324Y-15297054D01*
X35322822Y-15172617D01*
X35322820Y-15172614D01*
X35320014Y-15168277D01*
X35169670Y-15003051D01*
X35165619Y-14999852D01*
X35165615Y-14999848D01*
X34998414Y-14867800D01*
X34998410Y-14867798D01*
X34994359Y-14864598D01*
X34798789Y-14756638D01*
X34793920Y-14754914D01*
X34793916Y-14754912D01*
X34593087Y-14683795D01*
X34593083Y-14683794D01*
X34588212Y-14682069D01*
X34583119Y-14681162D01*
X34583116Y-14681161D01*
X34373373Y-14643800D01*
X34373367Y-14643799D01*
X34368284Y-14642894D01*
X34294452Y-14641992D01*
X34150081Y-14640228D01*
X34150079Y-14640228D01*
X34144911Y-14640165D01*
X33924091Y-14673955D01*
X33842898Y-14700493D01*
X33821509Y-14707484D01*
X33750545Y-14709635D01*
X33689683Y-14673079D01*
X33658247Y-14609421D01*
X33656364Y-14587719D01*
X33656364Y-14291730D01*
X33676366Y-14223609D01*
X33693269Y-14202635D01*
X42500500Y-5395405D01*
X42562812Y-5361379D01*
X42589595Y-5358500D01*
X44218134Y-5358500D01*
X44280316Y-5351745D01*
X44416705Y-5300615D01*
X44533261Y-5213261D01*
X44620615Y-5096705D01*
X44671745Y-4960316D01*
X44678500Y-4898134D01*
X44678500Y-3101866D01*
X44671745Y-3039684D01*
X44620615Y-2903295D01*
X44533261Y-2786739D01*
X44416705Y-2699385D01*
X44280316Y-2648255D01*
X44218134Y-2641500D01*
X42421866Y-2641500D01*
X42359684Y-2648255D01*
X42223295Y-2699385D01*
X42106739Y-2786739D01*
X42019385Y-2903295D01*
X42016233Y-2911703D01*
X41974919Y-3021907D01*
X41932277Y-3078671D01*
X41865716Y-3103371D01*
X41796367Y-3088163D01*
X41763743Y-3062476D01*
X41713151Y-3006875D01*
X41713142Y-3006866D01*
X41709670Y-3003051D01*
X41705619Y-2999852D01*
X41705615Y-2999848D01*
X41538414Y-2867800D01*
X41538410Y-2867798D01*
X41534359Y-2864598D01*
X41338789Y-2756638D01*
X41333920Y-2754914D01*
X41333916Y-2754912D01*
X41133087Y-2683795D01*
X41133083Y-2683794D01*
X41128212Y-2682069D01*
X41123119Y-2681162D01*
X41123116Y-2681161D01*
X40913373Y-2643800D01*
X40913367Y-2643799D01*
X40908284Y-2642894D01*
X40834452Y-2641992D01*
X40690081Y-2640228D01*
X40690079Y-2640228D01*
X40684911Y-2640165D01*
X40464091Y-2673955D01*
X40251756Y-2743357D01*
X40221443Y-2759137D01*
X40068007Y-2839011D01*
X40053607Y-2846507D01*
X40049474Y-2849610D01*
X40049471Y-2849612D01*
X39962718Y-2914748D01*
X39874965Y-2980635D01*
X39847502Y-3009373D01*
X39738470Y-3123469D01*
X39720629Y-3142138D01*
X39613201Y-3299621D01*
X39558293Y-3344621D01*
X39487768Y-3352792D01*
X39424021Y-3321538D01*
X39403324Y-3297054D01*
X39322822Y-3172617D01*
X39322820Y-3172614D01*
X39320014Y-3168277D01*
X39169670Y-3003051D01*
X39165619Y-2999852D01*
X39165615Y-2999848D01*
X38998414Y-2867800D01*
X38998410Y-2867798D01*
X38994359Y-2864598D01*
X38798789Y-2756638D01*
X38793920Y-2754914D01*
X38793916Y-2754912D01*
X38593087Y-2683795D01*
X38593083Y-2683794D01*
X38588212Y-2682069D01*
X38583119Y-2681162D01*
X38583116Y-2681161D01*
X38373373Y-2643800D01*
X38373367Y-2643799D01*
X38368284Y-2642894D01*
X38294452Y-2641992D01*
X38150081Y-2640228D01*
X38150079Y-2640228D01*
X38144911Y-2640165D01*
X37924091Y-2673955D01*
X37711756Y-2743357D01*
X37681443Y-2759137D01*
X37528007Y-2839011D01*
X37513607Y-2846507D01*
X37509474Y-2849610D01*
X37509471Y-2849612D01*
X37422718Y-2914748D01*
X37334965Y-2980635D01*
X37307502Y-3009373D01*
X37198470Y-3123469D01*
X37180629Y-3142138D01*
X37073201Y-3299621D01*
X37018293Y-3344621D01*
X36947768Y-3352792D01*
X36884021Y-3321538D01*
X36863324Y-3297054D01*
X36782822Y-3172617D01*
X36782820Y-3172614D01*
X36780014Y-3168277D01*
X36629670Y-3003051D01*
X36625619Y-2999852D01*
X36625615Y-2999848D01*
X36458414Y-2867800D01*
X36458410Y-2867798D01*
X36454359Y-2864598D01*
X36258789Y-2756638D01*
X36253920Y-2754914D01*
X36253916Y-2754912D01*
X36053087Y-2683795D01*
X36053083Y-2683794D01*
X36048212Y-2682069D01*
X36043119Y-2681162D01*
X36043116Y-2681161D01*
X35833373Y-2643800D01*
X35833367Y-2643799D01*
X35828284Y-2642894D01*
X35754452Y-2641992D01*
X35610081Y-2640228D01*
X35610079Y-2640228D01*
X35604911Y-2640165D01*
X35384091Y-2673955D01*
X35171756Y-2743357D01*
X35141443Y-2759137D01*
X34988007Y-2839011D01*
X34973607Y-2846507D01*
X34969474Y-2849610D01*
X34969471Y-2849612D01*
X34882718Y-2914748D01*
X34794965Y-2980635D01*
X34767502Y-3009373D01*
X34658470Y-3123469D01*
X34640629Y-3142138D01*
X34533201Y-3299621D01*
X34478293Y-3344621D01*
X34407768Y-3352792D01*
X34344021Y-3321538D01*
X34323324Y-3297054D01*
X34242822Y-3172617D01*
X34242820Y-3172614D01*
X34240014Y-3168277D01*
X34089670Y-3003051D01*
X34085619Y-2999852D01*
X34085615Y-2999848D01*
X33918414Y-2867800D01*
X33918410Y-2867798D01*
X33914359Y-2864598D01*
X33718789Y-2756638D01*
X33713920Y-2754914D01*
X33713916Y-2754912D01*
X33513087Y-2683795D01*
X33513083Y-2683794D01*
X33508212Y-2682069D01*
X33503119Y-2681162D01*
X33503116Y-2681161D01*
X33293373Y-2643800D01*
X33293367Y-2643799D01*
X33288284Y-2642894D01*
X33214452Y-2641992D01*
X33070081Y-2640228D01*
X33070079Y-2640228D01*
X33064911Y-2640165D01*
X32844091Y-2673955D01*
X32631756Y-2743357D01*
X32601443Y-2759137D01*
X32448007Y-2839011D01*
X32433607Y-2846507D01*
X32429474Y-2849610D01*
X32429471Y-2849612D01*
X32342718Y-2914748D01*
X32254965Y-2980635D01*
X32227502Y-3009373D01*
X32118470Y-3123469D01*
X32100629Y-3142138D01*
X31993201Y-3299621D01*
X31938293Y-3344621D01*
X31867768Y-3352792D01*
X31804021Y-3321538D01*
X31783324Y-3297054D01*
X31702822Y-3172617D01*
X31702820Y-3172614D01*
X31700014Y-3168277D01*
X31549670Y-3003051D01*
X31545619Y-2999852D01*
X31545615Y-2999848D01*
X31378414Y-2867800D01*
X31378410Y-2867798D01*
X31374359Y-2864598D01*
X31178789Y-2756638D01*
X31173920Y-2754914D01*
X31173916Y-2754912D01*
X30973087Y-2683795D01*
X30973083Y-2683794D01*
X30968212Y-2682069D01*
X30963119Y-2681162D01*
X30963116Y-2681161D01*
X30753373Y-2643800D01*
X30753367Y-2643799D01*
X30748284Y-2642894D01*
X30674452Y-2641992D01*
X30530081Y-2640228D01*
X30530079Y-2640228D01*
X30524911Y-2640165D01*
X30304091Y-2673955D01*
X30091756Y-2743357D01*
X30061443Y-2759137D01*
X29908007Y-2839011D01*
X29893607Y-2846507D01*
X29889474Y-2849610D01*
X29889471Y-2849612D01*
X29802718Y-2914748D01*
X29714965Y-2980635D01*
X29687502Y-3009373D01*
X29578470Y-3123469D01*
X29560629Y-3142138D01*
X29453201Y-3299621D01*
X29398293Y-3344621D01*
X29327768Y-3352792D01*
X29264021Y-3321538D01*
X29243324Y-3297054D01*
X29162822Y-3172617D01*
X29162820Y-3172614D01*
X29160014Y-3168277D01*
X29009670Y-3003051D01*
X29005619Y-2999852D01*
X29005615Y-2999848D01*
X28838414Y-2867800D01*
X28838410Y-2867798D01*
X28834359Y-2864598D01*
X28638789Y-2756638D01*
X28633920Y-2754914D01*
X28633916Y-2754912D01*
X28433087Y-2683795D01*
X28433083Y-2683794D01*
X28428212Y-2682069D01*
X28423119Y-2681162D01*
X28423116Y-2681161D01*
X28213373Y-2643800D01*
X28213367Y-2643799D01*
X28208284Y-2642894D01*
X28134452Y-2641992D01*
X27990081Y-2640228D01*
X27990079Y-2640228D01*
X27984911Y-2640165D01*
X27764091Y-2673955D01*
X27551756Y-2743357D01*
X27521443Y-2759137D01*
X27368007Y-2839011D01*
X27353607Y-2846507D01*
X27349474Y-2849610D01*
X27349471Y-2849612D01*
X27262718Y-2914748D01*
X27174965Y-2980635D01*
X27147502Y-3009373D01*
X27038470Y-3123469D01*
X27020629Y-3142138D01*
X26913201Y-3299621D01*
X26858293Y-3344621D01*
X26787768Y-3352792D01*
X26724021Y-3321538D01*
X26703324Y-3297054D01*
X26622822Y-3172617D01*
X26622820Y-3172614D01*
X26620014Y-3168277D01*
X26469670Y-3003051D01*
X26465619Y-2999852D01*
X26465615Y-2999848D01*
X26298414Y-2867800D01*
X26298410Y-2867798D01*
X26294359Y-2864598D01*
X26098789Y-2756638D01*
X26093920Y-2754914D01*
X26093916Y-2754912D01*
X25893087Y-2683795D01*
X25893083Y-2683794D01*
X25888212Y-2682069D01*
X25883119Y-2681162D01*
X25883116Y-2681161D01*
X25673373Y-2643800D01*
X25673367Y-2643799D01*
X25668284Y-2642894D01*
X25594452Y-2641992D01*
X25450081Y-2640228D01*
X25450079Y-2640228D01*
X25444911Y-2640165D01*
X25224091Y-2673955D01*
X25011756Y-2743357D01*
X24981443Y-2759137D01*
X24828007Y-2839011D01*
X24813607Y-2846507D01*
X24809474Y-2849610D01*
X24809471Y-2849612D01*
X24722718Y-2914748D01*
X24634965Y-2980635D01*
X24607502Y-3009373D01*
X24498470Y-3123469D01*
X24480629Y-3142138D01*
X24373201Y-3299621D01*
X24318293Y-3344621D01*
X24247768Y-3352792D01*
X24184021Y-3321538D01*
X24163324Y-3297054D01*
X24082822Y-3172617D01*
X24082820Y-3172614D01*
X24080014Y-3168277D01*
X23929670Y-3003051D01*
X23925619Y-2999852D01*
X23925615Y-2999848D01*
X23758414Y-2867800D01*
X23758410Y-2867798D01*
X23754359Y-2864598D01*
X23558789Y-2756638D01*
X23553920Y-2754914D01*
X23553916Y-2754912D01*
X23353087Y-2683795D01*
X23353083Y-2683794D01*
X23348212Y-2682069D01*
X23343119Y-2681162D01*
X23343116Y-2681161D01*
X23133373Y-2643800D01*
X23133367Y-2643799D01*
X23128284Y-2642894D01*
X23054452Y-2641992D01*
X22910081Y-2640228D01*
X22910079Y-2640228D01*
X22904911Y-2640165D01*
X22684091Y-2673955D01*
X22471756Y-2743357D01*
X22441443Y-2759137D01*
X22288007Y-2839011D01*
X22273607Y-2846507D01*
X22269474Y-2849610D01*
X22269471Y-2849612D01*
X22182718Y-2914748D01*
X22094965Y-2980635D01*
X22067502Y-3009373D01*
X21958470Y-3123469D01*
X21940629Y-3142138D01*
X21833201Y-3299621D01*
X21778293Y-3344621D01*
X21707768Y-3352792D01*
X21644021Y-3321538D01*
X21623324Y-3297054D01*
X21542822Y-3172617D01*
X21542820Y-3172614D01*
X21540014Y-3168277D01*
X21389670Y-3003051D01*
X21385619Y-2999852D01*
X21385615Y-2999848D01*
X21218414Y-2867800D01*
X21218410Y-2867798D01*
X21214359Y-2864598D01*
X21018789Y-2756638D01*
X21013920Y-2754914D01*
X21013916Y-2754912D01*
X20813087Y-2683795D01*
X20813083Y-2683794D01*
X20808212Y-2682069D01*
X20803119Y-2681162D01*
X20803116Y-2681161D01*
X20593373Y-2643800D01*
X20593367Y-2643799D01*
X20588284Y-2642894D01*
X20514452Y-2641992D01*
X20370081Y-2640228D01*
X20370079Y-2640228D01*
X20364911Y-2640165D01*
X20144091Y-2673955D01*
X19931756Y-2743357D01*
X19901443Y-2759137D01*
X19748007Y-2839011D01*
X19733607Y-2846507D01*
X19729474Y-2849610D01*
X19729471Y-2849612D01*
X19642718Y-2914748D01*
X19554965Y-2980635D01*
X19527502Y-3009373D01*
X19418470Y-3123469D01*
X19400629Y-3142138D01*
X19293201Y-3299621D01*
X19238293Y-3344621D01*
X19167768Y-3352792D01*
X19104021Y-3321538D01*
X19083324Y-3297054D01*
X19002822Y-3172617D01*
X19002820Y-3172614D01*
X19000014Y-3168277D01*
X18849670Y-3003051D01*
X18845619Y-2999852D01*
X18845615Y-2999848D01*
X18678414Y-2867800D01*
X18678410Y-2867798D01*
X18674359Y-2864598D01*
X18478789Y-2756638D01*
X18473920Y-2754914D01*
X18473916Y-2754912D01*
X18273087Y-2683795D01*
X18273083Y-2683794D01*
X18268212Y-2682069D01*
X18263119Y-2681162D01*
X18263116Y-2681161D01*
X18053373Y-2643800D01*
X18053367Y-2643799D01*
X18048284Y-2642894D01*
X17974452Y-2641992D01*
X17830081Y-2640228D01*
X17830079Y-2640228D01*
X17824911Y-2640165D01*
X17604091Y-2673955D01*
X17391756Y-2743357D01*
X17361443Y-2759137D01*
X17208007Y-2839011D01*
X17193607Y-2846507D01*
X17189474Y-2849610D01*
X17189471Y-2849612D01*
X17102718Y-2914748D01*
X17014965Y-2980635D01*
X16987502Y-3009373D01*
X16878470Y-3123469D01*
X16860629Y-3142138D01*
X16753201Y-3299621D01*
X16698293Y-3344621D01*
X16627768Y-3352792D01*
X16564021Y-3321538D01*
X16543324Y-3297054D01*
X16462822Y-3172617D01*
X16462820Y-3172614D01*
X16460014Y-3168277D01*
X16309670Y-3003051D01*
X16305619Y-2999852D01*
X16305615Y-2999848D01*
X16138414Y-2867800D01*
X16138410Y-2867798D01*
X16134359Y-2864598D01*
X15938789Y-2756638D01*
X15933920Y-2754914D01*
X15933916Y-2754912D01*
X15733087Y-2683795D01*
X15733083Y-2683794D01*
X15728212Y-2682069D01*
X15723119Y-2681162D01*
X15723116Y-2681161D01*
X15513373Y-2643800D01*
X15513367Y-2643799D01*
X15508284Y-2642894D01*
X15434452Y-2641992D01*
X15290081Y-2640228D01*
X15290079Y-2640228D01*
X15284911Y-2640165D01*
X15064091Y-2673955D01*
X14851756Y-2743357D01*
X14821443Y-2759137D01*
X14668007Y-2839011D01*
X14653607Y-2846507D01*
X14649474Y-2849610D01*
X14649471Y-2849612D01*
X14562718Y-2914748D01*
X14474965Y-2980635D01*
X14447502Y-3009373D01*
X14338470Y-3123469D01*
X14320629Y-3142138D01*
X14213201Y-3299621D01*
X14158293Y-3344621D01*
X14087768Y-3352792D01*
X14024021Y-3321538D01*
X14003324Y-3297054D01*
X13922822Y-3172617D01*
X13922820Y-3172614D01*
X13920014Y-3168277D01*
X13769670Y-3003051D01*
X13765619Y-2999852D01*
X13765615Y-2999848D01*
X13598414Y-2867800D01*
X13598410Y-2867798D01*
X13594359Y-2864598D01*
X13398789Y-2756638D01*
X13393920Y-2754914D01*
X13393916Y-2754912D01*
X13193087Y-2683795D01*
X13193083Y-2683794D01*
X13188212Y-2682069D01*
X13183119Y-2681162D01*
X13183116Y-2681161D01*
X12973373Y-2643800D01*
X12973367Y-2643799D01*
X12968284Y-2642894D01*
X12894452Y-2641992D01*
X12750081Y-2640228D01*
X12750079Y-2640228D01*
X12744911Y-2640165D01*
X12524091Y-2673955D01*
X12311756Y-2743357D01*
X12281443Y-2759137D01*
X12128007Y-2839011D01*
X12113607Y-2846507D01*
X12109474Y-2849610D01*
X12109471Y-2849612D01*
X12022718Y-2914748D01*
X11934965Y-2980635D01*
X11907502Y-3009373D01*
X11798470Y-3123469D01*
X11780629Y-3142138D01*
X11673201Y-3299621D01*
X11618293Y-3344621D01*
X11547768Y-3352792D01*
X11484021Y-3321538D01*
X11463324Y-3297054D01*
X11382822Y-3172617D01*
X11382820Y-3172614D01*
X11380014Y-3168277D01*
X11229670Y-3003051D01*
X11225619Y-2999852D01*
X11225615Y-2999848D01*
X11058414Y-2867800D01*
X11058410Y-2867798D01*
X11054359Y-2864598D01*
X10858789Y-2756638D01*
X10853920Y-2754914D01*
X10853916Y-2754912D01*
X10653087Y-2683795D01*
X10653083Y-2683794D01*
X10648212Y-2682069D01*
X10643119Y-2681162D01*
X10643116Y-2681161D01*
X10433373Y-2643800D01*
X10433367Y-2643799D01*
X10428284Y-2642894D01*
X10354452Y-2641992D01*
X10210081Y-2640228D01*
X10210079Y-2640228D01*
X10204911Y-2640165D01*
X9984091Y-2673955D01*
X9771756Y-2743357D01*
X9741443Y-2759137D01*
X9588007Y-2839011D01*
X9573607Y-2846507D01*
X9569474Y-2849610D01*
X9569471Y-2849612D01*
X9482718Y-2914748D01*
X9394965Y-2980635D01*
X9367502Y-3009373D01*
X9258470Y-3123469D01*
X9240629Y-3142138D01*
X9133201Y-3299621D01*
X9078293Y-3344621D01*
X9007768Y-3352792D01*
X8944021Y-3321538D01*
X8923324Y-3297054D01*
X8842822Y-3172617D01*
X8842820Y-3172614D01*
X8840014Y-3168277D01*
X8689670Y-3003051D01*
X8685619Y-2999852D01*
X8685615Y-2999848D01*
X8518414Y-2867800D01*
X8518410Y-2867798D01*
X8514359Y-2864598D01*
X8318789Y-2756638D01*
X8313920Y-2754914D01*
X8313916Y-2754912D01*
X8113087Y-2683795D01*
X8113083Y-2683794D01*
X8108212Y-2682069D01*
X8103119Y-2681162D01*
X8103116Y-2681161D01*
X7893373Y-2643800D01*
X7893367Y-2643799D01*
X7888284Y-2642894D01*
X7814452Y-2641992D01*
X7670081Y-2640228D01*
X7670079Y-2640228D01*
X7664911Y-2640165D01*
X7444091Y-2673955D01*
X7231756Y-2743357D01*
X7201443Y-2759137D01*
X7048007Y-2839011D01*
X7033607Y-2846507D01*
X7029474Y-2849610D01*
X7029471Y-2849612D01*
X6942718Y-2914748D01*
X6854965Y-2980635D01*
X6827502Y-3009373D01*
X6718470Y-3123469D01*
X6700629Y-3142138D01*
X6593201Y-3299621D01*
X6538293Y-3344621D01*
X6467768Y-3352792D01*
X6404021Y-3321538D01*
X6383324Y-3297054D01*
X6302822Y-3172617D01*
X6302820Y-3172614D01*
X6300014Y-3168277D01*
X6149670Y-3003051D01*
X6145619Y-2999852D01*
X6145615Y-2999848D01*
X5978414Y-2867800D01*
X5978410Y-2867798D01*
X5974359Y-2864598D01*
X5778789Y-2756638D01*
X5773920Y-2754914D01*
X5773916Y-2754912D01*
X5573087Y-2683795D01*
X5573083Y-2683794D01*
X5568212Y-2682069D01*
X5563119Y-2681162D01*
X5563116Y-2681161D01*
X5353373Y-2643800D01*
X5353367Y-2643799D01*
X5348284Y-2642894D01*
X5274452Y-2641992D01*
X5130081Y-2640228D01*
X5130079Y-2640228D01*
X5124911Y-2640165D01*
X4904091Y-2673955D01*
X4691756Y-2743357D01*
X4661443Y-2759137D01*
X4508007Y-2839011D01*
X4493607Y-2846507D01*
X4489474Y-2849610D01*
X4489471Y-2849612D01*
X4402718Y-2914748D01*
X4314965Y-2980635D01*
X4287502Y-3009373D01*
X4178470Y-3123469D01*
X4160629Y-3142138D01*
X4034743Y-3326680D01*
X3940688Y-3529305D01*
X3880989Y-3744570D01*
X3857251Y-3966695D01*
X3857548Y-3971848D01*
X3857548Y-3971851D01*
X3868067Y-4154279D01*
X3870110Y-4189715D01*
X3871247Y-4194761D01*
X3871248Y-4194767D01*
X3903453Y-4337668D01*
X3898917Y-4408520D01*
X3869631Y-4454464D01*
X1259187Y-7064908D01*
X1250901Y-7072448D01*
X1244422Y-7076560D01*
X1238997Y-7082337D01*
X1197797Y-7126211D01*
X1195042Y-7129053D01*
X1175305Y-7148790D01*
X1172825Y-7151987D01*
X1165122Y-7161007D01*
X1134854Y-7193239D01*
X1131035Y-7200185D01*
X1131033Y-7200188D01*
X1125092Y-7210994D01*
X1114241Y-7227513D01*
X1101826Y-7243519D01*
X1098681Y-7250788D01*
X1098678Y-7250792D01*
X1084266Y-7284097D01*
X1079049Y-7294747D01*
X1057745Y-7333500D01*
X1055774Y-7341175D01*
X1055774Y-7341176D01*
X1052707Y-7353122D01*
X1046303Y-7371826D01*
X1038259Y-7390415D01*
X1037020Y-7398238D01*
X1037017Y-7398248D01*
X1031341Y-7434084D01*
X1028935Y-7445704D01*
X1023860Y-7465472D01*
X1017940Y-7488530D01*
X1017940Y-7508784D01*
X1016389Y-7528494D01*
X1013220Y-7548503D01*
X508000Y-7548503D01*
X508000Y-2053207D01*
X509746Y-2032303D01*
X512264Y-2017335D01*
X513071Y-2012539D01*
X513224Y-2000000D01*
X511655Y-1989043D01*
X510704Y-1962198D01*
X522543Y-1796659D01*
X525101Y-1778864D01*
X557823Y-1628444D01*
X566521Y-1588460D01*
X571586Y-1571212D01*
X639684Y-1388637D01*
X647151Y-1372285D01*
X740536Y-1201265D01*
X750248Y-1186153D01*
X867024Y-1030159D01*
X878797Y-1016573D01*
X1016573Y-878797D01*
X1030159Y-867024D01*
X1186153Y-750248D01*
X1201265Y-740536D01*
X1372290Y-647149D01*
X1388637Y-639684D01*
X1571212Y-571586D01*
X1588460Y-566521D01*
X1778863Y-525101D01*
X1796658Y-522543D01*
X1845557Y-519046D01*
X1958631Y-510959D01*
X1976533Y-511703D01*
X1984858Y-511805D01*
X1993730Y-513186D01*
X2002632Y-512022D01*
X2002635Y-512022D01*
X2025251Y-509064D01*
X2041589Y-508000D01*
X95950672Y-508000D01*
X95970056Y-509500D01*
G37*
%TD.AperFunction*%
%TD*%
M02*
