%TF.GenerationSoftware,KiCad,Pcbnew,(6.0.1)*%
%TF.CreationDate,2023-01-23T14:34:39-05:00*%
%TF.ProjectId,blu_model_m,626c755f-6d6f-4646-956c-5f6d2e6b6963,rev?*%
%TF.SameCoordinates,PX2719c40PY3fe56c0*%
%TF.FileFunction,Copper,L2,Bot*%
%TF.FilePolarity,Positive*%
%FSLAX46Y46*%
G04 Gerber Fmt 4.6, Leading zero omitted, Abs format (unit mm)*
G04 Created by KiCad (PCBNEW (6.0.1)) date 2023-01-23 14:34:39*
%MOMM*%
%LPD*%
G01*
G04 APERTURE LIST*
%TA.AperFunction,ComponentPad*%
%ADD10R,1.700000X1.700000*%
%TD*%
%TA.AperFunction,ComponentPad*%
%ADD11O,1.700000X1.700000*%
%TD*%
%TA.AperFunction,ViaPad*%
%ADD12C,0.800000*%
%TD*%
%TA.AperFunction,Conductor*%
%ADD13C,0.250000*%
%TD*%
G04 APERTURE END LIST*
D10*
%TO.P,JP1,1,1*%
%TO.N,VBAT*%
X19000000Y-16000000D03*
D11*
%TO.P,JP1,2,2*%
%TO.N,/EN*%
X21540000Y-16000000D03*
%TO.P,JP1,3,3*%
%TO.N,VBUS*%
X24080000Y-16000000D03*
%TO.P,JP1,4,4*%
%TO.N,/IO13_A12*%
X26620000Y-16000000D03*
%TO.P,JP1,5,5*%
%TO.N,/IO12_A11*%
X29160000Y-16000000D03*
%TO.P,JP1,6,6*%
%TO.N,/IO27_A10*%
X31700000Y-16000000D03*
%TO.P,JP1,7,7*%
%TO.N,/IO33_A9*%
X34240000Y-16000000D03*
%TO.P,JP1,8,8*%
%TO.N,/IO15_A8*%
X36780000Y-16000000D03*
%TO.P,JP1,9,9*%
%TO.N,/IO32_A7*%
X39320000Y-16000000D03*
%TO.P,JP1,10,10*%
%TO.N,/IO14_A6*%
X41860000Y-16000000D03*
%TO.P,JP1,11,11*%
%TO.N,/SCL*%
X44400000Y-16000000D03*
%TO.P,JP1,12,12*%
%TO.N,/SDA*%
X46940000Y-16000000D03*
%TD*%
%TO.P,JP2,16,16*%
%TO.N,/RESET*%
X8800000Y-35000000D03*
%TO.P,JP2,15,15*%
%TO.N,3.3V*%
X11340000Y-35000000D03*
%TO.P,JP2,14,14*%
%TO.N,unconnected-(JP2-Pad14)*%
X13880000Y-35000000D03*
%TO.P,JP2,13,13*%
%TO.N,GND*%
X16420000Y-35000000D03*
%TO.P,JP2,12,12*%
%TO.N,/A0_DAC2*%
X18960000Y-35000000D03*
%TO.P,JP2,11,11*%
%TO.N,/A1_DAC1*%
X21500000Y-35000000D03*
%TO.P,JP2,10,10*%
%TO.N,/A2_I34*%
X24040000Y-35000000D03*
%TO.P,JP2,9,9*%
%TO.N,/A3_I39*%
X26580000Y-35000000D03*
%TO.P,JP2,8,8*%
%TO.N,/A4_IO36*%
X29120000Y-35000000D03*
%TO.P,JP2,7,7*%
%TO.N,/A5_IO4*%
X31660000Y-35000000D03*
%TO.P,JP2,6,6*%
%TO.N,/SCK*%
X34200000Y-35000000D03*
%TO.P,JP2,5,5*%
%TO.N,/MOSI*%
X36740000Y-35000000D03*
%TO.P,JP2,4,4*%
%TO.N,/MISO*%
X39280000Y-35000000D03*
%TO.P,JP2,3,3*%
%TO.N,/IO16*%
X41820000Y-35000000D03*
%TO.P,JP2,2,2*%
%TO.N,/IO17*%
X44360000Y-35000000D03*
D10*
%TO.P,JP2,1,1*%
%TO.N,/IO21*%
X46900000Y-35000000D03*
%TD*%
%TO.P,J3,1,Pin_1*%
%TO.N,/IO17*%
X92800000Y-4025000D03*
D11*
%TO.P,J3,2,Pin_2*%
%TO.N,/IO16*%
X90260000Y-4025000D03*
%TO.P,J3,3,Pin_3*%
%TO.N,GND*%
X87720000Y-4025000D03*
%TO.P,J3,4,Pin_4*%
%TO.N,/A5_IO4*%
X85180000Y-4025000D03*
%TD*%
D10*
%TO.P,J2,1,Pin_1*%
%TO.N,/IO14_A6*%
X72875000Y-4025000D03*
D11*
%TO.P,J2,2,Pin_2*%
%TO.N,/IO32_A7*%
X70335000Y-4025000D03*
%TO.P,J2,3,Pin_3*%
%TO.N,/IO15_A8*%
X67795000Y-4025000D03*
%TO.P,J2,4,Pin_4*%
%TO.N,/IO33_A9*%
X65255000Y-4025000D03*
%TO.P,J2,5,Pin_5*%
%TO.N,/IO27_A10*%
X62715000Y-4025000D03*
%TO.P,J2,6,Pin_6*%
%TO.N,/IO12_A11*%
X60175000Y-4025000D03*
%TO.P,J2,7,Pin_7*%
%TO.N,/IO13_A12*%
X57635000Y-4025000D03*
%TO.P,J2,8,Pin_8*%
%TO.N,/IO21*%
X55095000Y-4025000D03*
%TD*%
D10*
%TO.P,J1,1,Pin_1*%
%TO.N,/P00*%
X43320000Y-4000000D03*
D11*
%TO.P,J1,2,Pin_2*%
%TO.N,/P01*%
X40780000Y-4000000D03*
%TO.P,J1,3,Pin_3*%
%TO.N,/P02*%
X38240000Y-4000000D03*
%TO.P,J1,4,Pin_4*%
%TO.N,/P03*%
X35700000Y-4000000D03*
%TO.P,J1,5,Pin_5*%
%TO.N,/P04*%
X33160000Y-4000000D03*
%TO.P,J1,6,Pin_6*%
%TO.N,/P05*%
X30620000Y-4000000D03*
%TO.P,J1,7,Pin_7*%
%TO.N,/P06*%
X28080000Y-4000000D03*
%TO.P,J1,8,Pin_8*%
%TO.N,/P07*%
X25540000Y-4000000D03*
%TO.P,J1,9,Pin_9*%
%TO.N,/P10*%
X23000000Y-4000000D03*
%TO.P,J1,10,Pin_10*%
%TO.N,/P11*%
X20460000Y-4000000D03*
%TO.P,J1,11,Pin_11*%
%TO.N,/P12*%
X17920000Y-4000000D03*
%TO.P,J1,12,Pin_12*%
%TO.N,/P13*%
X15380000Y-4000000D03*
%TO.P,J1,13,Pin_13*%
%TO.N,/P14*%
X12840000Y-4000000D03*
%TO.P,J1,14,Pin_14*%
%TO.N,/P15*%
X10300000Y-4000000D03*
%TO.P,J1,15,Pin_15*%
%TO.N,/P16*%
X7760000Y-4000000D03*
%TO.P,J1,16,Pin_16*%
%TO.N,/P17*%
X5220000Y-4000000D03*
%TD*%
D12*
%TO.N,GND*%
X87500000Y-2000000D03*
X10500000Y-25500000D03*
X10500000Y-24000000D03*
X10500000Y-22500000D03*
%TO.N,/A4_IO36*%
X15500000Y-29000000D03*
X27075000Y-29500000D03*
%TO.N,GND*%
X3500000Y-27500000D03*
%TO.N,/SDA*%
X9000000Y-27700500D03*
%TO.N,/SCL*%
X7303763Y-28499500D03*
%TO.N,/IO21*%
X50000000Y-9000000D03*
%TO.N,/P10*%
X7987701Y-14987701D03*
%TO.N,/P11*%
X11987701Y-11987701D03*
%TD*%
D13*
%TO.N,/SDA*%
X9000000Y-27700500D02*
X9000000Y-28000000D01*
X31715489Y-31224511D02*
X46940000Y-16000000D01*
X9000000Y-28000000D02*
X12224511Y-31224511D01*
X12224511Y-31224511D02*
X31715489Y-31224511D01*
%TO.N,/SCL*%
X7303763Y-28372123D02*
X8900397Y-26775489D01*
X7303763Y-28499500D02*
X7303763Y-28372123D01*
X33624511Y-26775489D02*
X44400000Y-16000000D01*
X8900397Y-26775489D02*
X33624511Y-26775489D01*
%TO.N,/A4_IO36*%
X27075000Y-29500000D02*
X16000000Y-29500000D01*
X16000000Y-29500000D02*
X15500000Y-29000000D01*
%TO.N,/P10*%
X12012299Y-14987701D02*
X23000000Y-4000000D01*
X7987701Y-14987701D02*
X12012299Y-14987701D01*
%TO.N,/IO21*%
X50000000Y-31900000D02*
X46900000Y-35000000D01*
X50000000Y-9000000D02*
X50000000Y-31900000D01*
%TO.N,/IO33_A9*%
X61931440Y-7348560D02*
X65255000Y-4025000D01*
X34240000Y-13760000D02*
X40651440Y-7348560D01*
X40651440Y-7348560D02*
X61931440Y-7348560D01*
X34240000Y-16000000D02*
X34240000Y-13760000D01*
%TO.N,/IO15_A8*%
X64021920Y-7798080D02*
X67795000Y-4025000D01*
X42201920Y-7798080D02*
X64021920Y-7798080D01*
X36780000Y-13220000D02*
X42201920Y-7798080D01*
X36780000Y-16000000D02*
X36780000Y-13220000D01*
%TO.N,/IO32_A7*%
X39320000Y-12680000D02*
X43752400Y-8247600D01*
X43752400Y-8247600D02*
X47000000Y-8247600D01*
X39320000Y-16000000D02*
X39320000Y-12680000D01*
%TO.N,/IO12_A11*%
X38050480Y-6449520D02*
X57750480Y-6449520D01*
X29160000Y-15340000D02*
X38050480Y-6449520D01*
X57750480Y-6449520D02*
X60175000Y-4025000D01*
X29160000Y-16000000D02*
X29160000Y-15340000D01*
%TO.N,/IO13_A12*%
X55660000Y-6000000D02*
X57635000Y-4025000D01*
X27000000Y-16000000D02*
X37000000Y-6000000D01*
X26620000Y-16000000D02*
X27000000Y-16000000D01*
X37000000Y-6000000D02*
X55660000Y-6000000D01*
%TO.N,/IO27_A10*%
X59840960Y-6899040D02*
X62715000Y-4025000D01*
X31700000Y-14300000D02*
X39100960Y-6899040D01*
X31700000Y-16000000D02*
X31700000Y-14300000D01*
X39100960Y-6899040D02*
X59840960Y-6899040D01*
%TO.N,/IO32_A7*%
X66112400Y-8247600D02*
X70335000Y-4025000D01*
X46182400Y-8247600D02*
X66112400Y-8247600D01*
%TO.N,/P11*%
X12472299Y-11987701D02*
X20460000Y-4000000D01*
X11987701Y-11987701D02*
X12472299Y-11987701D01*
%TD*%
%TA.AperFunction,Conductor*%
%TO.N,GND*%
G36*
X95970056Y-509500D02*
G01*
X95972284Y-509847D01*
X95984859Y-511805D01*
X95984861Y-511805D01*
X95993730Y-513186D01*
X96002632Y-512022D01*
X96002634Y-512022D01*
X96008959Y-511195D01*
X96034282Y-510452D01*
X96198126Y-522170D01*
X96203343Y-522543D01*
X96221137Y-525101D01*
X96411540Y-566521D01*
X96428788Y-571586D01*
X96611363Y-639684D01*
X96627710Y-647149D01*
X96798735Y-740536D01*
X96813847Y-750248D01*
X96969841Y-867024D01*
X96983427Y-878797D01*
X97121203Y-1016573D01*
X97132976Y-1030159D01*
X97249752Y-1186153D01*
X97259464Y-1201265D01*
X97352849Y-1372285D01*
X97360316Y-1388637D01*
X97428414Y-1571212D01*
X97433480Y-1588462D01*
X97474899Y-1778863D01*
X97477457Y-1796658D01*
X97489041Y-1958629D01*
X97488297Y-1976533D01*
X97488195Y-1984858D01*
X97486814Y-1993730D01*
X97487978Y-2002632D01*
X97487978Y-2002635D01*
X97490936Y-2025251D01*
X97492000Y-2041589D01*
X97492000Y-7950672D01*
X97490500Y-7970056D01*
X97486814Y-7993730D01*
X97487978Y-8002632D01*
X97487978Y-8002634D01*
X97488805Y-8008959D01*
X97489548Y-8034287D01*
X97477457Y-8203343D01*
X97474899Y-8221137D01*
X97433480Y-8411538D01*
X97428414Y-8428788D01*
X97360316Y-8611363D01*
X97352851Y-8627710D01*
X97259464Y-8798735D01*
X97249753Y-8813846D01*
X97233296Y-8835829D01*
X97132976Y-8969841D01*
X97121203Y-8983427D01*
X96983427Y-9121203D01*
X96969841Y-9132976D01*
X96813847Y-9249752D01*
X96798735Y-9259464D01*
X96627710Y-9352851D01*
X96611363Y-9360316D01*
X96428788Y-9428414D01*
X96411540Y-9433479D01*
X96248022Y-9469051D01*
X96221137Y-9474899D01*
X96203342Y-9477457D01*
X96154443Y-9480954D01*
X96041369Y-9489041D01*
X96023467Y-9488297D01*
X96015142Y-9488195D01*
X96006270Y-9486814D01*
X95997368Y-9487978D01*
X95997365Y-9487978D01*
X95974749Y-9490936D01*
X95958411Y-9492000D01*
X57053207Y-9492000D01*
X57032303Y-9490254D01*
X57029137Y-9489721D01*
X57012539Y-9486929D01*
X57006349Y-9486853D01*
X57004864Y-9486835D01*
X57004859Y-9486835D01*
X57000000Y-9486776D01*
X56995190Y-9487465D01*
X56992699Y-9487627D01*
X56987110Y-9488196D01*
X56941809Y-9490936D01*
X56700938Y-9505506D01*
X56700933Y-9505507D01*
X56697141Y-9505736D01*
X56398699Y-9560427D01*
X56109025Y-9650693D01*
X56105555Y-9652255D01*
X56105549Y-9652257D01*
X55993861Y-9702524D01*
X55832344Y-9775217D01*
X55829087Y-9777186D01*
X55829083Y-9777188D01*
X55657861Y-9880696D01*
X55572690Y-9932184D01*
X55333849Y-10119304D01*
X55119304Y-10333849D01*
X55036475Y-10439573D01*
X54978893Y-10513071D01*
X54932184Y-10572690D01*
X54775217Y-10832344D01*
X54712955Y-10970684D01*
X54664116Y-11079201D01*
X54650693Y-11109025D01*
X54560427Y-11398699D01*
X54505736Y-11697141D01*
X54505507Y-11700933D01*
X54505506Y-11700938D01*
X54488777Y-11977506D01*
X54488223Y-11982639D01*
X54488216Y-11983271D01*
X54488381Y-11983670D01*
X54486814Y-11993730D01*
X54487485Y-11998861D01*
X54487416Y-12000000D01*
X54487634Y-12000000D01*
X54488623Y-12007562D01*
X54490936Y-12025250D01*
X54492000Y-12041588D01*
X54492000Y-37950672D01*
X54490500Y-37970056D01*
X54486814Y-37993730D01*
X54487978Y-38002632D01*
X54487978Y-38002634D01*
X54488805Y-38008959D01*
X54489548Y-38034287D01*
X54477457Y-38203343D01*
X54474899Y-38221137D01*
X54433480Y-38411538D01*
X54428414Y-38428788D01*
X54360316Y-38611363D01*
X54352851Y-38627710D01*
X54259464Y-38798735D01*
X54249752Y-38813847D01*
X54132976Y-38969841D01*
X54121203Y-38983427D01*
X53983427Y-39121203D01*
X53969841Y-39132976D01*
X53813847Y-39249752D01*
X53798735Y-39259464D01*
X53627710Y-39352851D01*
X53611363Y-39360316D01*
X53428788Y-39428414D01*
X53411540Y-39433479D01*
X53248022Y-39469051D01*
X53221137Y-39474899D01*
X53203342Y-39477457D01*
X53154443Y-39480954D01*
X53041369Y-39489041D01*
X53023467Y-39488297D01*
X53015142Y-39488195D01*
X53006270Y-39486814D01*
X52997368Y-39487978D01*
X52997365Y-39487978D01*
X52974749Y-39490936D01*
X52958411Y-39492000D01*
X2049328Y-39492000D01*
X2029943Y-39490500D01*
X2029661Y-39490456D01*
X2027117Y-39490060D01*
X2015141Y-39488195D01*
X2015139Y-39488195D01*
X2006270Y-39486814D01*
X1997368Y-39487978D01*
X1997366Y-39487978D01*
X1991041Y-39488805D01*
X1965718Y-39489548D01*
X1796657Y-39477457D01*
X1778863Y-39474899D01*
X1751978Y-39469051D01*
X1588460Y-39433479D01*
X1571212Y-39428414D01*
X1388637Y-39360316D01*
X1372290Y-39352851D01*
X1201265Y-39259464D01*
X1186153Y-39249752D01*
X1030159Y-39132976D01*
X1016573Y-39121203D01*
X878797Y-38983427D01*
X867024Y-38969841D01*
X750248Y-38813847D01*
X740536Y-38798735D01*
X647149Y-38627710D01*
X639684Y-38611363D01*
X571586Y-38428788D01*
X566520Y-38411538D01*
X525101Y-38221137D01*
X522543Y-38203342D01*
X510959Y-38041371D01*
X511703Y-38023467D01*
X511805Y-38015142D01*
X513186Y-38006270D01*
X511547Y-37993730D01*
X509064Y-37974749D01*
X508000Y-37958411D01*
X508000Y-34966695D01*
X7437251Y-34966695D01*
X7450110Y-35189715D01*
X7451247Y-35194761D01*
X7451248Y-35194767D01*
X7472275Y-35288069D01*
X7499222Y-35407639D01*
X7583266Y-35614616D01*
X7620685Y-35675678D01*
X7697291Y-35800688D01*
X7699987Y-35805088D01*
X7846250Y-35973938D01*
X8018126Y-36116632D01*
X8211000Y-36229338D01*
X8419692Y-36309030D01*
X8424760Y-36310061D01*
X8424763Y-36310062D01*
X8519862Y-36329410D01*
X8638597Y-36353567D01*
X8643772Y-36353757D01*
X8643774Y-36353757D01*
X8856673Y-36361564D01*
X8856677Y-36361564D01*
X8861837Y-36361753D01*
X8866957Y-36361097D01*
X8866959Y-36361097D01*
X9078288Y-36334025D01*
X9078289Y-36334025D01*
X9083416Y-36333368D01*
X9088366Y-36331883D01*
X9292429Y-36270661D01*
X9292434Y-36270659D01*
X9297384Y-36269174D01*
X9497994Y-36170896D01*
X9679860Y-36041173D01*
X9838096Y-35883489D01*
X9897594Y-35800689D01*
X9968453Y-35702077D01*
X9969776Y-35703028D01*
X10016645Y-35659857D01*
X10086580Y-35647625D01*
X10152026Y-35675144D01*
X10179875Y-35706994D01*
X10239987Y-35805088D01*
X10386250Y-35973938D01*
X10558126Y-36116632D01*
X10751000Y-36229338D01*
X10959692Y-36309030D01*
X10964760Y-36310061D01*
X10964763Y-36310062D01*
X11059862Y-36329410D01*
X11178597Y-36353567D01*
X11183772Y-36353757D01*
X11183774Y-36353757D01*
X11396673Y-36361564D01*
X11396677Y-36361564D01*
X11401837Y-36361753D01*
X11406957Y-36361097D01*
X11406959Y-36361097D01*
X11618288Y-36334025D01*
X11618289Y-36334025D01*
X11623416Y-36333368D01*
X11628366Y-36331883D01*
X11832429Y-36270661D01*
X11832434Y-36270659D01*
X11837384Y-36269174D01*
X12037994Y-36170896D01*
X12219860Y-36041173D01*
X12378096Y-35883489D01*
X12437594Y-35800689D01*
X12508453Y-35702077D01*
X12509776Y-35703028D01*
X12556645Y-35659857D01*
X12626580Y-35647625D01*
X12692026Y-35675144D01*
X12719875Y-35706994D01*
X12779987Y-35805088D01*
X12926250Y-35973938D01*
X13098126Y-36116632D01*
X13291000Y-36229338D01*
X13499692Y-36309030D01*
X13504760Y-36310061D01*
X13504763Y-36310062D01*
X13599862Y-36329410D01*
X13718597Y-36353567D01*
X13723772Y-36353757D01*
X13723774Y-36353757D01*
X13936673Y-36361564D01*
X13936677Y-36361564D01*
X13941837Y-36361753D01*
X13946957Y-36361097D01*
X13946959Y-36361097D01*
X14158288Y-36334025D01*
X14158289Y-36334025D01*
X14163416Y-36333368D01*
X14168366Y-36331883D01*
X14372429Y-36270661D01*
X14372434Y-36270659D01*
X14377384Y-36269174D01*
X14577994Y-36170896D01*
X14759860Y-36041173D01*
X14918096Y-35883489D01*
X14977594Y-35800689D01*
X15048453Y-35702077D01*
X15049640Y-35702930D01*
X15096960Y-35659362D01*
X15166897Y-35647145D01*
X15232338Y-35674678D01*
X15260166Y-35706511D01*
X15317694Y-35800388D01*
X15323777Y-35808699D01*
X15463213Y-35969667D01*
X15470580Y-35976883D01*
X15634434Y-36112916D01*
X15642881Y-36118831D01*
X15826756Y-36226279D01*
X15836042Y-36230729D01*
X16035001Y-36306703D01*
X16044899Y-36309579D01*
X16148250Y-36330606D01*
X16162299Y-36329410D01*
X16166000Y-36319065D01*
X16166000Y-33683102D01*
X16162082Y-33669758D01*
X16147806Y-33667771D01*
X16109324Y-33673660D01*
X16099288Y-33676051D01*
X15896868Y-33742212D01*
X15887359Y-33746209D01*
X15698463Y-33844542D01*
X15689738Y-33850036D01*
X15519433Y-33977905D01*
X15511726Y-33984748D01*
X15364590Y-34138717D01*
X15358109Y-34146722D01*
X15253498Y-34300074D01*
X15198587Y-34345076D01*
X15128062Y-34353247D01*
X15064315Y-34321993D01*
X15043618Y-34297509D01*
X14962822Y-34172617D01*
X14962820Y-34172614D01*
X14960014Y-34168277D01*
X14809670Y-34003051D01*
X14805619Y-33999852D01*
X14805615Y-33999848D01*
X14638414Y-33867800D01*
X14638410Y-33867798D01*
X14634359Y-33864598D01*
X14598028Y-33844542D01*
X14582136Y-33835769D01*
X14438789Y-33756638D01*
X14433920Y-33754914D01*
X14433916Y-33754912D01*
X14233087Y-33683795D01*
X14233083Y-33683794D01*
X14228212Y-33682069D01*
X14223119Y-33681162D01*
X14223116Y-33681161D01*
X14013373Y-33643800D01*
X14013367Y-33643799D01*
X14008284Y-33642894D01*
X13934452Y-33641992D01*
X13790081Y-33640228D01*
X13790079Y-33640228D01*
X13784911Y-33640165D01*
X13564091Y-33673955D01*
X13351756Y-33743357D01*
X13153607Y-33846507D01*
X13149474Y-33849610D01*
X13149471Y-33849612D01*
X12979100Y-33977530D01*
X12974965Y-33980635D01*
X12949541Y-34007240D01*
X12881280Y-34078671D01*
X12820629Y-34142138D01*
X12713201Y-34299621D01*
X12658293Y-34344621D01*
X12587768Y-34352792D01*
X12524021Y-34321538D01*
X12503324Y-34297054D01*
X12422822Y-34172617D01*
X12422820Y-34172614D01*
X12420014Y-34168277D01*
X12269670Y-34003051D01*
X12265619Y-33999852D01*
X12265615Y-33999848D01*
X12098414Y-33867800D01*
X12098410Y-33867798D01*
X12094359Y-33864598D01*
X12058028Y-33844542D01*
X12042136Y-33835769D01*
X11898789Y-33756638D01*
X11893920Y-33754914D01*
X11893916Y-33754912D01*
X11693087Y-33683795D01*
X11693083Y-33683794D01*
X11688212Y-33682069D01*
X11683119Y-33681162D01*
X11683116Y-33681161D01*
X11473373Y-33643800D01*
X11473367Y-33643799D01*
X11468284Y-33642894D01*
X11394452Y-33641992D01*
X11250081Y-33640228D01*
X11250079Y-33640228D01*
X11244911Y-33640165D01*
X11024091Y-33673955D01*
X10811756Y-33743357D01*
X10613607Y-33846507D01*
X10609474Y-33849610D01*
X10609471Y-33849612D01*
X10439100Y-33977530D01*
X10434965Y-33980635D01*
X10409541Y-34007240D01*
X10341280Y-34078671D01*
X10280629Y-34142138D01*
X10173201Y-34299621D01*
X10118293Y-34344621D01*
X10047768Y-34352792D01*
X9984021Y-34321538D01*
X9963324Y-34297054D01*
X9882822Y-34172617D01*
X9882820Y-34172614D01*
X9880014Y-34168277D01*
X9729670Y-34003051D01*
X9725619Y-33999852D01*
X9725615Y-33999848D01*
X9558414Y-33867800D01*
X9558410Y-33867798D01*
X9554359Y-33864598D01*
X9518028Y-33844542D01*
X9502136Y-33835769D01*
X9358789Y-33756638D01*
X9353920Y-33754914D01*
X9353916Y-33754912D01*
X9153087Y-33683795D01*
X9153083Y-33683794D01*
X9148212Y-33682069D01*
X9143119Y-33681162D01*
X9143116Y-33681161D01*
X8933373Y-33643800D01*
X8933367Y-33643799D01*
X8928284Y-33642894D01*
X8854452Y-33641992D01*
X8710081Y-33640228D01*
X8710079Y-33640228D01*
X8704911Y-33640165D01*
X8484091Y-33673955D01*
X8271756Y-33743357D01*
X8073607Y-33846507D01*
X8069474Y-33849610D01*
X8069471Y-33849612D01*
X7899100Y-33977530D01*
X7894965Y-33980635D01*
X7869541Y-34007240D01*
X7801280Y-34078671D01*
X7740629Y-34142138D01*
X7614743Y-34326680D01*
X7520688Y-34529305D01*
X7460989Y-34744570D01*
X7437251Y-34966695D01*
X508000Y-34966695D01*
X508000Y-3966695D01*
X3857251Y-3966695D01*
X3857548Y-3971848D01*
X3857548Y-3971851D01*
X3860613Y-4025000D01*
X3870110Y-4189715D01*
X3871247Y-4194761D01*
X3871248Y-4194767D01*
X3895304Y-4301508D01*
X3919222Y-4407639D01*
X4003266Y-4614616D01*
X4040685Y-4675678D01*
X4117291Y-4800688D01*
X4119987Y-4805088D01*
X4266250Y-4973938D01*
X4438126Y-5116632D01*
X4631000Y-5229338D01*
X4839692Y-5309030D01*
X4844760Y-5310061D01*
X4844763Y-5310062D01*
X4936702Y-5328767D01*
X5058597Y-5353567D01*
X5063772Y-5353757D01*
X5063774Y-5353757D01*
X5276673Y-5361564D01*
X5276677Y-5361564D01*
X5281837Y-5361753D01*
X5286957Y-5361097D01*
X5286959Y-5361097D01*
X5498288Y-5334025D01*
X5498289Y-5334025D01*
X5503416Y-5333368D01*
X5542434Y-5321662D01*
X5712429Y-5270661D01*
X5712434Y-5270659D01*
X5717384Y-5269174D01*
X5917994Y-5170896D01*
X6099860Y-5041173D01*
X6137825Y-5003341D01*
X6194124Y-4947238D01*
X6258096Y-4883489D01*
X6293665Y-4833990D01*
X6388453Y-4702077D01*
X6389776Y-4703028D01*
X6436645Y-4659857D01*
X6506580Y-4647625D01*
X6572026Y-4675144D01*
X6599875Y-4706994D01*
X6659987Y-4805088D01*
X6806250Y-4973938D01*
X6978126Y-5116632D01*
X7171000Y-5229338D01*
X7379692Y-5309030D01*
X7384760Y-5310061D01*
X7384763Y-5310062D01*
X7476702Y-5328767D01*
X7598597Y-5353567D01*
X7603772Y-5353757D01*
X7603774Y-5353757D01*
X7816673Y-5361564D01*
X7816677Y-5361564D01*
X7821837Y-5361753D01*
X7826957Y-5361097D01*
X7826959Y-5361097D01*
X8038288Y-5334025D01*
X8038289Y-5334025D01*
X8043416Y-5333368D01*
X8082434Y-5321662D01*
X8252429Y-5270661D01*
X8252434Y-5270659D01*
X8257384Y-5269174D01*
X8457994Y-5170896D01*
X8639860Y-5041173D01*
X8677825Y-5003341D01*
X8734124Y-4947238D01*
X8798096Y-4883489D01*
X8833665Y-4833990D01*
X8928453Y-4702077D01*
X8929776Y-4703028D01*
X8976645Y-4659857D01*
X9046580Y-4647625D01*
X9112026Y-4675144D01*
X9139875Y-4706994D01*
X9199987Y-4805088D01*
X9346250Y-4973938D01*
X9518126Y-5116632D01*
X9711000Y-5229338D01*
X9919692Y-5309030D01*
X9924760Y-5310061D01*
X9924763Y-5310062D01*
X10016702Y-5328767D01*
X10138597Y-5353567D01*
X10143772Y-5353757D01*
X10143774Y-5353757D01*
X10356673Y-5361564D01*
X10356677Y-5361564D01*
X10361837Y-5361753D01*
X10366957Y-5361097D01*
X10366959Y-5361097D01*
X10578288Y-5334025D01*
X10578289Y-5334025D01*
X10583416Y-5333368D01*
X10622434Y-5321662D01*
X10792429Y-5270661D01*
X10792434Y-5270659D01*
X10797384Y-5269174D01*
X10997994Y-5170896D01*
X11179860Y-5041173D01*
X11217825Y-5003341D01*
X11274124Y-4947238D01*
X11338096Y-4883489D01*
X11373665Y-4833990D01*
X11468453Y-4702077D01*
X11469776Y-4703028D01*
X11516645Y-4659857D01*
X11586580Y-4647625D01*
X11652026Y-4675144D01*
X11679875Y-4706994D01*
X11739987Y-4805088D01*
X11886250Y-4973938D01*
X12058126Y-5116632D01*
X12251000Y-5229338D01*
X12459692Y-5309030D01*
X12464760Y-5310061D01*
X12464763Y-5310062D01*
X12556702Y-5328767D01*
X12678597Y-5353567D01*
X12683772Y-5353757D01*
X12683774Y-5353757D01*
X12896673Y-5361564D01*
X12896677Y-5361564D01*
X12901837Y-5361753D01*
X12906957Y-5361097D01*
X12906959Y-5361097D01*
X13118288Y-5334025D01*
X13118289Y-5334025D01*
X13123416Y-5333368D01*
X13162434Y-5321662D01*
X13332429Y-5270661D01*
X13332434Y-5270659D01*
X13337384Y-5269174D01*
X13537994Y-5170896D01*
X13719860Y-5041173D01*
X13757825Y-5003341D01*
X13814124Y-4947238D01*
X13878096Y-4883489D01*
X13913665Y-4833990D01*
X14008453Y-4702077D01*
X14009776Y-4703028D01*
X14056645Y-4659857D01*
X14126580Y-4647625D01*
X14192026Y-4675144D01*
X14219875Y-4706994D01*
X14279987Y-4805088D01*
X14426250Y-4973938D01*
X14598126Y-5116632D01*
X14791000Y-5229338D01*
X14999692Y-5309030D01*
X15004760Y-5310061D01*
X15004763Y-5310062D01*
X15096702Y-5328767D01*
X15218597Y-5353567D01*
X15223772Y-5353757D01*
X15223774Y-5353757D01*
X15436673Y-5361564D01*
X15436677Y-5361564D01*
X15441837Y-5361753D01*
X15446957Y-5361097D01*
X15446959Y-5361097D01*
X15658288Y-5334025D01*
X15658289Y-5334025D01*
X15663416Y-5333368D01*
X15702434Y-5321662D01*
X15872429Y-5270661D01*
X15872434Y-5270659D01*
X15877384Y-5269174D01*
X16077994Y-5170896D01*
X16259860Y-5041173D01*
X16297825Y-5003341D01*
X16354124Y-4947238D01*
X16418096Y-4883489D01*
X16453665Y-4833990D01*
X16548453Y-4702077D01*
X16549776Y-4703028D01*
X16596645Y-4659857D01*
X16666580Y-4647625D01*
X16732026Y-4675144D01*
X16759875Y-4706994D01*
X16819987Y-4805088D01*
X16966250Y-4973938D01*
X17138126Y-5116632D01*
X17331000Y-5229338D01*
X17539692Y-5309030D01*
X17544760Y-5310061D01*
X17544763Y-5310062D01*
X17636702Y-5328767D01*
X17758597Y-5353567D01*
X17763771Y-5353757D01*
X17763773Y-5353757D01*
X17825898Y-5356035D01*
X17905650Y-5358959D01*
X17972991Y-5381443D01*
X18017487Y-5436767D01*
X18025009Y-5507364D01*
X17990127Y-5573969D01*
X15152557Y-8411538D01*
X12452449Y-11111646D01*
X12390137Y-11145672D01*
X12319322Y-11140607D01*
X12312106Y-11137658D01*
X12276024Y-11121593D01*
X12276016Y-11121590D01*
X12269989Y-11118907D01*
X12176588Y-11099054D01*
X12089645Y-11080573D01*
X12089640Y-11080573D01*
X12083188Y-11079201D01*
X11892214Y-11079201D01*
X11885762Y-11080573D01*
X11885757Y-11080573D01*
X11798814Y-11099054D01*
X11705413Y-11118907D01*
X11699383Y-11121592D01*
X11699382Y-11121592D01*
X11536979Y-11193898D01*
X11536977Y-11193899D01*
X11530949Y-11196583D01*
X11376448Y-11308835D01*
X11248661Y-11450757D01*
X11245360Y-11456475D01*
X11174242Y-11579655D01*
X11153174Y-11616145D01*
X11094159Y-11797773D01*
X11074197Y-11987701D01*
X11074887Y-11994266D01*
X11078144Y-12025250D01*
X11094159Y-12177629D01*
X11153174Y-12359257D01*
X11248661Y-12524645D01*
X11253079Y-12529552D01*
X11253080Y-12529553D01*
X11343651Y-12630142D01*
X11376448Y-12666567D01*
X11530949Y-12778819D01*
X11536977Y-12781503D01*
X11536979Y-12781504D01*
X11699382Y-12853810D01*
X11705413Y-12856495D01*
X11774204Y-12871117D01*
X11885757Y-12894829D01*
X11885762Y-12894829D01*
X11892214Y-12896201D01*
X12083188Y-12896201D01*
X12089640Y-12894829D01*
X12089645Y-12894829D01*
X12201198Y-12871117D01*
X12269989Y-12856495D01*
X12276020Y-12853810D01*
X12438423Y-12781504D01*
X12438425Y-12781503D01*
X12444453Y-12778819D01*
X12514399Y-12728000D01*
X12593610Y-12670450D01*
X12593612Y-12670448D01*
X12598954Y-12666567D01*
X12643185Y-12617443D01*
X12701670Y-12580756D01*
X12702966Y-12580380D01*
X12725892Y-12573719D01*
X12732711Y-12569686D01*
X12732716Y-12569684D01*
X12743327Y-12563408D01*
X12761075Y-12554713D01*
X12779916Y-12547253D01*
X12815686Y-12521265D01*
X12825606Y-12514749D01*
X12856834Y-12496281D01*
X12856837Y-12496279D01*
X12863661Y-12492243D01*
X12877982Y-12477922D01*
X12893016Y-12465081D01*
X12902993Y-12457832D01*
X12909406Y-12453173D01*
X12937597Y-12419096D01*
X12945587Y-12410317D01*
X20004550Y-5351355D01*
X20066862Y-5317329D01*
X20118762Y-5316979D01*
X20298597Y-5353567D01*
X20303771Y-5353757D01*
X20303773Y-5353757D01*
X20365898Y-5356035D01*
X20445650Y-5358959D01*
X20512991Y-5381443D01*
X20557487Y-5436767D01*
X20565009Y-5507364D01*
X20530127Y-5573969D01*
X16036279Y-10067816D01*
X11786799Y-14317296D01*
X11724487Y-14351322D01*
X11697704Y-14354201D01*
X8695901Y-14354201D01*
X8627780Y-14334199D01*
X8608554Y-14317858D01*
X8608281Y-14318161D01*
X8603369Y-14313738D01*
X8598954Y-14308835D01*
X8444453Y-14196583D01*
X8438425Y-14193899D01*
X8438423Y-14193898D01*
X8276020Y-14121592D01*
X8276019Y-14121592D01*
X8269989Y-14118907D01*
X8176589Y-14099054D01*
X8089645Y-14080573D01*
X8089640Y-14080573D01*
X8083188Y-14079201D01*
X7892214Y-14079201D01*
X7885762Y-14080573D01*
X7885757Y-14080573D01*
X7798813Y-14099054D01*
X7705413Y-14118907D01*
X7699383Y-14121592D01*
X7699382Y-14121592D01*
X7536979Y-14193898D01*
X7536977Y-14193899D01*
X7530949Y-14196583D01*
X7376448Y-14308835D01*
X7372027Y-14313745D01*
X7372026Y-14313746D01*
X7338193Y-14351322D01*
X7248661Y-14450757D01*
X7153174Y-14616145D01*
X7094159Y-14797773D01*
X7093469Y-14804334D01*
X7093469Y-14804336D01*
X7083068Y-14903295D01*
X7074197Y-14987701D01*
X7074887Y-14994266D01*
X7092775Y-15164457D01*
X7094159Y-15177629D01*
X7153174Y-15359257D01*
X7248661Y-15524645D01*
X7253079Y-15529552D01*
X7253080Y-15529553D01*
X7335153Y-15620704D01*
X7376448Y-15666567D01*
X7530949Y-15778819D01*
X7536977Y-15781503D01*
X7536979Y-15781504D01*
X7699382Y-15853810D01*
X7705413Y-15856495D01*
X7798814Y-15876348D01*
X7885757Y-15894829D01*
X7885762Y-15894829D01*
X7892214Y-15896201D01*
X8083188Y-15896201D01*
X8089640Y-15894829D01*
X8089645Y-15894829D01*
X8176588Y-15876348D01*
X8269989Y-15856495D01*
X8276020Y-15853810D01*
X8438423Y-15781504D01*
X8438425Y-15781503D01*
X8444453Y-15778819D01*
X8598954Y-15666567D01*
X8603369Y-15661664D01*
X8608281Y-15657241D01*
X8609406Y-15658490D01*
X8662715Y-15625650D01*
X8695901Y-15621201D01*
X11933532Y-15621201D01*
X11944715Y-15621728D01*
X11952208Y-15623403D01*
X11960134Y-15623154D01*
X11960135Y-15623154D01*
X12020285Y-15621263D01*
X12024244Y-15621201D01*
X12052155Y-15621201D01*
X12056090Y-15620704D01*
X12056155Y-15620696D01*
X12067992Y-15619763D01*
X12100250Y-15618749D01*
X12104269Y-15618623D01*
X12112188Y-15618374D01*
X12131642Y-15612722D01*
X12150999Y-15608714D01*
X12163229Y-15607169D01*
X12163230Y-15607169D01*
X12171096Y-15606175D01*
X12178467Y-15603256D01*
X12178469Y-15603256D01*
X12212211Y-15589897D01*
X12223441Y-15586052D01*
X12258282Y-15575930D01*
X12258283Y-15575930D01*
X12265892Y-15573719D01*
X12272711Y-15569686D01*
X12272716Y-15569684D01*
X12283327Y-15563408D01*
X12301075Y-15554713D01*
X12319916Y-15547253D01*
X12355686Y-15521265D01*
X12365606Y-15514749D01*
X12396834Y-15496281D01*
X12396837Y-15496279D01*
X12403661Y-15492243D01*
X12417982Y-15477922D01*
X12433016Y-15465081D01*
X12442993Y-15457832D01*
X12449406Y-15453173D01*
X12477597Y-15419096D01*
X12485587Y-15410317D01*
X22544550Y-5351355D01*
X22606862Y-5317329D01*
X22658762Y-5316979D01*
X22838597Y-5353567D01*
X22843772Y-5353757D01*
X22843774Y-5353757D01*
X23056673Y-5361564D01*
X23056677Y-5361564D01*
X23061837Y-5361753D01*
X23066957Y-5361097D01*
X23066959Y-5361097D01*
X23278288Y-5334025D01*
X23278289Y-5334025D01*
X23283416Y-5333368D01*
X23322434Y-5321662D01*
X23492429Y-5270661D01*
X23492434Y-5270659D01*
X23497384Y-5269174D01*
X23697994Y-5170896D01*
X23879860Y-5041173D01*
X23917825Y-5003341D01*
X23974124Y-4947238D01*
X24038096Y-4883489D01*
X24073665Y-4833990D01*
X24168453Y-4702077D01*
X24169776Y-4703028D01*
X24216645Y-4659857D01*
X24286580Y-4647625D01*
X24352026Y-4675144D01*
X24379875Y-4706994D01*
X24439987Y-4805088D01*
X24586250Y-4973938D01*
X24758126Y-5116632D01*
X24951000Y-5229338D01*
X25159692Y-5309030D01*
X25164760Y-5310061D01*
X25164763Y-5310062D01*
X25256702Y-5328767D01*
X25378597Y-5353567D01*
X25383772Y-5353757D01*
X25383774Y-5353757D01*
X25596673Y-5361564D01*
X25596677Y-5361564D01*
X25601837Y-5361753D01*
X25606957Y-5361097D01*
X25606959Y-5361097D01*
X25818288Y-5334025D01*
X25818289Y-5334025D01*
X25823416Y-5333368D01*
X25862434Y-5321662D01*
X26032429Y-5270661D01*
X26032434Y-5270659D01*
X26037384Y-5269174D01*
X26237994Y-5170896D01*
X26419860Y-5041173D01*
X26457825Y-5003341D01*
X26514124Y-4947238D01*
X26578096Y-4883489D01*
X26613665Y-4833990D01*
X26708453Y-4702077D01*
X26709776Y-4703028D01*
X26756645Y-4659857D01*
X26826580Y-4647625D01*
X26892026Y-4675144D01*
X26919875Y-4706994D01*
X26979987Y-4805088D01*
X27126250Y-4973938D01*
X27298126Y-5116632D01*
X27491000Y-5229338D01*
X27699692Y-5309030D01*
X27704760Y-5310061D01*
X27704763Y-5310062D01*
X27796702Y-5328767D01*
X27918597Y-5353567D01*
X27923772Y-5353757D01*
X27923774Y-5353757D01*
X28136673Y-5361564D01*
X28136677Y-5361564D01*
X28141837Y-5361753D01*
X28146957Y-5361097D01*
X28146959Y-5361097D01*
X28358288Y-5334025D01*
X28358289Y-5334025D01*
X28363416Y-5333368D01*
X28402434Y-5321662D01*
X28572429Y-5270661D01*
X28572434Y-5270659D01*
X28577384Y-5269174D01*
X28777994Y-5170896D01*
X28959860Y-5041173D01*
X28997825Y-5003341D01*
X29054124Y-4947238D01*
X29118096Y-4883489D01*
X29153665Y-4833990D01*
X29248453Y-4702077D01*
X29249776Y-4703028D01*
X29296645Y-4659857D01*
X29366580Y-4647625D01*
X29432026Y-4675144D01*
X29459875Y-4706994D01*
X29519987Y-4805088D01*
X29666250Y-4973938D01*
X29838126Y-5116632D01*
X30031000Y-5229338D01*
X30239692Y-5309030D01*
X30244760Y-5310061D01*
X30244763Y-5310062D01*
X30336702Y-5328767D01*
X30458597Y-5353567D01*
X30463772Y-5353757D01*
X30463774Y-5353757D01*
X30676673Y-5361564D01*
X30676677Y-5361564D01*
X30681837Y-5361753D01*
X30686957Y-5361097D01*
X30686959Y-5361097D01*
X30898288Y-5334025D01*
X30898289Y-5334025D01*
X30903416Y-5333368D01*
X30942434Y-5321662D01*
X31112429Y-5270661D01*
X31112434Y-5270659D01*
X31117384Y-5269174D01*
X31317994Y-5170896D01*
X31499860Y-5041173D01*
X31537825Y-5003341D01*
X31594124Y-4947238D01*
X31658096Y-4883489D01*
X31693665Y-4833990D01*
X31788453Y-4702077D01*
X31789776Y-4703028D01*
X31836645Y-4659857D01*
X31906580Y-4647625D01*
X31972026Y-4675144D01*
X31999875Y-4706994D01*
X32059987Y-4805088D01*
X32206250Y-4973938D01*
X32378126Y-5116632D01*
X32571000Y-5229338D01*
X32779692Y-5309030D01*
X32784760Y-5310061D01*
X32784763Y-5310062D01*
X32876702Y-5328767D01*
X32998597Y-5353567D01*
X33003772Y-5353757D01*
X33003774Y-5353757D01*
X33216673Y-5361564D01*
X33216677Y-5361564D01*
X33221837Y-5361753D01*
X33226957Y-5361097D01*
X33226959Y-5361097D01*
X33438288Y-5334025D01*
X33438289Y-5334025D01*
X33443416Y-5333368D01*
X33482434Y-5321662D01*
X33652429Y-5270661D01*
X33652434Y-5270659D01*
X33657384Y-5269174D01*
X33857994Y-5170896D01*
X34039860Y-5041173D01*
X34077825Y-5003341D01*
X34134124Y-4947238D01*
X34198096Y-4883489D01*
X34233665Y-4833990D01*
X34328453Y-4702077D01*
X34329776Y-4703028D01*
X34376645Y-4659857D01*
X34446580Y-4647625D01*
X34512026Y-4675144D01*
X34539875Y-4706994D01*
X34599987Y-4805088D01*
X34746250Y-4973938D01*
X34918126Y-5116632D01*
X35111000Y-5229338D01*
X35319692Y-5309030D01*
X35324760Y-5310061D01*
X35324763Y-5310062D01*
X35416702Y-5328767D01*
X35538597Y-5353567D01*
X35543772Y-5353757D01*
X35543774Y-5353757D01*
X35756673Y-5361564D01*
X35756677Y-5361564D01*
X35761837Y-5361753D01*
X35766957Y-5361097D01*
X35766959Y-5361097D01*
X35978288Y-5334025D01*
X35978289Y-5334025D01*
X35983416Y-5333368D01*
X36022434Y-5321662D01*
X36192429Y-5270661D01*
X36192434Y-5270659D01*
X36197384Y-5269174D01*
X36397994Y-5170896D01*
X36579860Y-5041173D01*
X36617825Y-5003341D01*
X36674124Y-4947238D01*
X36738096Y-4883489D01*
X36773665Y-4833990D01*
X36868453Y-4702077D01*
X36869776Y-4703028D01*
X36916645Y-4659857D01*
X36986580Y-4647625D01*
X37052026Y-4675144D01*
X37079875Y-4706994D01*
X37139987Y-4805088D01*
X37286250Y-4973938D01*
X37458126Y-5116632D01*
X37462594Y-5119243D01*
X37462597Y-5119245D01*
X37483933Y-5131713D01*
X37532656Y-5183351D01*
X37545727Y-5253134D01*
X37518995Y-5318906D01*
X37460948Y-5359784D01*
X37420362Y-5366500D01*
X37078768Y-5366500D01*
X37067585Y-5365973D01*
X37060092Y-5364298D01*
X37052166Y-5364547D01*
X37052165Y-5364547D01*
X36992002Y-5366438D01*
X36988044Y-5366500D01*
X36960144Y-5366500D01*
X36956154Y-5367004D01*
X36944320Y-5367936D01*
X36900111Y-5369326D01*
X36892495Y-5371539D01*
X36892493Y-5371539D01*
X36880652Y-5374979D01*
X36861293Y-5378988D01*
X36859983Y-5379154D01*
X36841203Y-5381526D01*
X36833837Y-5384442D01*
X36833831Y-5384444D01*
X36800098Y-5397800D01*
X36788868Y-5401645D01*
X36772353Y-5406443D01*
X36746407Y-5413981D01*
X36739584Y-5418016D01*
X36728966Y-5424295D01*
X36711213Y-5432992D01*
X36703568Y-5436019D01*
X36692383Y-5440448D01*
X36685968Y-5445109D01*
X36656612Y-5466437D01*
X36646695Y-5472951D01*
X36608638Y-5495458D01*
X36594317Y-5509779D01*
X36579284Y-5522619D01*
X36562893Y-5534528D01*
X36557842Y-5540634D01*
X36534702Y-5568605D01*
X36526712Y-5577384D01*
X27354481Y-14749614D01*
X27292169Y-14783640D01*
X27221354Y-14778575D01*
X27204494Y-14770828D01*
X27178789Y-14756638D01*
X27173920Y-14754914D01*
X27173916Y-14754912D01*
X26973087Y-14683795D01*
X26973083Y-14683794D01*
X26968212Y-14682069D01*
X26963119Y-14681162D01*
X26963116Y-14681161D01*
X26753373Y-14643800D01*
X26753367Y-14643799D01*
X26748284Y-14642894D01*
X26674452Y-14641992D01*
X26530081Y-14640228D01*
X26530079Y-14640228D01*
X26524911Y-14640165D01*
X26304091Y-14673955D01*
X26091756Y-14743357D01*
X26061443Y-14759137D01*
X25917975Y-14833822D01*
X25893607Y-14846507D01*
X25889474Y-14849610D01*
X25889471Y-14849612D01*
X25719100Y-14977530D01*
X25714965Y-14980635D01*
X25711393Y-14984373D01*
X25603729Y-15097037D01*
X25560629Y-15142138D01*
X25453201Y-15299621D01*
X25398293Y-15344621D01*
X25327768Y-15352792D01*
X25264021Y-15321538D01*
X25243324Y-15297054D01*
X25162822Y-15172617D01*
X25162820Y-15172614D01*
X25160014Y-15168277D01*
X25009670Y-15003051D01*
X25005619Y-14999852D01*
X25005615Y-14999848D01*
X24838414Y-14867800D01*
X24838410Y-14867798D01*
X24834359Y-14864598D01*
X24829831Y-14862098D01*
X24713988Y-14798150D01*
X24638789Y-14756638D01*
X24633920Y-14754914D01*
X24633916Y-14754912D01*
X24433087Y-14683795D01*
X24433083Y-14683794D01*
X24428212Y-14682069D01*
X24423119Y-14681162D01*
X24423116Y-14681161D01*
X24213373Y-14643800D01*
X24213367Y-14643799D01*
X24208284Y-14642894D01*
X24134452Y-14641992D01*
X23990081Y-14640228D01*
X23990079Y-14640228D01*
X23984911Y-14640165D01*
X23764091Y-14673955D01*
X23551756Y-14743357D01*
X23521443Y-14759137D01*
X23377975Y-14833822D01*
X23353607Y-14846507D01*
X23349474Y-14849610D01*
X23349471Y-14849612D01*
X23179100Y-14977530D01*
X23174965Y-14980635D01*
X23171393Y-14984373D01*
X23063729Y-15097037D01*
X23020629Y-15142138D01*
X22913201Y-15299621D01*
X22858293Y-15344621D01*
X22787768Y-15352792D01*
X22724021Y-15321538D01*
X22703324Y-15297054D01*
X22622822Y-15172617D01*
X22622820Y-15172614D01*
X22620014Y-15168277D01*
X22469670Y-15003051D01*
X22465619Y-14999852D01*
X22465615Y-14999848D01*
X22298414Y-14867800D01*
X22298410Y-14867798D01*
X22294359Y-14864598D01*
X22289831Y-14862098D01*
X22173988Y-14798150D01*
X22098789Y-14756638D01*
X22093920Y-14754914D01*
X22093916Y-14754912D01*
X21893087Y-14683795D01*
X21893083Y-14683794D01*
X21888212Y-14682069D01*
X21883119Y-14681162D01*
X21883116Y-14681161D01*
X21673373Y-14643800D01*
X21673367Y-14643799D01*
X21668284Y-14642894D01*
X21594452Y-14641992D01*
X21450081Y-14640228D01*
X21450079Y-14640228D01*
X21444911Y-14640165D01*
X21224091Y-14673955D01*
X21011756Y-14743357D01*
X20981443Y-14759137D01*
X20837975Y-14833822D01*
X20813607Y-14846507D01*
X20809474Y-14849610D01*
X20809471Y-14849612D01*
X20639100Y-14977530D01*
X20634965Y-14980635D01*
X20578537Y-15039684D01*
X20554283Y-15065064D01*
X20492759Y-15100494D01*
X20421846Y-15097037D01*
X20364060Y-15055791D01*
X20345207Y-15022243D01*
X20303767Y-14911703D01*
X20300615Y-14903295D01*
X20213261Y-14786739D01*
X20096705Y-14699385D01*
X19960316Y-14648255D01*
X19898134Y-14641500D01*
X18101866Y-14641500D01*
X18039684Y-14648255D01*
X17903295Y-14699385D01*
X17786739Y-14786739D01*
X17699385Y-14903295D01*
X17648255Y-15039684D01*
X17641500Y-15101866D01*
X17641500Y-16898134D01*
X17648255Y-16960316D01*
X17699385Y-17096705D01*
X17786739Y-17213261D01*
X17903295Y-17300615D01*
X18039684Y-17351745D01*
X18101866Y-17358500D01*
X19898134Y-17358500D01*
X19960316Y-17351745D01*
X20096705Y-17300615D01*
X20213261Y-17213261D01*
X20300615Y-17096705D01*
X20322799Y-17037529D01*
X20344598Y-16979382D01*
X20387240Y-16922618D01*
X20453802Y-16897918D01*
X20523150Y-16913126D01*
X20557817Y-16941114D01*
X20586250Y-16973938D01*
X20758126Y-17116632D01*
X20951000Y-17229338D01*
X21159692Y-17309030D01*
X21164760Y-17310061D01*
X21164763Y-17310062D01*
X21272017Y-17331883D01*
X21378597Y-17353567D01*
X21383772Y-17353757D01*
X21383774Y-17353757D01*
X21596673Y-17361564D01*
X21596677Y-17361564D01*
X21601837Y-17361753D01*
X21606957Y-17361097D01*
X21606959Y-17361097D01*
X21818288Y-17334025D01*
X21818289Y-17334025D01*
X21823416Y-17333368D01*
X21862434Y-17321662D01*
X22032429Y-17270661D01*
X22032434Y-17270659D01*
X22037384Y-17269174D01*
X22237994Y-17170896D01*
X22419860Y-17041173D01*
X22578096Y-16883489D01*
X22708453Y-16702077D01*
X22709776Y-16703028D01*
X22756645Y-16659857D01*
X22826580Y-16647625D01*
X22892026Y-16675144D01*
X22919875Y-16706994D01*
X22979987Y-16805088D01*
X23126250Y-16973938D01*
X23298126Y-17116632D01*
X23491000Y-17229338D01*
X23699692Y-17309030D01*
X23704760Y-17310061D01*
X23704763Y-17310062D01*
X23812017Y-17331883D01*
X23918597Y-17353567D01*
X23923772Y-17353757D01*
X23923774Y-17353757D01*
X24136673Y-17361564D01*
X24136677Y-17361564D01*
X24141837Y-17361753D01*
X24146957Y-17361097D01*
X24146959Y-17361097D01*
X24358288Y-17334025D01*
X24358289Y-17334025D01*
X24363416Y-17333368D01*
X24402434Y-17321662D01*
X24572429Y-17270661D01*
X24572434Y-17270659D01*
X24577384Y-17269174D01*
X24777994Y-17170896D01*
X24959860Y-17041173D01*
X25118096Y-16883489D01*
X25248453Y-16702077D01*
X25249776Y-16703028D01*
X25296645Y-16659857D01*
X25366580Y-16647625D01*
X25432026Y-16675144D01*
X25459875Y-16706994D01*
X25519987Y-16805088D01*
X25666250Y-16973938D01*
X25838126Y-17116632D01*
X26031000Y-17229338D01*
X26239692Y-17309030D01*
X26244760Y-17310061D01*
X26244763Y-17310062D01*
X26352017Y-17331883D01*
X26458597Y-17353567D01*
X26463772Y-17353757D01*
X26463774Y-17353757D01*
X26676673Y-17361564D01*
X26676677Y-17361564D01*
X26681837Y-17361753D01*
X26686957Y-17361097D01*
X26686959Y-17361097D01*
X26898288Y-17334025D01*
X26898289Y-17334025D01*
X26903416Y-17333368D01*
X26942434Y-17321662D01*
X27112429Y-17270661D01*
X27112434Y-17270659D01*
X27117384Y-17269174D01*
X27317994Y-17170896D01*
X27499860Y-17041173D01*
X27658096Y-16883489D01*
X27788453Y-16702077D01*
X27789776Y-16703028D01*
X27836645Y-16659857D01*
X27906580Y-16647625D01*
X27972026Y-16675144D01*
X27999875Y-16706994D01*
X28059987Y-16805088D01*
X28206250Y-16973938D01*
X28378126Y-17116632D01*
X28571000Y-17229338D01*
X28779692Y-17309030D01*
X28784760Y-17310061D01*
X28784763Y-17310062D01*
X28892017Y-17331883D01*
X28998597Y-17353567D01*
X29003772Y-17353757D01*
X29003774Y-17353757D01*
X29216673Y-17361564D01*
X29216677Y-17361564D01*
X29221837Y-17361753D01*
X29226957Y-17361097D01*
X29226959Y-17361097D01*
X29438288Y-17334025D01*
X29438289Y-17334025D01*
X29443416Y-17333368D01*
X29482434Y-17321662D01*
X29652429Y-17270661D01*
X29652434Y-17270659D01*
X29657384Y-17269174D01*
X29857994Y-17170896D01*
X30039860Y-17041173D01*
X30198096Y-16883489D01*
X30328453Y-16702077D01*
X30329776Y-16703028D01*
X30376645Y-16659857D01*
X30446580Y-16647625D01*
X30512026Y-16675144D01*
X30539875Y-16706994D01*
X30599987Y-16805088D01*
X30746250Y-16973938D01*
X30918126Y-17116632D01*
X31111000Y-17229338D01*
X31319692Y-17309030D01*
X31324760Y-17310061D01*
X31324763Y-17310062D01*
X31432017Y-17331883D01*
X31538597Y-17353567D01*
X31543772Y-17353757D01*
X31543774Y-17353757D01*
X31756673Y-17361564D01*
X31756677Y-17361564D01*
X31761837Y-17361753D01*
X31766957Y-17361097D01*
X31766959Y-17361097D01*
X31978288Y-17334025D01*
X31978289Y-17334025D01*
X31983416Y-17333368D01*
X32022434Y-17321662D01*
X32192429Y-17270661D01*
X32192434Y-17270659D01*
X32197384Y-17269174D01*
X32397994Y-17170896D01*
X32579860Y-17041173D01*
X32738096Y-16883489D01*
X32868453Y-16702077D01*
X32869776Y-16703028D01*
X32916645Y-16659857D01*
X32986580Y-16647625D01*
X33052026Y-16675144D01*
X33079875Y-16706994D01*
X33139987Y-16805088D01*
X33286250Y-16973938D01*
X33458126Y-17116632D01*
X33651000Y-17229338D01*
X33859692Y-17309030D01*
X33864760Y-17310061D01*
X33864763Y-17310062D01*
X33972017Y-17331883D01*
X34078597Y-17353567D01*
X34083772Y-17353757D01*
X34083774Y-17353757D01*
X34296673Y-17361564D01*
X34296677Y-17361564D01*
X34301837Y-17361753D01*
X34306957Y-17361097D01*
X34306959Y-17361097D01*
X34518288Y-17334025D01*
X34518289Y-17334025D01*
X34523416Y-17333368D01*
X34562434Y-17321662D01*
X34732429Y-17270661D01*
X34732434Y-17270659D01*
X34737384Y-17269174D01*
X34937994Y-17170896D01*
X35119860Y-17041173D01*
X35278096Y-16883489D01*
X35408453Y-16702077D01*
X35409776Y-16703028D01*
X35456645Y-16659857D01*
X35526580Y-16647625D01*
X35592026Y-16675144D01*
X35619875Y-16706994D01*
X35679987Y-16805088D01*
X35826250Y-16973938D01*
X35998126Y-17116632D01*
X36191000Y-17229338D01*
X36399692Y-17309030D01*
X36404760Y-17310061D01*
X36404763Y-17310062D01*
X36512017Y-17331883D01*
X36618597Y-17353567D01*
X36623772Y-17353757D01*
X36623774Y-17353757D01*
X36836673Y-17361564D01*
X36836677Y-17361564D01*
X36841837Y-17361753D01*
X36846957Y-17361097D01*
X36846959Y-17361097D01*
X37058288Y-17334025D01*
X37058289Y-17334025D01*
X37063416Y-17333368D01*
X37102434Y-17321662D01*
X37272429Y-17270661D01*
X37272434Y-17270659D01*
X37277384Y-17269174D01*
X37477994Y-17170896D01*
X37659860Y-17041173D01*
X37818096Y-16883489D01*
X37948453Y-16702077D01*
X37949776Y-16703028D01*
X37996645Y-16659857D01*
X38066580Y-16647625D01*
X38132026Y-16675144D01*
X38159875Y-16706994D01*
X38219987Y-16805088D01*
X38366250Y-16973938D01*
X38538126Y-17116632D01*
X38731000Y-17229338D01*
X38939692Y-17309030D01*
X38944760Y-17310061D01*
X38944763Y-17310062D01*
X39052017Y-17331883D01*
X39158597Y-17353567D01*
X39163772Y-17353757D01*
X39163774Y-17353757D01*
X39376673Y-17361564D01*
X39376677Y-17361564D01*
X39381837Y-17361753D01*
X39386957Y-17361097D01*
X39386959Y-17361097D01*
X39598288Y-17334025D01*
X39598289Y-17334025D01*
X39603416Y-17333368D01*
X39642434Y-17321662D01*
X39812429Y-17270661D01*
X39812434Y-17270659D01*
X39817384Y-17269174D01*
X40017994Y-17170896D01*
X40199860Y-17041173D01*
X40358096Y-16883489D01*
X40488453Y-16702077D01*
X40489776Y-16703028D01*
X40536645Y-16659857D01*
X40606580Y-16647625D01*
X40672026Y-16675144D01*
X40699875Y-16706994D01*
X40759987Y-16805088D01*
X40906250Y-16973938D01*
X41078126Y-17116632D01*
X41271000Y-17229338D01*
X41479692Y-17309030D01*
X41484760Y-17310061D01*
X41484763Y-17310062D01*
X41592017Y-17331883D01*
X41698597Y-17353567D01*
X41703771Y-17353757D01*
X41703773Y-17353757D01*
X41765898Y-17356035D01*
X41845650Y-17358959D01*
X41912991Y-17381443D01*
X41957487Y-17436767D01*
X41965009Y-17507364D01*
X41930127Y-17573969D01*
X33399011Y-26105084D01*
X33336699Y-26139110D01*
X33309916Y-26141989D01*
X8979160Y-26141989D01*
X8967976Y-26141462D01*
X8960488Y-26139788D01*
X8952565Y-26140037D01*
X8892430Y-26141927D01*
X8888472Y-26141989D01*
X8860541Y-26141989D01*
X8856626Y-26142484D01*
X8856622Y-26142484D01*
X8856564Y-26142492D01*
X8856535Y-26142495D01*
X8844693Y-26143428D01*
X8800507Y-26144816D01*
X8783141Y-26149861D01*
X8781055Y-26150467D01*
X8761703Y-26154475D01*
X8749465Y-26156021D01*
X8749463Y-26156022D01*
X8741600Y-26157015D01*
X8700483Y-26173295D01*
X8689282Y-26177130D01*
X8646803Y-26189471D01*
X8639984Y-26193504D01*
X8639979Y-26193506D01*
X8629368Y-26199782D01*
X8611618Y-26208479D01*
X8592780Y-26215937D01*
X8586364Y-26220598D01*
X8586363Y-26220599D01*
X8557022Y-26241917D01*
X8547098Y-26248436D01*
X8515857Y-26266911D01*
X8515852Y-26266915D01*
X8509034Y-26270947D01*
X8494710Y-26285271D01*
X8479678Y-26298110D01*
X8463290Y-26310017D01*
X8435109Y-26344082D01*
X8427119Y-26352862D01*
X7210165Y-27569816D01*
X7147268Y-27603968D01*
X7021475Y-27630706D01*
X7015445Y-27633391D01*
X7015444Y-27633391D01*
X6853041Y-27705697D01*
X6853039Y-27705698D01*
X6847011Y-27708382D01*
X6692510Y-27820634D01*
X6564723Y-27962556D01*
X6469236Y-28127944D01*
X6410221Y-28309572D01*
X6409531Y-28316133D01*
X6409531Y-28316135D01*
X6404047Y-28368311D01*
X6390259Y-28499500D01*
X6410221Y-28689428D01*
X6469236Y-28871056D01*
X6564723Y-29036444D01*
X6692510Y-29178366D01*
X6847011Y-29290618D01*
X6853039Y-29293302D01*
X6853041Y-29293303D01*
X6905446Y-29316635D01*
X7021475Y-29368294D01*
X7114876Y-29388147D01*
X7201819Y-29406628D01*
X7201824Y-29406628D01*
X7208276Y-29408000D01*
X7399250Y-29408000D01*
X7405702Y-29406628D01*
X7405707Y-29406628D01*
X7492650Y-29388147D01*
X7586051Y-29368294D01*
X7702080Y-29316635D01*
X7754485Y-29293303D01*
X7754487Y-29293302D01*
X7760515Y-29290618D01*
X7915016Y-29178366D01*
X8042803Y-29036444D01*
X8138290Y-28871056D01*
X8197305Y-28689428D01*
X8217267Y-28499500D01*
X8217245Y-28499291D01*
X8236579Y-28433445D01*
X8290235Y-28386952D01*
X8360509Y-28376848D01*
X8416638Y-28399630D01*
X8543248Y-28491618D01*
X8549276Y-28494302D01*
X8549278Y-28494303D01*
X8616489Y-28524227D01*
X8654335Y-28550239D01*
X11720854Y-31616758D01*
X11728398Y-31625048D01*
X11732511Y-31631529D01*
X11738288Y-31636954D01*
X11782178Y-31678169D01*
X11785020Y-31680924D01*
X11804741Y-31700645D01*
X11807936Y-31703123D01*
X11816958Y-31710829D01*
X11849190Y-31741097D01*
X11856139Y-31744917D01*
X11866943Y-31750857D01*
X11883467Y-31761710D01*
X11899470Y-31774124D01*
X11940054Y-31791687D01*
X11950684Y-31796894D01*
X11989451Y-31818206D01*
X11997128Y-31820177D01*
X11997133Y-31820179D01*
X12009069Y-31823243D01*
X12027777Y-31829648D01*
X12046366Y-31837692D01*
X12054194Y-31838932D01*
X12054201Y-31838934D01*
X12090035Y-31844610D01*
X12101655Y-31847016D01*
X12133470Y-31855184D01*
X12144481Y-31858011D01*
X12164735Y-31858011D01*
X12184445Y-31859562D01*
X12204454Y-31862731D01*
X12212346Y-31861985D01*
X12231091Y-31860213D01*
X12248473Y-31858570D01*
X12260330Y-31858011D01*
X31636722Y-31858011D01*
X31647905Y-31858538D01*
X31655398Y-31860213D01*
X31663324Y-31859964D01*
X31663325Y-31859964D01*
X31723475Y-31858073D01*
X31727434Y-31858011D01*
X31755345Y-31858011D01*
X31759280Y-31857514D01*
X31759345Y-31857506D01*
X31771182Y-31856573D01*
X31803440Y-31855559D01*
X31807459Y-31855433D01*
X31815378Y-31855184D01*
X31834832Y-31849532D01*
X31854189Y-31845524D01*
X31866419Y-31843979D01*
X31866420Y-31843979D01*
X31874286Y-31842985D01*
X31881657Y-31840066D01*
X31881659Y-31840066D01*
X31915401Y-31826707D01*
X31926631Y-31822862D01*
X31961472Y-31812740D01*
X31961473Y-31812740D01*
X31969082Y-31810529D01*
X31975901Y-31806496D01*
X31975906Y-31806494D01*
X31986517Y-31800218D01*
X32004265Y-31791523D01*
X32023106Y-31784063D01*
X32043476Y-31769264D01*
X32058876Y-31758075D01*
X32068796Y-31751559D01*
X32100024Y-31733091D01*
X32100027Y-31733089D01*
X32106851Y-31729053D01*
X32121172Y-31714732D01*
X32136206Y-31701891D01*
X32137921Y-31700645D01*
X32152596Y-31689983D01*
X32180787Y-31655906D01*
X32188777Y-31647127D01*
X46484550Y-17351355D01*
X46546862Y-17317329D01*
X46598762Y-17316979D01*
X46778597Y-17353567D01*
X46783772Y-17353757D01*
X46783774Y-17353757D01*
X46996673Y-17361564D01*
X46996677Y-17361564D01*
X47001837Y-17361753D01*
X47006957Y-17361097D01*
X47006959Y-17361097D01*
X47218288Y-17334025D01*
X47218289Y-17334025D01*
X47223416Y-17333368D01*
X47262434Y-17321662D01*
X47432429Y-17270661D01*
X47432434Y-17270659D01*
X47437384Y-17269174D01*
X47637994Y-17170896D01*
X47819860Y-17041173D01*
X47978096Y-16883489D01*
X48108453Y-16702077D01*
X48129320Y-16659857D01*
X48205136Y-16506453D01*
X48205137Y-16506451D01*
X48207430Y-16501811D01*
X48272370Y-16288069D01*
X48301529Y-16066590D01*
X48303156Y-16000000D01*
X48284852Y-15777361D01*
X48230431Y-15560702D01*
X48141354Y-15355840D01*
X48020014Y-15168277D01*
X47869670Y-15003051D01*
X47865619Y-14999852D01*
X47865615Y-14999848D01*
X47698414Y-14867800D01*
X47698410Y-14867798D01*
X47694359Y-14864598D01*
X47689831Y-14862098D01*
X47573988Y-14798150D01*
X47498789Y-14756638D01*
X47493920Y-14754914D01*
X47493916Y-14754912D01*
X47293087Y-14683795D01*
X47293083Y-14683794D01*
X47288212Y-14682069D01*
X47283119Y-14681162D01*
X47283116Y-14681161D01*
X47073373Y-14643800D01*
X47073367Y-14643799D01*
X47068284Y-14642894D01*
X46994452Y-14641992D01*
X46850081Y-14640228D01*
X46850079Y-14640228D01*
X46844911Y-14640165D01*
X46624091Y-14673955D01*
X46411756Y-14743357D01*
X46381443Y-14759137D01*
X46237975Y-14833822D01*
X46213607Y-14846507D01*
X46209474Y-14849610D01*
X46209471Y-14849612D01*
X46039100Y-14977530D01*
X46034965Y-14980635D01*
X46031393Y-14984373D01*
X45923729Y-15097037D01*
X45880629Y-15142138D01*
X45773201Y-15299621D01*
X45718293Y-15344621D01*
X45647768Y-15352792D01*
X45584021Y-15321538D01*
X45563324Y-15297054D01*
X45482822Y-15172617D01*
X45482820Y-15172614D01*
X45480014Y-15168277D01*
X45329670Y-15003051D01*
X45325619Y-14999852D01*
X45325615Y-14999848D01*
X45158414Y-14867800D01*
X45158410Y-14867798D01*
X45154359Y-14864598D01*
X45149831Y-14862098D01*
X45033988Y-14798150D01*
X44958789Y-14756638D01*
X44953920Y-14754914D01*
X44953916Y-14754912D01*
X44753087Y-14683795D01*
X44753083Y-14683794D01*
X44748212Y-14682069D01*
X44743119Y-14681162D01*
X44743116Y-14681161D01*
X44533373Y-14643800D01*
X44533367Y-14643799D01*
X44528284Y-14642894D01*
X44454452Y-14641992D01*
X44310081Y-14640228D01*
X44310079Y-14640228D01*
X44304911Y-14640165D01*
X44084091Y-14673955D01*
X43871756Y-14743357D01*
X43841443Y-14759137D01*
X43697975Y-14833822D01*
X43673607Y-14846507D01*
X43669474Y-14849610D01*
X43669471Y-14849612D01*
X43499100Y-14977530D01*
X43494965Y-14980635D01*
X43491393Y-14984373D01*
X43383729Y-15097037D01*
X43340629Y-15142138D01*
X43233201Y-15299621D01*
X43178293Y-15344621D01*
X43107768Y-15352792D01*
X43044021Y-15321538D01*
X43023324Y-15297054D01*
X42942822Y-15172617D01*
X42942820Y-15172614D01*
X42940014Y-15168277D01*
X42789670Y-15003051D01*
X42785619Y-14999852D01*
X42785615Y-14999848D01*
X42618414Y-14867800D01*
X42618410Y-14867798D01*
X42614359Y-14864598D01*
X42609831Y-14862098D01*
X42493988Y-14798150D01*
X42418789Y-14756638D01*
X42413920Y-14754914D01*
X42413916Y-14754912D01*
X42213087Y-14683795D01*
X42213083Y-14683794D01*
X42208212Y-14682069D01*
X42203119Y-14681162D01*
X42203116Y-14681161D01*
X41993373Y-14643800D01*
X41993367Y-14643799D01*
X41988284Y-14642894D01*
X41914452Y-14641992D01*
X41770081Y-14640228D01*
X41770079Y-14640228D01*
X41764911Y-14640165D01*
X41544091Y-14673955D01*
X41331756Y-14743357D01*
X41301443Y-14759137D01*
X41157975Y-14833822D01*
X41133607Y-14846507D01*
X41129474Y-14849610D01*
X41129471Y-14849612D01*
X40959100Y-14977530D01*
X40954965Y-14980635D01*
X40951393Y-14984373D01*
X40843729Y-15097037D01*
X40800629Y-15142138D01*
X40693201Y-15299621D01*
X40638293Y-15344621D01*
X40567768Y-15352792D01*
X40504021Y-15321538D01*
X40483324Y-15297054D01*
X40402822Y-15172617D01*
X40402820Y-15172614D01*
X40400014Y-15168277D01*
X40249670Y-15003051D01*
X40245619Y-14999852D01*
X40245615Y-14999848D01*
X40078414Y-14867800D01*
X40078410Y-14867798D01*
X40074359Y-14864598D01*
X40069835Y-14862101D01*
X40069831Y-14862098D01*
X40018608Y-14833822D01*
X39968636Y-14783390D01*
X39953500Y-14723513D01*
X39953500Y-12994594D01*
X39973502Y-12926473D01*
X39990405Y-12905499D01*
X43977899Y-8918005D01*
X44040211Y-8883979D01*
X44066994Y-8881100D01*
X48961186Y-8881100D01*
X49029307Y-8901102D01*
X49075800Y-8954758D01*
X49085661Y-9000088D01*
X49086496Y-9000000D01*
X49106458Y-9189928D01*
X49165473Y-9371556D01*
X49260960Y-9536944D01*
X49334137Y-9618215D01*
X49364853Y-9682221D01*
X49366500Y-9702524D01*
X49366500Y-31585406D01*
X49346498Y-31653527D01*
X49329595Y-31674501D01*
X47399500Y-33604595D01*
X47337188Y-33638621D01*
X47310405Y-33641500D01*
X46001866Y-33641500D01*
X45939684Y-33648255D01*
X45803295Y-33699385D01*
X45686739Y-33786739D01*
X45599385Y-33903295D01*
X45596233Y-33911703D01*
X45554919Y-34021907D01*
X45512277Y-34078671D01*
X45445716Y-34103371D01*
X45376367Y-34088163D01*
X45343743Y-34062476D01*
X45293151Y-34006875D01*
X45293142Y-34006866D01*
X45289670Y-34003051D01*
X45285619Y-33999852D01*
X45285615Y-33999848D01*
X45118414Y-33867800D01*
X45118410Y-33867798D01*
X45114359Y-33864598D01*
X45078028Y-33844542D01*
X45062136Y-33835769D01*
X44918789Y-33756638D01*
X44913920Y-33754914D01*
X44913916Y-33754912D01*
X44713087Y-33683795D01*
X44713083Y-33683794D01*
X44708212Y-33682069D01*
X44703119Y-33681162D01*
X44703116Y-33681161D01*
X44493373Y-33643800D01*
X44493367Y-33643799D01*
X44488284Y-33642894D01*
X44414452Y-33641992D01*
X44270081Y-33640228D01*
X44270079Y-33640228D01*
X44264911Y-33640165D01*
X44044091Y-33673955D01*
X43831756Y-33743357D01*
X43633607Y-33846507D01*
X43629474Y-33849610D01*
X43629471Y-33849612D01*
X43459100Y-33977530D01*
X43454965Y-33980635D01*
X43429541Y-34007240D01*
X43361280Y-34078671D01*
X43300629Y-34142138D01*
X43193201Y-34299621D01*
X43138293Y-34344621D01*
X43067768Y-34352792D01*
X43004021Y-34321538D01*
X42983324Y-34297054D01*
X42902822Y-34172617D01*
X42902820Y-34172614D01*
X42900014Y-34168277D01*
X42749670Y-34003051D01*
X42745619Y-33999852D01*
X42745615Y-33999848D01*
X42578414Y-33867800D01*
X42578410Y-33867798D01*
X42574359Y-33864598D01*
X42538028Y-33844542D01*
X42522136Y-33835769D01*
X42378789Y-33756638D01*
X42373920Y-33754914D01*
X42373916Y-33754912D01*
X42173087Y-33683795D01*
X42173083Y-33683794D01*
X42168212Y-33682069D01*
X42163119Y-33681162D01*
X42163116Y-33681161D01*
X41953373Y-33643800D01*
X41953367Y-33643799D01*
X41948284Y-33642894D01*
X41874452Y-33641992D01*
X41730081Y-33640228D01*
X41730079Y-33640228D01*
X41724911Y-33640165D01*
X41504091Y-33673955D01*
X41291756Y-33743357D01*
X41093607Y-33846507D01*
X41089474Y-33849610D01*
X41089471Y-33849612D01*
X40919100Y-33977530D01*
X40914965Y-33980635D01*
X40889541Y-34007240D01*
X40821280Y-34078671D01*
X40760629Y-34142138D01*
X40653201Y-34299621D01*
X40598293Y-34344621D01*
X40527768Y-34352792D01*
X40464021Y-34321538D01*
X40443324Y-34297054D01*
X40362822Y-34172617D01*
X40362820Y-34172614D01*
X40360014Y-34168277D01*
X40209670Y-34003051D01*
X40205619Y-33999852D01*
X40205615Y-33999848D01*
X40038414Y-33867800D01*
X40038410Y-33867798D01*
X40034359Y-33864598D01*
X39998028Y-33844542D01*
X39982136Y-33835769D01*
X39838789Y-33756638D01*
X39833920Y-33754914D01*
X39833916Y-33754912D01*
X39633087Y-33683795D01*
X39633083Y-33683794D01*
X39628212Y-33682069D01*
X39623119Y-33681162D01*
X39623116Y-33681161D01*
X39413373Y-33643800D01*
X39413367Y-33643799D01*
X39408284Y-33642894D01*
X39334452Y-33641992D01*
X39190081Y-33640228D01*
X39190079Y-33640228D01*
X39184911Y-33640165D01*
X38964091Y-33673955D01*
X38751756Y-33743357D01*
X38553607Y-33846507D01*
X38549474Y-33849610D01*
X38549471Y-33849612D01*
X38379100Y-33977530D01*
X38374965Y-33980635D01*
X38349541Y-34007240D01*
X38281280Y-34078671D01*
X38220629Y-34142138D01*
X38113201Y-34299621D01*
X38058293Y-34344621D01*
X37987768Y-34352792D01*
X37924021Y-34321538D01*
X37903324Y-34297054D01*
X37822822Y-34172617D01*
X37822820Y-34172614D01*
X37820014Y-34168277D01*
X37669670Y-34003051D01*
X37665619Y-33999852D01*
X37665615Y-33999848D01*
X37498414Y-33867800D01*
X37498410Y-33867798D01*
X37494359Y-33864598D01*
X37458028Y-33844542D01*
X37442136Y-33835769D01*
X37298789Y-33756638D01*
X37293920Y-33754914D01*
X37293916Y-33754912D01*
X37093087Y-33683795D01*
X37093083Y-33683794D01*
X37088212Y-33682069D01*
X37083119Y-33681162D01*
X37083116Y-33681161D01*
X36873373Y-33643800D01*
X36873367Y-33643799D01*
X36868284Y-33642894D01*
X36794452Y-33641992D01*
X36650081Y-33640228D01*
X36650079Y-33640228D01*
X36644911Y-33640165D01*
X36424091Y-33673955D01*
X36211756Y-33743357D01*
X36013607Y-33846507D01*
X36009474Y-33849610D01*
X36009471Y-33849612D01*
X35839100Y-33977530D01*
X35834965Y-33980635D01*
X35809541Y-34007240D01*
X35741280Y-34078671D01*
X35680629Y-34142138D01*
X35573201Y-34299621D01*
X35518293Y-34344621D01*
X35447768Y-34352792D01*
X35384021Y-34321538D01*
X35363324Y-34297054D01*
X35282822Y-34172617D01*
X35282820Y-34172614D01*
X35280014Y-34168277D01*
X35129670Y-34003051D01*
X35125619Y-33999852D01*
X35125615Y-33999848D01*
X34958414Y-33867800D01*
X34958410Y-33867798D01*
X34954359Y-33864598D01*
X34918028Y-33844542D01*
X34902136Y-33835769D01*
X34758789Y-33756638D01*
X34753920Y-33754914D01*
X34753916Y-33754912D01*
X34553087Y-33683795D01*
X34553083Y-33683794D01*
X34548212Y-33682069D01*
X34543119Y-33681162D01*
X34543116Y-33681161D01*
X34333373Y-33643800D01*
X34333367Y-33643799D01*
X34328284Y-33642894D01*
X34254452Y-33641992D01*
X34110081Y-33640228D01*
X34110079Y-33640228D01*
X34104911Y-33640165D01*
X33884091Y-33673955D01*
X33671756Y-33743357D01*
X33473607Y-33846507D01*
X33469474Y-33849610D01*
X33469471Y-33849612D01*
X33299100Y-33977530D01*
X33294965Y-33980635D01*
X33269541Y-34007240D01*
X33201280Y-34078671D01*
X33140629Y-34142138D01*
X33033201Y-34299621D01*
X32978293Y-34344621D01*
X32907768Y-34352792D01*
X32844021Y-34321538D01*
X32823324Y-34297054D01*
X32742822Y-34172617D01*
X32742820Y-34172614D01*
X32740014Y-34168277D01*
X32589670Y-34003051D01*
X32585619Y-33999852D01*
X32585615Y-33999848D01*
X32418414Y-33867800D01*
X32418410Y-33867798D01*
X32414359Y-33864598D01*
X32378028Y-33844542D01*
X32362136Y-33835769D01*
X32218789Y-33756638D01*
X32213920Y-33754914D01*
X32213916Y-33754912D01*
X32013087Y-33683795D01*
X32013083Y-33683794D01*
X32008212Y-33682069D01*
X32003119Y-33681162D01*
X32003116Y-33681161D01*
X31793373Y-33643800D01*
X31793367Y-33643799D01*
X31788284Y-33642894D01*
X31714452Y-33641992D01*
X31570081Y-33640228D01*
X31570079Y-33640228D01*
X31564911Y-33640165D01*
X31344091Y-33673955D01*
X31131756Y-33743357D01*
X30933607Y-33846507D01*
X30929474Y-33849610D01*
X30929471Y-33849612D01*
X30759100Y-33977530D01*
X30754965Y-33980635D01*
X30729541Y-34007240D01*
X30661280Y-34078671D01*
X30600629Y-34142138D01*
X30493201Y-34299621D01*
X30438293Y-34344621D01*
X30367768Y-34352792D01*
X30304021Y-34321538D01*
X30283324Y-34297054D01*
X30202822Y-34172617D01*
X30202820Y-34172614D01*
X30200014Y-34168277D01*
X30049670Y-34003051D01*
X30045619Y-33999852D01*
X30045615Y-33999848D01*
X29878414Y-33867800D01*
X29878410Y-33867798D01*
X29874359Y-33864598D01*
X29838028Y-33844542D01*
X29822136Y-33835769D01*
X29678789Y-33756638D01*
X29673920Y-33754914D01*
X29673916Y-33754912D01*
X29473087Y-33683795D01*
X29473083Y-33683794D01*
X29468212Y-33682069D01*
X29463119Y-33681162D01*
X29463116Y-33681161D01*
X29253373Y-33643800D01*
X29253367Y-33643799D01*
X29248284Y-33642894D01*
X29174452Y-33641992D01*
X29030081Y-33640228D01*
X29030079Y-33640228D01*
X29024911Y-33640165D01*
X28804091Y-33673955D01*
X28591756Y-33743357D01*
X28393607Y-33846507D01*
X28389474Y-33849610D01*
X28389471Y-33849612D01*
X28219100Y-33977530D01*
X28214965Y-33980635D01*
X28189541Y-34007240D01*
X28121280Y-34078671D01*
X28060629Y-34142138D01*
X27953201Y-34299621D01*
X27898293Y-34344621D01*
X27827768Y-34352792D01*
X27764021Y-34321538D01*
X27743324Y-34297054D01*
X27662822Y-34172617D01*
X27662820Y-34172614D01*
X27660014Y-34168277D01*
X27509670Y-34003051D01*
X27505619Y-33999852D01*
X27505615Y-33999848D01*
X27338414Y-33867800D01*
X27338410Y-33867798D01*
X27334359Y-33864598D01*
X27298028Y-33844542D01*
X27282136Y-33835769D01*
X27138789Y-33756638D01*
X27133920Y-33754914D01*
X27133916Y-33754912D01*
X26933087Y-33683795D01*
X26933083Y-33683794D01*
X26928212Y-33682069D01*
X26923119Y-33681162D01*
X26923116Y-33681161D01*
X26713373Y-33643800D01*
X26713367Y-33643799D01*
X26708284Y-33642894D01*
X26634452Y-33641992D01*
X26490081Y-33640228D01*
X26490079Y-33640228D01*
X26484911Y-33640165D01*
X26264091Y-33673955D01*
X26051756Y-33743357D01*
X25853607Y-33846507D01*
X25849474Y-33849610D01*
X25849471Y-33849612D01*
X25679100Y-33977530D01*
X25674965Y-33980635D01*
X25649541Y-34007240D01*
X25581280Y-34078671D01*
X25520629Y-34142138D01*
X25413201Y-34299621D01*
X25358293Y-34344621D01*
X25287768Y-34352792D01*
X25224021Y-34321538D01*
X25203324Y-34297054D01*
X25122822Y-34172617D01*
X25122820Y-34172614D01*
X25120014Y-34168277D01*
X24969670Y-34003051D01*
X24965619Y-33999852D01*
X24965615Y-33999848D01*
X24798414Y-33867800D01*
X24798410Y-33867798D01*
X24794359Y-33864598D01*
X24758028Y-33844542D01*
X24742136Y-33835769D01*
X24598789Y-33756638D01*
X24593920Y-33754914D01*
X24593916Y-33754912D01*
X24393087Y-33683795D01*
X24393083Y-33683794D01*
X24388212Y-33682069D01*
X24383119Y-33681162D01*
X24383116Y-33681161D01*
X24173373Y-33643800D01*
X24173367Y-33643799D01*
X24168284Y-33642894D01*
X24094452Y-33641992D01*
X23950081Y-33640228D01*
X23950079Y-33640228D01*
X23944911Y-33640165D01*
X23724091Y-33673955D01*
X23511756Y-33743357D01*
X23313607Y-33846507D01*
X23309474Y-33849610D01*
X23309471Y-33849612D01*
X23139100Y-33977530D01*
X23134965Y-33980635D01*
X23109541Y-34007240D01*
X23041280Y-34078671D01*
X22980629Y-34142138D01*
X22873201Y-34299621D01*
X22818293Y-34344621D01*
X22747768Y-34352792D01*
X22684021Y-34321538D01*
X22663324Y-34297054D01*
X22582822Y-34172617D01*
X22582820Y-34172614D01*
X22580014Y-34168277D01*
X22429670Y-34003051D01*
X22425619Y-33999852D01*
X22425615Y-33999848D01*
X22258414Y-33867800D01*
X22258410Y-33867798D01*
X22254359Y-33864598D01*
X22218028Y-33844542D01*
X22202136Y-33835769D01*
X22058789Y-33756638D01*
X22053920Y-33754914D01*
X22053916Y-33754912D01*
X21853087Y-33683795D01*
X21853083Y-33683794D01*
X21848212Y-33682069D01*
X21843119Y-33681162D01*
X21843116Y-33681161D01*
X21633373Y-33643800D01*
X21633367Y-33643799D01*
X21628284Y-33642894D01*
X21554452Y-33641992D01*
X21410081Y-33640228D01*
X21410079Y-33640228D01*
X21404911Y-33640165D01*
X21184091Y-33673955D01*
X20971756Y-33743357D01*
X20773607Y-33846507D01*
X20769474Y-33849610D01*
X20769471Y-33849612D01*
X20599100Y-33977530D01*
X20594965Y-33980635D01*
X20569541Y-34007240D01*
X20501280Y-34078671D01*
X20440629Y-34142138D01*
X20333201Y-34299621D01*
X20278293Y-34344621D01*
X20207768Y-34352792D01*
X20144021Y-34321538D01*
X20123324Y-34297054D01*
X20042822Y-34172617D01*
X20042820Y-34172614D01*
X20040014Y-34168277D01*
X19889670Y-34003051D01*
X19885619Y-33999852D01*
X19885615Y-33999848D01*
X19718414Y-33867800D01*
X19718410Y-33867798D01*
X19714359Y-33864598D01*
X19678028Y-33844542D01*
X19662136Y-33835769D01*
X19518789Y-33756638D01*
X19513920Y-33754914D01*
X19513916Y-33754912D01*
X19313087Y-33683795D01*
X19313083Y-33683794D01*
X19308212Y-33682069D01*
X19303119Y-33681162D01*
X19303116Y-33681161D01*
X19093373Y-33643800D01*
X19093367Y-33643799D01*
X19088284Y-33642894D01*
X19014452Y-33641992D01*
X18870081Y-33640228D01*
X18870079Y-33640228D01*
X18864911Y-33640165D01*
X18644091Y-33673955D01*
X18431756Y-33743357D01*
X18233607Y-33846507D01*
X18229474Y-33849610D01*
X18229471Y-33849612D01*
X18059100Y-33977530D01*
X18054965Y-33980635D01*
X18029541Y-34007240D01*
X17961280Y-34078671D01*
X17900629Y-34142138D01*
X17793204Y-34299618D01*
X17792898Y-34300066D01*
X17737987Y-34345069D01*
X17667462Y-34353240D01*
X17603715Y-34321986D01*
X17583018Y-34297502D01*
X17502426Y-34172926D01*
X17496136Y-34164757D01*
X17352806Y-34007240D01*
X17345273Y-34000215D01*
X17178139Y-33868222D01*
X17169552Y-33862517D01*
X16983117Y-33759599D01*
X16973705Y-33755369D01*
X16772959Y-33684280D01*
X16762988Y-33681646D01*
X16691837Y-33668972D01*
X16678540Y-33670432D01*
X16674000Y-33684989D01*
X16674000Y-36318517D01*
X16678064Y-36332359D01*
X16691478Y-36334393D01*
X16698184Y-36333534D01*
X16708262Y-36331392D01*
X16912255Y-36270191D01*
X16921842Y-36266433D01*
X17113095Y-36172739D01*
X17121945Y-36167464D01*
X17295328Y-36043792D01*
X17303200Y-36037139D01*
X17454052Y-35886812D01*
X17460730Y-35878965D01*
X17588022Y-35701819D01*
X17589279Y-35702722D01*
X17636373Y-35659362D01*
X17706311Y-35647145D01*
X17771751Y-35674678D01*
X17799579Y-35706511D01*
X17859987Y-35805088D01*
X18006250Y-35973938D01*
X18178126Y-36116632D01*
X18371000Y-36229338D01*
X18579692Y-36309030D01*
X18584760Y-36310061D01*
X18584763Y-36310062D01*
X18679862Y-36329410D01*
X18798597Y-36353567D01*
X18803772Y-36353757D01*
X18803774Y-36353757D01*
X19016673Y-36361564D01*
X19016677Y-36361564D01*
X19021837Y-36361753D01*
X19026957Y-36361097D01*
X19026959Y-36361097D01*
X19238288Y-36334025D01*
X19238289Y-36334025D01*
X19243416Y-36333368D01*
X19248366Y-36331883D01*
X19452429Y-36270661D01*
X19452434Y-36270659D01*
X19457384Y-36269174D01*
X19657994Y-36170896D01*
X19839860Y-36041173D01*
X19998096Y-35883489D01*
X20057594Y-35800689D01*
X20128453Y-35702077D01*
X20129776Y-35703028D01*
X20176645Y-35659857D01*
X20246580Y-35647625D01*
X20312026Y-35675144D01*
X20339875Y-35706994D01*
X20399987Y-35805088D01*
X20546250Y-35973938D01*
X20718126Y-36116632D01*
X20911000Y-36229338D01*
X21119692Y-36309030D01*
X21124760Y-36310061D01*
X21124763Y-36310062D01*
X21219862Y-36329410D01*
X21338597Y-36353567D01*
X21343772Y-36353757D01*
X21343774Y-36353757D01*
X21556673Y-36361564D01*
X21556677Y-36361564D01*
X21561837Y-36361753D01*
X21566957Y-36361097D01*
X21566959Y-36361097D01*
X21778288Y-36334025D01*
X21778289Y-36334025D01*
X21783416Y-36333368D01*
X21788366Y-36331883D01*
X21992429Y-36270661D01*
X21992434Y-36270659D01*
X21997384Y-36269174D01*
X22197994Y-36170896D01*
X22379860Y-36041173D01*
X22538096Y-35883489D01*
X22597594Y-35800689D01*
X22668453Y-35702077D01*
X22669776Y-35703028D01*
X22716645Y-35659857D01*
X22786580Y-35647625D01*
X22852026Y-35675144D01*
X22879875Y-35706994D01*
X22939987Y-35805088D01*
X23086250Y-35973938D01*
X23258126Y-36116632D01*
X23451000Y-36229338D01*
X23659692Y-36309030D01*
X23664760Y-36310061D01*
X23664763Y-36310062D01*
X23759862Y-36329410D01*
X23878597Y-36353567D01*
X23883772Y-36353757D01*
X23883774Y-36353757D01*
X24096673Y-36361564D01*
X24096677Y-36361564D01*
X24101837Y-36361753D01*
X24106957Y-36361097D01*
X24106959Y-36361097D01*
X24318288Y-36334025D01*
X24318289Y-36334025D01*
X24323416Y-36333368D01*
X24328366Y-36331883D01*
X24532429Y-36270661D01*
X24532434Y-36270659D01*
X24537384Y-36269174D01*
X24737994Y-36170896D01*
X24919860Y-36041173D01*
X25078096Y-35883489D01*
X25137594Y-35800689D01*
X25208453Y-35702077D01*
X25209776Y-35703028D01*
X25256645Y-35659857D01*
X25326580Y-35647625D01*
X25392026Y-35675144D01*
X25419875Y-35706994D01*
X25479987Y-35805088D01*
X25626250Y-35973938D01*
X25798126Y-36116632D01*
X25991000Y-36229338D01*
X26199692Y-36309030D01*
X26204760Y-36310061D01*
X26204763Y-36310062D01*
X26299862Y-36329410D01*
X26418597Y-36353567D01*
X26423772Y-36353757D01*
X26423774Y-36353757D01*
X26636673Y-36361564D01*
X26636677Y-36361564D01*
X26641837Y-36361753D01*
X26646957Y-36361097D01*
X26646959Y-36361097D01*
X26858288Y-36334025D01*
X26858289Y-36334025D01*
X26863416Y-36333368D01*
X26868366Y-36331883D01*
X27072429Y-36270661D01*
X27072434Y-36270659D01*
X27077384Y-36269174D01*
X27277994Y-36170896D01*
X27459860Y-36041173D01*
X27618096Y-35883489D01*
X27677594Y-35800689D01*
X27748453Y-35702077D01*
X27749776Y-35703028D01*
X27796645Y-35659857D01*
X27866580Y-35647625D01*
X27932026Y-35675144D01*
X27959875Y-35706994D01*
X28019987Y-35805088D01*
X28166250Y-35973938D01*
X28338126Y-36116632D01*
X28531000Y-36229338D01*
X28739692Y-36309030D01*
X28744760Y-36310061D01*
X28744763Y-36310062D01*
X28839862Y-36329410D01*
X28958597Y-36353567D01*
X28963772Y-36353757D01*
X28963774Y-36353757D01*
X29176673Y-36361564D01*
X29176677Y-36361564D01*
X29181837Y-36361753D01*
X29186957Y-36361097D01*
X29186959Y-36361097D01*
X29398288Y-36334025D01*
X29398289Y-36334025D01*
X29403416Y-36333368D01*
X29408366Y-36331883D01*
X29612429Y-36270661D01*
X29612434Y-36270659D01*
X29617384Y-36269174D01*
X29817994Y-36170896D01*
X29999860Y-36041173D01*
X30158096Y-35883489D01*
X30217594Y-35800689D01*
X30288453Y-35702077D01*
X30289776Y-35703028D01*
X30336645Y-35659857D01*
X30406580Y-35647625D01*
X30472026Y-35675144D01*
X30499875Y-35706994D01*
X30559987Y-35805088D01*
X30706250Y-35973938D01*
X30878126Y-36116632D01*
X31071000Y-36229338D01*
X31279692Y-36309030D01*
X31284760Y-36310061D01*
X31284763Y-36310062D01*
X31379862Y-36329410D01*
X31498597Y-36353567D01*
X31503772Y-36353757D01*
X31503774Y-36353757D01*
X31716673Y-36361564D01*
X31716677Y-36361564D01*
X31721837Y-36361753D01*
X31726957Y-36361097D01*
X31726959Y-36361097D01*
X31938288Y-36334025D01*
X31938289Y-36334025D01*
X31943416Y-36333368D01*
X31948366Y-36331883D01*
X32152429Y-36270661D01*
X32152434Y-36270659D01*
X32157384Y-36269174D01*
X32357994Y-36170896D01*
X32539860Y-36041173D01*
X32698096Y-35883489D01*
X32757594Y-35800689D01*
X32828453Y-35702077D01*
X32829776Y-35703028D01*
X32876645Y-35659857D01*
X32946580Y-35647625D01*
X33012026Y-35675144D01*
X33039875Y-35706994D01*
X33099987Y-35805088D01*
X33246250Y-35973938D01*
X33418126Y-36116632D01*
X33611000Y-36229338D01*
X33819692Y-36309030D01*
X33824760Y-36310061D01*
X33824763Y-36310062D01*
X33919862Y-36329410D01*
X34038597Y-36353567D01*
X34043772Y-36353757D01*
X34043774Y-36353757D01*
X34256673Y-36361564D01*
X34256677Y-36361564D01*
X34261837Y-36361753D01*
X34266957Y-36361097D01*
X34266959Y-36361097D01*
X34478288Y-36334025D01*
X34478289Y-36334025D01*
X34483416Y-36333368D01*
X34488366Y-36331883D01*
X34692429Y-36270661D01*
X34692434Y-36270659D01*
X34697384Y-36269174D01*
X34897994Y-36170896D01*
X35079860Y-36041173D01*
X35238096Y-35883489D01*
X35297594Y-35800689D01*
X35368453Y-35702077D01*
X35369776Y-35703028D01*
X35416645Y-35659857D01*
X35486580Y-35647625D01*
X35552026Y-35675144D01*
X35579875Y-35706994D01*
X35639987Y-35805088D01*
X35786250Y-35973938D01*
X35958126Y-36116632D01*
X36151000Y-36229338D01*
X36359692Y-36309030D01*
X36364760Y-36310061D01*
X36364763Y-36310062D01*
X36459862Y-36329410D01*
X36578597Y-36353567D01*
X36583772Y-36353757D01*
X36583774Y-36353757D01*
X36796673Y-36361564D01*
X36796677Y-36361564D01*
X36801837Y-36361753D01*
X36806957Y-36361097D01*
X36806959Y-36361097D01*
X37018288Y-36334025D01*
X37018289Y-36334025D01*
X37023416Y-36333368D01*
X37028366Y-36331883D01*
X37232429Y-36270661D01*
X37232434Y-36270659D01*
X37237384Y-36269174D01*
X37437994Y-36170896D01*
X37619860Y-36041173D01*
X37778096Y-35883489D01*
X37837594Y-35800689D01*
X37908453Y-35702077D01*
X37909776Y-35703028D01*
X37956645Y-35659857D01*
X38026580Y-35647625D01*
X38092026Y-35675144D01*
X38119875Y-35706994D01*
X38179987Y-35805088D01*
X38326250Y-35973938D01*
X38498126Y-36116632D01*
X38691000Y-36229338D01*
X38899692Y-36309030D01*
X38904760Y-36310061D01*
X38904763Y-36310062D01*
X38999862Y-36329410D01*
X39118597Y-36353567D01*
X39123772Y-36353757D01*
X39123774Y-36353757D01*
X39336673Y-36361564D01*
X39336677Y-36361564D01*
X39341837Y-36361753D01*
X39346957Y-36361097D01*
X39346959Y-36361097D01*
X39558288Y-36334025D01*
X39558289Y-36334025D01*
X39563416Y-36333368D01*
X39568366Y-36331883D01*
X39772429Y-36270661D01*
X39772434Y-36270659D01*
X39777384Y-36269174D01*
X39977994Y-36170896D01*
X40159860Y-36041173D01*
X40318096Y-35883489D01*
X40377594Y-35800689D01*
X40448453Y-35702077D01*
X40449776Y-35703028D01*
X40496645Y-35659857D01*
X40566580Y-35647625D01*
X40632026Y-35675144D01*
X40659875Y-35706994D01*
X40719987Y-35805088D01*
X40866250Y-35973938D01*
X41038126Y-36116632D01*
X41231000Y-36229338D01*
X41439692Y-36309030D01*
X41444760Y-36310061D01*
X41444763Y-36310062D01*
X41539862Y-36329410D01*
X41658597Y-36353567D01*
X41663772Y-36353757D01*
X41663774Y-36353757D01*
X41876673Y-36361564D01*
X41876677Y-36361564D01*
X41881837Y-36361753D01*
X41886957Y-36361097D01*
X41886959Y-36361097D01*
X42098288Y-36334025D01*
X42098289Y-36334025D01*
X42103416Y-36333368D01*
X42108366Y-36331883D01*
X42312429Y-36270661D01*
X42312434Y-36270659D01*
X42317384Y-36269174D01*
X42517994Y-36170896D01*
X42699860Y-36041173D01*
X42858096Y-35883489D01*
X42917594Y-35800689D01*
X42988453Y-35702077D01*
X42989776Y-35703028D01*
X43036645Y-35659857D01*
X43106580Y-35647625D01*
X43172026Y-35675144D01*
X43199875Y-35706994D01*
X43259987Y-35805088D01*
X43406250Y-35973938D01*
X43578126Y-36116632D01*
X43771000Y-36229338D01*
X43979692Y-36309030D01*
X43984760Y-36310061D01*
X43984763Y-36310062D01*
X44079862Y-36329410D01*
X44198597Y-36353567D01*
X44203772Y-36353757D01*
X44203774Y-36353757D01*
X44416673Y-36361564D01*
X44416677Y-36361564D01*
X44421837Y-36361753D01*
X44426957Y-36361097D01*
X44426959Y-36361097D01*
X44638288Y-36334025D01*
X44638289Y-36334025D01*
X44643416Y-36333368D01*
X44648366Y-36331883D01*
X44852429Y-36270661D01*
X44852434Y-36270659D01*
X44857384Y-36269174D01*
X45057994Y-36170896D01*
X45239860Y-36041173D01*
X45348091Y-35933319D01*
X45410462Y-35899404D01*
X45481268Y-35904592D01*
X45538030Y-35947238D01*
X45555012Y-35978341D01*
X45599385Y-36096705D01*
X45686739Y-36213261D01*
X45803295Y-36300615D01*
X45939684Y-36351745D01*
X46001866Y-36358500D01*
X47798134Y-36358500D01*
X47860316Y-36351745D01*
X47996705Y-36300615D01*
X48113261Y-36213261D01*
X48200615Y-36096705D01*
X48251745Y-35960316D01*
X48258500Y-35898134D01*
X48258500Y-34589594D01*
X48278502Y-34521473D01*
X48295405Y-34500499D01*
X50392253Y-32403652D01*
X50400539Y-32396112D01*
X50407018Y-32392000D01*
X50453644Y-32342348D01*
X50456398Y-32339507D01*
X50476135Y-32319770D01*
X50478615Y-32316573D01*
X50486320Y-32307551D01*
X50511159Y-32281100D01*
X50516586Y-32275321D01*
X50520405Y-32268375D01*
X50520407Y-32268372D01*
X50526348Y-32257566D01*
X50537199Y-32241047D01*
X50544758Y-32231301D01*
X50549614Y-32225041D01*
X50552759Y-32217772D01*
X50552762Y-32217768D01*
X50567174Y-32184463D01*
X50572391Y-32173813D01*
X50593695Y-32135060D01*
X50598733Y-32115437D01*
X50605137Y-32096734D01*
X50610033Y-32085420D01*
X50610033Y-32085419D01*
X50613181Y-32078145D01*
X50614420Y-32070322D01*
X50614423Y-32070312D01*
X50620099Y-32034476D01*
X50622505Y-32022856D01*
X50631528Y-31987711D01*
X50631528Y-31987710D01*
X50633500Y-31980030D01*
X50633500Y-31959776D01*
X50635051Y-31940065D01*
X50636980Y-31927886D01*
X50638220Y-31920057D01*
X50634059Y-31876038D01*
X50633500Y-31864181D01*
X50633500Y-9702524D01*
X50653502Y-9634403D01*
X50665858Y-9618221D01*
X50739040Y-9536944D01*
X50834527Y-9371556D01*
X50893542Y-9189928D01*
X50913504Y-9000000D01*
X50914857Y-9000142D01*
X50932816Y-8938979D01*
X50986472Y-8892486D01*
X51038814Y-8881100D01*
X66033633Y-8881100D01*
X66044816Y-8881627D01*
X66052309Y-8883302D01*
X66060235Y-8883053D01*
X66060236Y-8883053D01*
X66120386Y-8881162D01*
X66124345Y-8881100D01*
X66152256Y-8881100D01*
X66156191Y-8880603D01*
X66156256Y-8880595D01*
X66168093Y-8879662D01*
X66200351Y-8878648D01*
X66204370Y-8878522D01*
X66212289Y-8878273D01*
X66231743Y-8872621D01*
X66251100Y-8868613D01*
X66263330Y-8867068D01*
X66263331Y-8867068D01*
X66271197Y-8866074D01*
X66278568Y-8863155D01*
X66278570Y-8863155D01*
X66312312Y-8849796D01*
X66323542Y-8845951D01*
X66358383Y-8835829D01*
X66358384Y-8835829D01*
X66365993Y-8833618D01*
X66372812Y-8829585D01*
X66372817Y-8829583D01*
X66383428Y-8823307D01*
X66401176Y-8814612D01*
X66420017Y-8807152D01*
X66455787Y-8781164D01*
X66465707Y-8774648D01*
X66496935Y-8756180D01*
X66496938Y-8756178D01*
X66503762Y-8752142D01*
X66518083Y-8737821D01*
X66533117Y-8724980D01*
X66543094Y-8717731D01*
X66549507Y-8713072D01*
X66577698Y-8678995D01*
X66585688Y-8670216D01*
X69879549Y-5376355D01*
X69941861Y-5342329D01*
X69993762Y-5341979D01*
X70173597Y-5378567D01*
X70178772Y-5378757D01*
X70178774Y-5378757D01*
X70391673Y-5386564D01*
X70391677Y-5386564D01*
X70396837Y-5386753D01*
X70401957Y-5386097D01*
X70401959Y-5386097D01*
X70613288Y-5359025D01*
X70613289Y-5359025D01*
X70618416Y-5358368D01*
X70623366Y-5356883D01*
X70827429Y-5295661D01*
X70827434Y-5295659D01*
X70832384Y-5294174D01*
X71032994Y-5195896D01*
X71214860Y-5066173D01*
X71323091Y-4958319D01*
X71385462Y-4924404D01*
X71456268Y-4929592D01*
X71513030Y-4972238D01*
X71530012Y-5003341D01*
X71574385Y-5121705D01*
X71661739Y-5238261D01*
X71778295Y-5325615D01*
X71914684Y-5376745D01*
X71976866Y-5383500D01*
X73773134Y-5383500D01*
X73835316Y-5376745D01*
X73971705Y-5325615D01*
X74088261Y-5238261D01*
X74175615Y-5121705D01*
X74226745Y-4985316D01*
X74233500Y-4923134D01*
X74233500Y-3991695D01*
X83817251Y-3991695D01*
X83817548Y-3996848D01*
X83817548Y-3996851D01*
X83828960Y-4194767D01*
X83830110Y-4214715D01*
X83831247Y-4219761D01*
X83831248Y-4219767D01*
X83852275Y-4313069D01*
X83879222Y-4432639D01*
X83963266Y-4639616D01*
X83965965Y-4644020D01*
X84077291Y-4825688D01*
X84079987Y-4830088D01*
X84226250Y-4998938D01*
X84398126Y-5141632D01*
X84591000Y-5254338D01*
X84595825Y-5256180D01*
X84595826Y-5256181D01*
X84668612Y-5283975D01*
X84799692Y-5334030D01*
X84804760Y-5335061D01*
X84804763Y-5335062D01*
X84899862Y-5354410D01*
X85018597Y-5378567D01*
X85023772Y-5378757D01*
X85023774Y-5378757D01*
X85236673Y-5386564D01*
X85236677Y-5386564D01*
X85241837Y-5386753D01*
X85246957Y-5386097D01*
X85246959Y-5386097D01*
X85458288Y-5359025D01*
X85458289Y-5359025D01*
X85463416Y-5358368D01*
X85468366Y-5356883D01*
X85672429Y-5295661D01*
X85672434Y-5295659D01*
X85677384Y-5294174D01*
X85877994Y-5195896D01*
X86059860Y-5066173D01*
X86218096Y-4908489D01*
X86277594Y-4825689D01*
X86348453Y-4727077D01*
X86349640Y-4727930D01*
X86396960Y-4684362D01*
X86466897Y-4672145D01*
X86532338Y-4699678D01*
X86560166Y-4731511D01*
X86617694Y-4825388D01*
X86623777Y-4833699D01*
X86763213Y-4994667D01*
X86770580Y-5001883D01*
X86934434Y-5137916D01*
X86942881Y-5143831D01*
X87126756Y-5251279D01*
X87136042Y-5255729D01*
X87335001Y-5331703D01*
X87344899Y-5334579D01*
X87448250Y-5355606D01*
X87462299Y-5354410D01*
X87466000Y-5344065D01*
X87466000Y-5343517D01*
X87974000Y-5343517D01*
X87978064Y-5357359D01*
X87991478Y-5359393D01*
X87998184Y-5358534D01*
X88008262Y-5356392D01*
X88212255Y-5295191D01*
X88221842Y-5291433D01*
X88413095Y-5197739D01*
X88421945Y-5192464D01*
X88595328Y-5068792D01*
X88603200Y-5062139D01*
X88754052Y-4911812D01*
X88760730Y-4903965D01*
X88888022Y-4726819D01*
X88889279Y-4727722D01*
X88936373Y-4684362D01*
X89006311Y-4672145D01*
X89071751Y-4699678D01*
X89099579Y-4731511D01*
X89159987Y-4830088D01*
X89306250Y-4998938D01*
X89478126Y-5141632D01*
X89671000Y-5254338D01*
X89675825Y-5256180D01*
X89675826Y-5256181D01*
X89748612Y-5283975D01*
X89879692Y-5334030D01*
X89884760Y-5335061D01*
X89884763Y-5335062D01*
X89979862Y-5354410D01*
X90098597Y-5378567D01*
X90103772Y-5378757D01*
X90103774Y-5378757D01*
X90316673Y-5386564D01*
X90316677Y-5386564D01*
X90321837Y-5386753D01*
X90326957Y-5386097D01*
X90326959Y-5386097D01*
X90538288Y-5359025D01*
X90538289Y-5359025D01*
X90543416Y-5358368D01*
X90548366Y-5356883D01*
X90752429Y-5295661D01*
X90752434Y-5295659D01*
X90757384Y-5294174D01*
X90957994Y-5195896D01*
X91139860Y-5066173D01*
X91248091Y-4958319D01*
X91310462Y-4924404D01*
X91381268Y-4929592D01*
X91438030Y-4972238D01*
X91455012Y-5003341D01*
X91499385Y-5121705D01*
X91586739Y-5238261D01*
X91703295Y-5325615D01*
X91839684Y-5376745D01*
X91901866Y-5383500D01*
X93698134Y-5383500D01*
X93760316Y-5376745D01*
X93896705Y-5325615D01*
X94013261Y-5238261D01*
X94100615Y-5121705D01*
X94151745Y-4985316D01*
X94158500Y-4923134D01*
X94158500Y-3126866D01*
X94151745Y-3064684D01*
X94100615Y-2928295D01*
X94013261Y-2811739D01*
X93896705Y-2724385D01*
X93760316Y-2673255D01*
X93698134Y-2666500D01*
X91901866Y-2666500D01*
X91839684Y-2673255D01*
X91703295Y-2724385D01*
X91586739Y-2811739D01*
X91499385Y-2928295D01*
X91496233Y-2936703D01*
X91454919Y-3046907D01*
X91412277Y-3103671D01*
X91345716Y-3128371D01*
X91276367Y-3113163D01*
X91243743Y-3087476D01*
X91193151Y-3031875D01*
X91193142Y-3031866D01*
X91189670Y-3028051D01*
X91185619Y-3024852D01*
X91185615Y-3024848D01*
X91018414Y-2892800D01*
X91018410Y-2892798D01*
X91014359Y-2889598D01*
X90978028Y-2869542D01*
X90931972Y-2844118D01*
X90818789Y-2781638D01*
X90813920Y-2779914D01*
X90813916Y-2779912D01*
X90613087Y-2708795D01*
X90613083Y-2708794D01*
X90608212Y-2707069D01*
X90603119Y-2706162D01*
X90603116Y-2706161D01*
X90393373Y-2668800D01*
X90393367Y-2668799D01*
X90388284Y-2667894D01*
X90314452Y-2666992D01*
X90170081Y-2665228D01*
X90170079Y-2665228D01*
X90164911Y-2665165D01*
X89944091Y-2698955D01*
X89731756Y-2768357D01*
X89533607Y-2871507D01*
X89529474Y-2874610D01*
X89529471Y-2874612D01*
X89359100Y-3002530D01*
X89354965Y-3005635D01*
X89329541Y-3032240D01*
X89224520Y-3142138D01*
X89200629Y-3167138D01*
X89093204Y-3324618D01*
X89092898Y-3325066D01*
X89037987Y-3370069D01*
X88967462Y-3378240D01*
X88903715Y-3346986D01*
X88883018Y-3322502D01*
X88802426Y-3197926D01*
X88796136Y-3189757D01*
X88652806Y-3032240D01*
X88645273Y-3025215D01*
X88478139Y-2893222D01*
X88469552Y-2887517D01*
X88283117Y-2784599D01*
X88273705Y-2780369D01*
X88072959Y-2709280D01*
X88062988Y-2706646D01*
X87991837Y-2693972D01*
X87978540Y-2695432D01*
X87974000Y-2709989D01*
X87974000Y-5343517D01*
X87466000Y-5343517D01*
X87466000Y-2708102D01*
X87462082Y-2694758D01*
X87447806Y-2692771D01*
X87409324Y-2698660D01*
X87399288Y-2701051D01*
X87196868Y-2767212D01*
X87187359Y-2771209D01*
X86998463Y-2869542D01*
X86989738Y-2875036D01*
X86819433Y-3002905D01*
X86811726Y-3009748D01*
X86664590Y-3163717D01*
X86658109Y-3171722D01*
X86553498Y-3325074D01*
X86498587Y-3370076D01*
X86428062Y-3378247D01*
X86364315Y-3346993D01*
X86343618Y-3322509D01*
X86262822Y-3197617D01*
X86262820Y-3197614D01*
X86260014Y-3193277D01*
X86109670Y-3028051D01*
X86105619Y-3024852D01*
X86105615Y-3024848D01*
X85938414Y-2892800D01*
X85938410Y-2892798D01*
X85934359Y-2889598D01*
X85898028Y-2869542D01*
X85851972Y-2844118D01*
X85738789Y-2781638D01*
X85733920Y-2779914D01*
X85733916Y-2779912D01*
X85533087Y-2708795D01*
X85533083Y-2708794D01*
X85528212Y-2707069D01*
X85523119Y-2706162D01*
X85523116Y-2706161D01*
X85313373Y-2668800D01*
X85313367Y-2668799D01*
X85308284Y-2667894D01*
X85234452Y-2666992D01*
X85090081Y-2665228D01*
X85090079Y-2665228D01*
X85084911Y-2665165D01*
X84864091Y-2698955D01*
X84651756Y-2768357D01*
X84453607Y-2871507D01*
X84449474Y-2874610D01*
X84449471Y-2874612D01*
X84279100Y-3002530D01*
X84274965Y-3005635D01*
X84249541Y-3032240D01*
X84144520Y-3142138D01*
X84120629Y-3167138D01*
X83994743Y-3351680D01*
X83947716Y-3452992D01*
X83912293Y-3529305D01*
X83900688Y-3554305D01*
X83840989Y-3769570D01*
X83817251Y-3991695D01*
X74233500Y-3991695D01*
X74233500Y-3126866D01*
X74226745Y-3064684D01*
X74175615Y-2928295D01*
X74088261Y-2811739D01*
X73971705Y-2724385D01*
X73835316Y-2673255D01*
X73773134Y-2666500D01*
X71976866Y-2666500D01*
X71914684Y-2673255D01*
X71778295Y-2724385D01*
X71661739Y-2811739D01*
X71574385Y-2928295D01*
X71571233Y-2936703D01*
X71529919Y-3046907D01*
X71487277Y-3103671D01*
X71420716Y-3128371D01*
X71351367Y-3113163D01*
X71318743Y-3087476D01*
X71268151Y-3031875D01*
X71268142Y-3031866D01*
X71264670Y-3028051D01*
X71260619Y-3024852D01*
X71260615Y-3024848D01*
X71093414Y-2892800D01*
X71093410Y-2892798D01*
X71089359Y-2889598D01*
X71053028Y-2869542D01*
X71006972Y-2844118D01*
X70893789Y-2781638D01*
X70888920Y-2779914D01*
X70888916Y-2779912D01*
X70688087Y-2708795D01*
X70688083Y-2708794D01*
X70683212Y-2707069D01*
X70678119Y-2706162D01*
X70678116Y-2706161D01*
X70468373Y-2668800D01*
X70468367Y-2668799D01*
X70463284Y-2667894D01*
X70389452Y-2666992D01*
X70245081Y-2665228D01*
X70245079Y-2665228D01*
X70239911Y-2665165D01*
X70019091Y-2698955D01*
X69806756Y-2768357D01*
X69608607Y-2871507D01*
X69604474Y-2874610D01*
X69604471Y-2874612D01*
X69434100Y-3002530D01*
X69429965Y-3005635D01*
X69404541Y-3032240D01*
X69299520Y-3142138D01*
X69275629Y-3167138D01*
X69168201Y-3324621D01*
X69113293Y-3369621D01*
X69042768Y-3377792D01*
X68979021Y-3346538D01*
X68958324Y-3322054D01*
X68877822Y-3197617D01*
X68877820Y-3197614D01*
X68875014Y-3193277D01*
X68724670Y-3028051D01*
X68720619Y-3024852D01*
X68720615Y-3024848D01*
X68553414Y-2892800D01*
X68553410Y-2892798D01*
X68549359Y-2889598D01*
X68513028Y-2869542D01*
X68466972Y-2844118D01*
X68353789Y-2781638D01*
X68348920Y-2779914D01*
X68348916Y-2779912D01*
X68148087Y-2708795D01*
X68148083Y-2708794D01*
X68143212Y-2707069D01*
X68138119Y-2706162D01*
X68138116Y-2706161D01*
X67928373Y-2668800D01*
X67928367Y-2668799D01*
X67923284Y-2667894D01*
X67849452Y-2666992D01*
X67705081Y-2665228D01*
X67705079Y-2665228D01*
X67699911Y-2665165D01*
X67479091Y-2698955D01*
X67266756Y-2768357D01*
X67068607Y-2871507D01*
X67064474Y-2874610D01*
X67064471Y-2874612D01*
X66894100Y-3002530D01*
X66889965Y-3005635D01*
X66864541Y-3032240D01*
X66759520Y-3142138D01*
X66735629Y-3167138D01*
X66628201Y-3324621D01*
X66573293Y-3369621D01*
X66502768Y-3377792D01*
X66439021Y-3346538D01*
X66418324Y-3322054D01*
X66337822Y-3197617D01*
X66337820Y-3197614D01*
X66335014Y-3193277D01*
X66184670Y-3028051D01*
X66180619Y-3024852D01*
X66180615Y-3024848D01*
X66013414Y-2892800D01*
X66013410Y-2892798D01*
X66009359Y-2889598D01*
X65973028Y-2869542D01*
X65926972Y-2844118D01*
X65813789Y-2781638D01*
X65808920Y-2779914D01*
X65808916Y-2779912D01*
X65608087Y-2708795D01*
X65608083Y-2708794D01*
X65603212Y-2707069D01*
X65598119Y-2706162D01*
X65598116Y-2706161D01*
X65388373Y-2668800D01*
X65388367Y-2668799D01*
X65383284Y-2667894D01*
X65309452Y-2666992D01*
X65165081Y-2665228D01*
X65165079Y-2665228D01*
X65159911Y-2665165D01*
X64939091Y-2698955D01*
X64726756Y-2768357D01*
X64528607Y-2871507D01*
X64524474Y-2874610D01*
X64524471Y-2874612D01*
X64354100Y-3002530D01*
X64349965Y-3005635D01*
X64324541Y-3032240D01*
X64219520Y-3142138D01*
X64195629Y-3167138D01*
X64088201Y-3324621D01*
X64033293Y-3369621D01*
X63962768Y-3377792D01*
X63899021Y-3346538D01*
X63878324Y-3322054D01*
X63797822Y-3197617D01*
X63797820Y-3197614D01*
X63795014Y-3193277D01*
X63644670Y-3028051D01*
X63640619Y-3024852D01*
X63640615Y-3024848D01*
X63473414Y-2892800D01*
X63473410Y-2892798D01*
X63469359Y-2889598D01*
X63433028Y-2869542D01*
X63386972Y-2844118D01*
X63273789Y-2781638D01*
X63268920Y-2779914D01*
X63268916Y-2779912D01*
X63068087Y-2708795D01*
X63068083Y-2708794D01*
X63063212Y-2707069D01*
X63058119Y-2706162D01*
X63058116Y-2706161D01*
X62848373Y-2668800D01*
X62848367Y-2668799D01*
X62843284Y-2667894D01*
X62769452Y-2666992D01*
X62625081Y-2665228D01*
X62625079Y-2665228D01*
X62619911Y-2665165D01*
X62399091Y-2698955D01*
X62186756Y-2768357D01*
X61988607Y-2871507D01*
X61984474Y-2874610D01*
X61984471Y-2874612D01*
X61814100Y-3002530D01*
X61809965Y-3005635D01*
X61784541Y-3032240D01*
X61679520Y-3142138D01*
X61655629Y-3167138D01*
X61548201Y-3324621D01*
X61493293Y-3369621D01*
X61422768Y-3377792D01*
X61359021Y-3346538D01*
X61338324Y-3322054D01*
X61257822Y-3197617D01*
X61257820Y-3197614D01*
X61255014Y-3193277D01*
X61104670Y-3028051D01*
X61100619Y-3024852D01*
X61100615Y-3024848D01*
X60933414Y-2892800D01*
X60933410Y-2892798D01*
X60929359Y-2889598D01*
X60893028Y-2869542D01*
X60846972Y-2844118D01*
X60733789Y-2781638D01*
X60728920Y-2779914D01*
X60728916Y-2779912D01*
X60528087Y-2708795D01*
X60528083Y-2708794D01*
X60523212Y-2707069D01*
X60518119Y-2706162D01*
X60518116Y-2706161D01*
X60308373Y-2668800D01*
X60308367Y-2668799D01*
X60303284Y-2667894D01*
X60229452Y-2666992D01*
X60085081Y-2665228D01*
X60085079Y-2665228D01*
X60079911Y-2665165D01*
X59859091Y-2698955D01*
X59646756Y-2768357D01*
X59448607Y-2871507D01*
X59444474Y-2874610D01*
X59444471Y-2874612D01*
X59274100Y-3002530D01*
X59269965Y-3005635D01*
X59244541Y-3032240D01*
X59139520Y-3142138D01*
X59115629Y-3167138D01*
X59008201Y-3324621D01*
X58953293Y-3369621D01*
X58882768Y-3377792D01*
X58819021Y-3346538D01*
X58798324Y-3322054D01*
X58717822Y-3197617D01*
X58717820Y-3197614D01*
X58715014Y-3193277D01*
X58564670Y-3028051D01*
X58560619Y-3024852D01*
X58560615Y-3024848D01*
X58393414Y-2892800D01*
X58393410Y-2892798D01*
X58389359Y-2889598D01*
X58353028Y-2869542D01*
X58306972Y-2844118D01*
X58193789Y-2781638D01*
X58188920Y-2779914D01*
X58188916Y-2779912D01*
X57988087Y-2708795D01*
X57988083Y-2708794D01*
X57983212Y-2707069D01*
X57978119Y-2706162D01*
X57978116Y-2706161D01*
X57768373Y-2668800D01*
X57768367Y-2668799D01*
X57763284Y-2667894D01*
X57689452Y-2666992D01*
X57545081Y-2665228D01*
X57545079Y-2665228D01*
X57539911Y-2665165D01*
X57319091Y-2698955D01*
X57106756Y-2768357D01*
X56908607Y-2871507D01*
X56904474Y-2874610D01*
X56904471Y-2874612D01*
X56734100Y-3002530D01*
X56729965Y-3005635D01*
X56704541Y-3032240D01*
X56599520Y-3142138D01*
X56575629Y-3167138D01*
X56468201Y-3324621D01*
X56413293Y-3369621D01*
X56342768Y-3377792D01*
X56279021Y-3346538D01*
X56258324Y-3322054D01*
X56177822Y-3197617D01*
X56177820Y-3197614D01*
X56175014Y-3193277D01*
X56024670Y-3028051D01*
X56020619Y-3024852D01*
X56020615Y-3024848D01*
X55853414Y-2892800D01*
X55853410Y-2892798D01*
X55849359Y-2889598D01*
X55813028Y-2869542D01*
X55766972Y-2844118D01*
X55653789Y-2781638D01*
X55648920Y-2779914D01*
X55648916Y-2779912D01*
X55448087Y-2708795D01*
X55448083Y-2708794D01*
X55443212Y-2707069D01*
X55438119Y-2706162D01*
X55438116Y-2706161D01*
X55228373Y-2668800D01*
X55228367Y-2668799D01*
X55223284Y-2667894D01*
X55149452Y-2666992D01*
X55005081Y-2665228D01*
X55005079Y-2665228D01*
X54999911Y-2665165D01*
X54779091Y-2698955D01*
X54566756Y-2768357D01*
X54368607Y-2871507D01*
X54364474Y-2874610D01*
X54364471Y-2874612D01*
X54194100Y-3002530D01*
X54189965Y-3005635D01*
X54164541Y-3032240D01*
X54059520Y-3142138D01*
X54035629Y-3167138D01*
X53909743Y-3351680D01*
X53862716Y-3452992D01*
X53827293Y-3529305D01*
X53815688Y-3554305D01*
X53755989Y-3769570D01*
X53732251Y-3991695D01*
X53732548Y-3996848D01*
X53732548Y-3996851D01*
X53743960Y-4194767D01*
X53745110Y-4214715D01*
X53746247Y-4219761D01*
X53746248Y-4219767D01*
X53767275Y-4313069D01*
X53794222Y-4432639D01*
X53878266Y-4639616D01*
X53880965Y-4644020D01*
X53992291Y-4825688D01*
X53994987Y-4830088D01*
X54141250Y-4998938D01*
X54308650Y-5137916D01*
X54313126Y-5141632D01*
X54312110Y-5142856D01*
X54351986Y-5192739D01*
X54359298Y-5263358D01*
X54327270Y-5326720D01*
X54266070Y-5362707D01*
X54235389Y-5366500D01*
X44670305Y-5366500D01*
X44602184Y-5346498D01*
X44555691Y-5292842D01*
X44545587Y-5222568D01*
X44569479Y-5164935D01*
X44620615Y-5096705D01*
X44671745Y-4960316D01*
X44678500Y-4898134D01*
X44678500Y-3101866D01*
X44671745Y-3039684D01*
X44620615Y-2903295D01*
X44533261Y-2786739D01*
X44416705Y-2699385D01*
X44280316Y-2648255D01*
X44218134Y-2641500D01*
X42421866Y-2641500D01*
X42359684Y-2648255D01*
X42223295Y-2699385D01*
X42106739Y-2786739D01*
X42019385Y-2903295D01*
X42016233Y-2911703D01*
X41974919Y-3021907D01*
X41932277Y-3078671D01*
X41865716Y-3103371D01*
X41796367Y-3088163D01*
X41763743Y-3062476D01*
X41713151Y-3006875D01*
X41713142Y-3006866D01*
X41709670Y-3003051D01*
X41705619Y-2999852D01*
X41705615Y-2999848D01*
X41538414Y-2867800D01*
X41538410Y-2867798D01*
X41534359Y-2864598D01*
X41338789Y-2756638D01*
X41333920Y-2754914D01*
X41333916Y-2754912D01*
X41133087Y-2683795D01*
X41133083Y-2683794D01*
X41128212Y-2682069D01*
X41123119Y-2681162D01*
X41123116Y-2681161D01*
X40913373Y-2643800D01*
X40913367Y-2643799D01*
X40908284Y-2642894D01*
X40834452Y-2641992D01*
X40690081Y-2640228D01*
X40690079Y-2640228D01*
X40684911Y-2640165D01*
X40464091Y-2673955D01*
X40251756Y-2743357D01*
X40053607Y-2846507D01*
X40049474Y-2849610D01*
X40049471Y-2849612D01*
X39954246Y-2921109D01*
X39874965Y-2980635D01*
X39847502Y-3009373D01*
X39738470Y-3123469D01*
X39720629Y-3142138D01*
X39613201Y-3299621D01*
X39558293Y-3344621D01*
X39487768Y-3352792D01*
X39424021Y-3321538D01*
X39403324Y-3297054D01*
X39322822Y-3172617D01*
X39322820Y-3172614D01*
X39320014Y-3168277D01*
X39169670Y-3003051D01*
X39165619Y-2999852D01*
X39165615Y-2999848D01*
X38998414Y-2867800D01*
X38998410Y-2867798D01*
X38994359Y-2864598D01*
X38798789Y-2756638D01*
X38793920Y-2754914D01*
X38793916Y-2754912D01*
X38593087Y-2683795D01*
X38593083Y-2683794D01*
X38588212Y-2682069D01*
X38583119Y-2681162D01*
X38583116Y-2681161D01*
X38373373Y-2643800D01*
X38373367Y-2643799D01*
X38368284Y-2642894D01*
X38294452Y-2641992D01*
X38150081Y-2640228D01*
X38150079Y-2640228D01*
X38144911Y-2640165D01*
X37924091Y-2673955D01*
X37711756Y-2743357D01*
X37513607Y-2846507D01*
X37509474Y-2849610D01*
X37509471Y-2849612D01*
X37414246Y-2921109D01*
X37334965Y-2980635D01*
X37307502Y-3009373D01*
X37198470Y-3123469D01*
X37180629Y-3142138D01*
X37073201Y-3299621D01*
X37018293Y-3344621D01*
X36947768Y-3352792D01*
X36884021Y-3321538D01*
X36863324Y-3297054D01*
X36782822Y-3172617D01*
X36782820Y-3172614D01*
X36780014Y-3168277D01*
X36629670Y-3003051D01*
X36625619Y-2999852D01*
X36625615Y-2999848D01*
X36458414Y-2867800D01*
X36458410Y-2867798D01*
X36454359Y-2864598D01*
X36258789Y-2756638D01*
X36253920Y-2754914D01*
X36253916Y-2754912D01*
X36053087Y-2683795D01*
X36053083Y-2683794D01*
X36048212Y-2682069D01*
X36043119Y-2681162D01*
X36043116Y-2681161D01*
X35833373Y-2643800D01*
X35833367Y-2643799D01*
X35828284Y-2642894D01*
X35754452Y-2641992D01*
X35610081Y-2640228D01*
X35610079Y-2640228D01*
X35604911Y-2640165D01*
X35384091Y-2673955D01*
X35171756Y-2743357D01*
X34973607Y-2846507D01*
X34969474Y-2849610D01*
X34969471Y-2849612D01*
X34874246Y-2921109D01*
X34794965Y-2980635D01*
X34767502Y-3009373D01*
X34658470Y-3123469D01*
X34640629Y-3142138D01*
X34533201Y-3299621D01*
X34478293Y-3344621D01*
X34407768Y-3352792D01*
X34344021Y-3321538D01*
X34323324Y-3297054D01*
X34242822Y-3172617D01*
X34242820Y-3172614D01*
X34240014Y-3168277D01*
X34089670Y-3003051D01*
X34085619Y-2999852D01*
X34085615Y-2999848D01*
X33918414Y-2867800D01*
X33918410Y-2867798D01*
X33914359Y-2864598D01*
X33718789Y-2756638D01*
X33713920Y-2754914D01*
X33713916Y-2754912D01*
X33513087Y-2683795D01*
X33513083Y-2683794D01*
X33508212Y-2682069D01*
X33503119Y-2681162D01*
X33503116Y-2681161D01*
X33293373Y-2643800D01*
X33293367Y-2643799D01*
X33288284Y-2642894D01*
X33214452Y-2641992D01*
X33070081Y-2640228D01*
X33070079Y-2640228D01*
X33064911Y-2640165D01*
X32844091Y-2673955D01*
X32631756Y-2743357D01*
X32433607Y-2846507D01*
X32429474Y-2849610D01*
X32429471Y-2849612D01*
X32334246Y-2921109D01*
X32254965Y-2980635D01*
X32227502Y-3009373D01*
X32118470Y-3123469D01*
X32100629Y-3142138D01*
X31993201Y-3299621D01*
X31938293Y-3344621D01*
X31867768Y-3352792D01*
X31804021Y-3321538D01*
X31783324Y-3297054D01*
X31702822Y-3172617D01*
X31702820Y-3172614D01*
X31700014Y-3168277D01*
X31549670Y-3003051D01*
X31545619Y-2999852D01*
X31545615Y-2999848D01*
X31378414Y-2867800D01*
X31378410Y-2867798D01*
X31374359Y-2864598D01*
X31178789Y-2756638D01*
X31173920Y-2754914D01*
X31173916Y-2754912D01*
X30973087Y-2683795D01*
X30973083Y-2683794D01*
X30968212Y-2682069D01*
X30963119Y-2681162D01*
X30963116Y-2681161D01*
X30753373Y-2643800D01*
X30753367Y-2643799D01*
X30748284Y-2642894D01*
X30674452Y-2641992D01*
X30530081Y-2640228D01*
X30530079Y-2640228D01*
X30524911Y-2640165D01*
X30304091Y-2673955D01*
X30091756Y-2743357D01*
X29893607Y-2846507D01*
X29889474Y-2849610D01*
X29889471Y-2849612D01*
X29794246Y-2921109D01*
X29714965Y-2980635D01*
X29687502Y-3009373D01*
X29578470Y-3123469D01*
X29560629Y-3142138D01*
X29453201Y-3299621D01*
X29398293Y-3344621D01*
X29327768Y-3352792D01*
X29264021Y-3321538D01*
X29243324Y-3297054D01*
X29162822Y-3172617D01*
X29162820Y-3172614D01*
X29160014Y-3168277D01*
X29009670Y-3003051D01*
X29005619Y-2999852D01*
X29005615Y-2999848D01*
X28838414Y-2867800D01*
X28838410Y-2867798D01*
X28834359Y-2864598D01*
X28638789Y-2756638D01*
X28633920Y-2754914D01*
X28633916Y-2754912D01*
X28433087Y-2683795D01*
X28433083Y-2683794D01*
X28428212Y-2682069D01*
X28423119Y-2681162D01*
X28423116Y-2681161D01*
X28213373Y-2643800D01*
X28213367Y-2643799D01*
X28208284Y-2642894D01*
X28134452Y-2641992D01*
X27990081Y-2640228D01*
X27990079Y-2640228D01*
X27984911Y-2640165D01*
X27764091Y-2673955D01*
X27551756Y-2743357D01*
X27353607Y-2846507D01*
X27349474Y-2849610D01*
X27349471Y-2849612D01*
X27254246Y-2921109D01*
X27174965Y-2980635D01*
X27147502Y-3009373D01*
X27038470Y-3123469D01*
X27020629Y-3142138D01*
X26913201Y-3299621D01*
X26858293Y-3344621D01*
X26787768Y-3352792D01*
X26724021Y-3321538D01*
X26703324Y-3297054D01*
X26622822Y-3172617D01*
X26622820Y-3172614D01*
X26620014Y-3168277D01*
X26469670Y-3003051D01*
X26465619Y-2999852D01*
X26465615Y-2999848D01*
X26298414Y-2867800D01*
X26298410Y-2867798D01*
X26294359Y-2864598D01*
X26098789Y-2756638D01*
X26093920Y-2754914D01*
X26093916Y-2754912D01*
X25893087Y-2683795D01*
X25893083Y-2683794D01*
X25888212Y-2682069D01*
X25883119Y-2681162D01*
X25883116Y-2681161D01*
X25673373Y-2643800D01*
X25673367Y-2643799D01*
X25668284Y-2642894D01*
X25594452Y-2641992D01*
X25450081Y-2640228D01*
X25450079Y-2640228D01*
X25444911Y-2640165D01*
X25224091Y-2673955D01*
X25011756Y-2743357D01*
X24813607Y-2846507D01*
X24809474Y-2849610D01*
X24809471Y-2849612D01*
X24714246Y-2921109D01*
X24634965Y-2980635D01*
X24607502Y-3009373D01*
X24498470Y-3123469D01*
X24480629Y-3142138D01*
X24373201Y-3299621D01*
X24318293Y-3344621D01*
X24247768Y-3352792D01*
X24184021Y-3321538D01*
X24163324Y-3297054D01*
X24082822Y-3172617D01*
X24082820Y-3172614D01*
X24080014Y-3168277D01*
X23929670Y-3003051D01*
X23925619Y-2999852D01*
X23925615Y-2999848D01*
X23758414Y-2867800D01*
X23758410Y-2867798D01*
X23754359Y-2864598D01*
X23558789Y-2756638D01*
X23553920Y-2754914D01*
X23553916Y-2754912D01*
X23353087Y-2683795D01*
X23353083Y-2683794D01*
X23348212Y-2682069D01*
X23343119Y-2681162D01*
X23343116Y-2681161D01*
X23133373Y-2643800D01*
X23133367Y-2643799D01*
X23128284Y-2642894D01*
X23054452Y-2641992D01*
X22910081Y-2640228D01*
X22910079Y-2640228D01*
X22904911Y-2640165D01*
X22684091Y-2673955D01*
X22471756Y-2743357D01*
X22273607Y-2846507D01*
X22269474Y-2849610D01*
X22269471Y-2849612D01*
X22174246Y-2921109D01*
X22094965Y-2980635D01*
X22067502Y-3009373D01*
X21958470Y-3123469D01*
X21940629Y-3142138D01*
X21833201Y-3299621D01*
X21778293Y-3344621D01*
X21707768Y-3352792D01*
X21644021Y-3321538D01*
X21623324Y-3297054D01*
X21542822Y-3172617D01*
X21542820Y-3172614D01*
X21540014Y-3168277D01*
X21389670Y-3003051D01*
X21385619Y-2999852D01*
X21385615Y-2999848D01*
X21218414Y-2867800D01*
X21218410Y-2867798D01*
X21214359Y-2864598D01*
X21018789Y-2756638D01*
X21013920Y-2754914D01*
X21013916Y-2754912D01*
X20813087Y-2683795D01*
X20813083Y-2683794D01*
X20808212Y-2682069D01*
X20803119Y-2681162D01*
X20803116Y-2681161D01*
X20593373Y-2643800D01*
X20593367Y-2643799D01*
X20588284Y-2642894D01*
X20514452Y-2641992D01*
X20370081Y-2640228D01*
X20370079Y-2640228D01*
X20364911Y-2640165D01*
X20144091Y-2673955D01*
X19931756Y-2743357D01*
X19733607Y-2846507D01*
X19729474Y-2849610D01*
X19729471Y-2849612D01*
X19634246Y-2921109D01*
X19554965Y-2980635D01*
X19527502Y-3009373D01*
X19418470Y-3123469D01*
X19400629Y-3142138D01*
X19293201Y-3299621D01*
X19238293Y-3344621D01*
X19167768Y-3352792D01*
X19104021Y-3321538D01*
X19083324Y-3297054D01*
X19002822Y-3172617D01*
X19002820Y-3172614D01*
X19000014Y-3168277D01*
X18849670Y-3003051D01*
X18845619Y-2999852D01*
X18845615Y-2999848D01*
X18678414Y-2867800D01*
X18678410Y-2867798D01*
X18674359Y-2864598D01*
X18478789Y-2756638D01*
X18473920Y-2754914D01*
X18473916Y-2754912D01*
X18273087Y-2683795D01*
X18273083Y-2683794D01*
X18268212Y-2682069D01*
X18263119Y-2681162D01*
X18263116Y-2681161D01*
X18053373Y-2643800D01*
X18053367Y-2643799D01*
X18048284Y-2642894D01*
X17974452Y-2641992D01*
X17830081Y-2640228D01*
X17830079Y-2640228D01*
X17824911Y-2640165D01*
X17604091Y-2673955D01*
X17391756Y-2743357D01*
X17193607Y-2846507D01*
X17189474Y-2849610D01*
X17189471Y-2849612D01*
X17094246Y-2921109D01*
X17014965Y-2980635D01*
X16987502Y-3009373D01*
X16878470Y-3123469D01*
X16860629Y-3142138D01*
X16753201Y-3299621D01*
X16698293Y-3344621D01*
X16627768Y-3352792D01*
X16564021Y-3321538D01*
X16543324Y-3297054D01*
X16462822Y-3172617D01*
X16462820Y-3172614D01*
X16460014Y-3168277D01*
X16309670Y-3003051D01*
X16305619Y-2999852D01*
X16305615Y-2999848D01*
X16138414Y-2867800D01*
X16138410Y-2867798D01*
X16134359Y-2864598D01*
X15938789Y-2756638D01*
X15933920Y-2754914D01*
X15933916Y-2754912D01*
X15733087Y-2683795D01*
X15733083Y-2683794D01*
X15728212Y-2682069D01*
X15723119Y-2681162D01*
X15723116Y-2681161D01*
X15513373Y-2643800D01*
X15513367Y-2643799D01*
X15508284Y-2642894D01*
X15434452Y-2641992D01*
X15290081Y-2640228D01*
X15290079Y-2640228D01*
X15284911Y-2640165D01*
X15064091Y-2673955D01*
X14851756Y-2743357D01*
X14653607Y-2846507D01*
X14649474Y-2849610D01*
X14649471Y-2849612D01*
X14554246Y-2921109D01*
X14474965Y-2980635D01*
X14447502Y-3009373D01*
X14338470Y-3123469D01*
X14320629Y-3142138D01*
X14213201Y-3299621D01*
X14158293Y-3344621D01*
X14087768Y-3352792D01*
X14024021Y-3321538D01*
X14003324Y-3297054D01*
X13922822Y-3172617D01*
X13922820Y-3172614D01*
X13920014Y-3168277D01*
X13769670Y-3003051D01*
X13765619Y-2999852D01*
X13765615Y-2999848D01*
X13598414Y-2867800D01*
X13598410Y-2867798D01*
X13594359Y-2864598D01*
X13398789Y-2756638D01*
X13393920Y-2754914D01*
X13393916Y-2754912D01*
X13193087Y-2683795D01*
X13193083Y-2683794D01*
X13188212Y-2682069D01*
X13183119Y-2681162D01*
X13183116Y-2681161D01*
X12973373Y-2643800D01*
X12973367Y-2643799D01*
X12968284Y-2642894D01*
X12894452Y-2641992D01*
X12750081Y-2640228D01*
X12750079Y-2640228D01*
X12744911Y-2640165D01*
X12524091Y-2673955D01*
X12311756Y-2743357D01*
X12113607Y-2846507D01*
X12109474Y-2849610D01*
X12109471Y-2849612D01*
X12014246Y-2921109D01*
X11934965Y-2980635D01*
X11907502Y-3009373D01*
X11798470Y-3123469D01*
X11780629Y-3142138D01*
X11673201Y-3299621D01*
X11618293Y-3344621D01*
X11547768Y-3352792D01*
X11484021Y-3321538D01*
X11463324Y-3297054D01*
X11382822Y-3172617D01*
X11382820Y-3172614D01*
X11380014Y-3168277D01*
X11229670Y-3003051D01*
X11225619Y-2999852D01*
X11225615Y-2999848D01*
X11058414Y-2867800D01*
X11058410Y-2867798D01*
X11054359Y-2864598D01*
X10858789Y-2756638D01*
X10853920Y-2754914D01*
X10853916Y-2754912D01*
X10653087Y-2683795D01*
X10653083Y-2683794D01*
X10648212Y-2682069D01*
X10643119Y-2681162D01*
X10643116Y-2681161D01*
X10433373Y-2643800D01*
X10433367Y-2643799D01*
X10428284Y-2642894D01*
X10354452Y-2641992D01*
X10210081Y-2640228D01*
X10210079Y-2640228D01*
X10204911Y-2640165D01*
X9984091Y-2673955D01*
X9771756Y-2743357D01*
X9573607Y-2846507D01*
X9569474Y-2849610D01*
X9569471Y-2849612D01*
X9474246Y-2921109D01*
X9394965Y-2980635D01*
X9367502Y-3009373D01*
X9258470Y-3123469D01*
X9240629Y-3142138D01*
X9133201Y-3299621D01*
X9078293Y-3344621D01*
X9007768Y-3352792D01*
X8944021Y-3321538D01*
X8923324Y-3297054D01*
X8842822Y-3172617D01*
X8842820Y-3172614D01*
X8840014Y-3168277D01*
X8689670Y-3003051D01*
X8685619Y-2999852D01*
X8685615Y-2999848D01*
X8518414Y-2867800D01*
X8518410Y-2867798D01*
X8514359Y-2864598D01*
X8318789Y-2756638D01*
X8313920Y-2754914D01*
X8313916Y-2754912D01*
X8113087Y-2683795D01*
X8113083Y-2683794D01*
X8108212Y-2682069D01*
X8103119Y-2681162D01*
X8103116Y-2681161D01*
X7893373Y-2643800D01*
X7893367Y-2643799D01*
X7888284Y-2642894D01*
X7814452Y-2641992D01*
X7670081Y-2640228D01*
X7670079Y-2640228D01*
X7664911Y-2640165D01*
X7444091Y-2673955D01*
X7231756Y-2743357D01*
X7033607Y-2846507D01*
X7029474Y-2849610D01*
X7029471Y-2849612D01*
X6934246Y-2921109D01*
X6854965Y-2980635D01*
X6827502Y-3009373D01*
X6718470Y-3123469D01*
X6700629Y-3142138D01*
X6593201Y-3299621D01*
X6538293Y-3344621D01*
X6467768Y-3352792D01*
X6404021Y-3321538D01*
X6383324Y-3297054D01*
X6302822Y-3172617D01*
X6302820Y-3172614D01*
X6300014Y-3168277D01*
X6149670Y-3003051D01*
X6145619Y-2999852D01*
X6145615Y-2999848D01*
X5978414Y-2867800D01*
X5978410Y-2867798D01*
X5974359Y-2864598D01*
X5778789Y-2756638D01*
X5773920Y-2754914D01*
X5773916Y-2754912D01*
X5573087Y-2683795D01*
X5573083Y-2683794D01*
X5568212Y-2682069D01*
X5563119Y-2681162D01*
X5563116Y-2681161D01*
X5353373Y-2643800D01*
X5353367Y-2643799D01*
X5348284Y-2642894D01*
X5274452Y-2641992D01*
X5130081Y-2640228D01*
X5130079Y-2640228D01*
X5124911Y-2640165D01*
X4904091Y-2673955D01*
X4691756Y-2743357D01*
X4493607Y-2846507D01*
X4489474Y-2849610D01*
X4489471Y-2849612D01*
X4394246Y-2921109D01*
X4314965Y-2980635D01*
X4287502Y-3009373D01*
X4178470Y-3123469D01*
X4160629Y-3142138D01*
X4157720Y-3146403D01*
X4157714Y-3146411D01*
X4125744Y-3193277D01*
X4034743Y-3326680D01*
X3940688Y-3529305D01*
X3880989Y-3744570D01*
X3857251Y-3966695D01*
X508000Y-3966695D01*
X508000Y-2053207D01*
X509746Y-2032303D01*
X512264Y-2017335D01*
X513071Y-2012539D01*
X513224Y-2000000D01*
X511655Y-1989043D01*
X510704Y-1962198D01*
X522543Y-1796659D01*
X525101Y-1778864D01*
X566520Y-1588462D01*
X571586Y-1571212D01*
X639684Y-1388637D01*
X647151Y-1372285D01*
X740536Y-1201265D01*
X750248Y-1186153D01*
X867024Y-1030159D01*
X878797Y-1016573D01*
X1016573Y-878797D01*
X1030159Y-867024D01*
X1186153Y-750248D01*
X1201265Y-740536D01*
X1372290Y-647149D01*
X1388637Y-639684D01*
X1571212Y-571586D01*
X1588460Y-566521D01*
X1778863Y-525101D01*
X1796658Y-522543D01*
X1845557Y-519046D01*
X1958631Y-510959D01*
X1976533Y-511703D01*
X1984858Y-511805D01*
X1993730Y-513186D01*
X2002632Y-512022D01*
X2002635Y-512022D01*
X2025251Y-509064D01*
X2041589Y-508000D01*
X95950672Y-508000D01*
X95970056Y-509500D01*
G37*
%TD.AperFunction*%
%TD*%
M02*
