%TF.GenerationSoftware,KiCad,Pcbnew,(6.0.1)*%
%TF.CreationDate,2023-01-23T14:34:39-05:00*%
%TF.ProjectId,blu_model_m,626c755f-6d6f-4646-956c-5f6d2e6b6963,rev?*%
%TF.SameCoordinates,PX2719c40PY3fe56c0*%
%TF.FileFunction,Soldermask,Bot*%
%TF.FilePolarity,Negative*%
%FSLAX46Y46*%
G04 Gerber Fmt 4.6, Leading zero omitted, Abs format (unit mm)*
G04 Created by KiCad (PCBNEW (6.0.1)) date 2023-01-23 14:34:39*
%MOMM*%
%LPD*%
G01*
G04 APERTURE LIST*
%ADD10R,1.700000X1.700000*%
%ADD11O,1.700000X1.700000*%
G04 APERTURE END LIST*
D10*
%TO.C,JP1*%
X19000000Y-16000000D03*
D11*
X21540000Y-16000000D03*
X24080000Y-16000000D03*
X26620000Y-16000000D03*
X29160000Y-16000000D03*
X31700000Y-16000000D03*
X34240000Y-16000000D03*
X36780000Y-16000000D03*
X39320000Y-16000000D03*
X41860000Y-16000000D03*
X44400000Y-16000000D03*
X46940000Y-16000000D03*
%TD*%
%TO.C,JP2*%
X8800000Y-35000000D03*
X11340000Y-35000000D03*
X13880000Y-35000000D03*
X16420000Y-35000000D03*
X18960000Y-35000000D03*
X21500000Y-35000000D03*
X24040000Y-35000000D03*
X26580000Y-35000000D03*
X29120000Y-35000000D03*
X31660000Y-35000000D03*
X34200000Y-35000000D03*
X36740000Y-35000000D03*
X39280000Y-35000000D03*
X41820000Y-35000000D03*
X44360000Y-35000000D03*
D10*
X46900000Y-35000000D03*
%TD*%
%TO.C,J3*%
X92800000Y-4025000D03*
D11*
X90260000Y-4025000D03*
X87720000Y-4025000D03*
X85180000Y-4025000D03*
%TD*%
D10*
%TO.C,J2*%
X72875000Y-4025000D03*
D11*
X70335000Y-4025000D03*
X67795000Y-4025000D03*
X65255000Y-4025000D03*
X62715000Y-4025000D03*
X60175000Y-4025000D03*
X57635000Y-4025000D03*
X55095000Y-4025000D03*
%TD*%
D10*
%TO.C,J1*%
X43320000Y-4000000D03*
D11*
X40780000Y-4000000D03*
X38240000Y-4000000D03*
X35700000Y-4000000D03*
X33160000Y-4000000D03*
X30620000Y-4000000D03*
X28080000Y-4000000D03*
X25540000Y-4000000D03*
X23000000Y-4000000D03*
X20460000Y-4000000D03*
X17920000Y-4000000D03*
X15380000Y-4000000D03*
X12840000Y-4000000D03*
X10300000Y-4000000D03*
X7760000Y-4000000D03*
X5220000Y-4000000D03*
%TD*%
M02*
