%TF.GenerationSoftware,KiCad,Pcbnew,(6.0.1)*%
%TF.CreationDate,2023-01-23T14:34:39-05:00*%
%TF.ProjectId,blu_model_m,626c755f-6d6f-4646-956c-5f6d2e6b6963,rev?*%
%TF.SameCoordinates,PX2719c40PY3fe56c0*%
%TF.FileFunction,Legend,Bot*%
%TF.FilePolarity,Positive*%
%FSLAX46Y46*%
G04 Gerber Fmt 4.6, Leading zero omitted, Abs format (unit mm)*
G04 Created by KiCad (PCBNEW (6.0.1)) date 2023-01-23 14:34:39*
%MOMM*%
%LPD*%
G01*
G04 APERTURE LIST*
%ADD10C,0.250000*%
G04 APERTURE END LIST*
D10*
X17004166Y-8379333D02*
X17004166Y-6979333D01*
X16537500Y-7979333D01*
X16070833Y-6979333D01*
X16070833Y-8379333D01*
X15204166Y-8379333D02*
X15337500Y-8312666D01*
X15404166Y-8246000D01*
X15470833Y-8112666D01*
X15470833Y-7712666D01*
X15404166Y-7579333D01*
X15337500Y-7512666D01*
X15204166Y-7446000D01*
X15004166Y-7446000D01*
X14870833Y-7512666D01*
X14804166Y-7579333D01*
X14737500Y-7712666D01*
X14737500Y-8112666D01*
X14804166Y-8246000D01*
X14870833Y-8312666D01*
X15004166Y-8379333D01*
X15204166Y-8379333D01*
X13537500Y-8379333D02*
X13537500Y-6979333D01*
X13537500Y-8312666D02*
X13670833Y-8379333D01*
X13937500Y-8379333D01*
X14070833Y-8312666D01*
X14137500Y-8246000D01*
X14204166Y-8112666D01*
X14204166Y-7712666D01*
X14137500Y-7579333D01*
X14070833Y-7512666D01*
X13937500Y-7446000D01*
X13670833Y-7446000D01*
X13537500Y-7512666D01*
X12337500Y-8312666D02*
X12470833Y-8379333D01*
X12737500Y-8379333D01*
X12870833Y-8312666D01*
X12937500Y-8179333D01*
X12937500Y-7646000D01*
X12870833Y-7512666D01*
X12737500Y-7446000D01*
X12470833Y-7446000D01*
X12337500Y-7512666D01*
X12270833Y-7646000D01*
X12270833Y-7779333D01*
X12937500Y-7912666D01*
X11470833Y-8379333D02*
X11604166Y-8312666D01*
X11670833Y-8179333D01*
X11670833Y-6979333D01*
X9870833Y-8379333D02*
X9870833Y-6979333D01*
X9404166Y-7979333D01*
X8937500Y-6979333D01*
X8937500Y-8379333D01*
X6737500Y-7646000D02*
X6537500Y-7712666D01*
X6470833Y-7779333D01*
X6404166Y-7912666D01*
X6404166Y-8112666D01*
X6470833Y-8246000D01*
X6537500Y-8312666D01*
X6670833Y-8379333D01*
X7204166Y-8379333D01*
X7204166Y-6979333D01*
X6737500Y-6979333D01*
X6604166Y-7046000D01*
X6537500Y-7112666D01*
X6470833Y-7246000D01*
X6470833Y-7379333D01*
X6537500Y-7512666D01*
X6604166Y-7579333D01*
X6737500Y-7646000D01*
X7204166Y-7646000D01*
X5604166Y-8379333D02*
X5737500Y-8312666D01*
X5804166Y-8179333D01*
X5804166Y-6979333D01*
X4470833Y-7446000D02*
X4470833Y-8379333D01*
X5070833Y-7446000D02*
X5070833Y-8179333D01*
X5004166Y-8312666D01*
X4870833Y-8379333D01*
X4670833Y-8379333D01*
X4537500Y-8312666D01*
X4470833Y-8246000D01*
X16270833Y-10633333D02*
X17070833Y-10633333D01*
X16670833Y-10633333D02*
X16670833Y-9233333D01*
X16804166Y-9433333D01*
X16937500Y-9566666D01*
X17070833Y-9633333D01*
X14670833Y-9166666D02*
X15870833Y-10966666D01*
X14270833Y-9366666D02*
X14204166Y-9300000D01*
X14070833Y-9233333D01*
X13737500Y-9233333D01*
X13604166Y-9300000D01*
X13537500Y-9366666D01*
X13470833Y-9500000D01*
X13470833Y-9633333D01*
X13537500Y-9833333D01*
X14337500Y-10633333D01*
X13470833Y-10633333D01*
X13004166Y-9233333D02*
X12137500Y-9233333D01*
X12604166Y-9766666D01*
X12404166Y-9766666D01*
X12270833Y-9833333D01*
X12204166Y-9900000D01*
X12137500Y-10033333D01*
X12137500Y-10366666D01*
X12204166Y-10500000D01*
X12270833Y-10566666D01*
X12404166Y-10633333D01*
X12804166Y-10633333D01*
X12937500Y-10566666D01*
X13004166Y-10500000D01*
X10537500Y-9166666D02*
X11737500Y-10966666D01*
X10137500Y-9366666D02*
X10070833Y-9300000D01*
X9937500Y-9233333D01*
X9604166Y-9233333D01*
X9470833Y-9300000D01*
X9404166Y-9366666D01*
X9337500Y-9500000D01*
X9337500Y-9633333D01*
X9404166Y-9833333D01*
X10204166Y-10633333D01*
X9337500Y-10633333D01*
X8470833Y-9233333D02*
X8337500Y-9233333D01*
X8204166Y-9300000D01*
X8137500Y-9366666D01*
X8070833Y-9500000D01*
X8004166Y-9766666D01*
X8004166Y-10100000D01*
X8070833Y-10366666D01*
X8137500Y-10500000D01*
X8204166Y-10566666D01*
X8337500Y-10633333D01*
X8470833Y-10633333D01*
X8604166Y-10566666D01*
X8670833Y-10500000D01*
X8737500Y-10366666D01*
X8804166Y-10100000D01*
X8804166Y-9766666D01*
X8737500Y-9500000D01*
X8670833Y-9366666D01*
X8604166Y-9300000D01*
X8470833Y-9233333D01*
X7470833Y-9366666D02*
X7404166Y-9300000D01*
X7270833Y-9233333D01*
X6937500Y-9233333D01*
X6804166Y-9300000D01*
X6737500Y-9366666D01*
X6670833Y-9500000D01*
X6670833Y-9633333D01*
X6737500Y-9833333D01*
X7537500Y-10633333D01*
X6670833Y-10633333D01*
X6204166Y-9233333D02*
X5337500Y-9233333D01*
X5804166Y-9766666D01*
X5604166Y-9766666D01*
X5470833Y-9833333D01*
X5404166Y-9900000D01*
X5337500Y-10033333D01*
X5337500Y-10366666D01*
X5404166Y-10500000D01*
X5470833Y-10566666D01*
X5604166Y-10633333D01*
X6004166Y-10633333D01*
X6137500Y-10566666D01*
X6204166Y-10500000D01*
X17137500Y-11487333D02*
X16804166Y-12887333D01*
X16537500Y-11887333D01*
X16270833Y-12887333D01*
X15937500Y-11487333D01*
X15404166Y-12887333D02*
X15404166Y-11954000D01*
X15404166Y-11487333D02*
X15470833Y-11554000D01*
X15404166Y-11620666D01*
X15337500Y-11554000D01*
X15404166Y-11487333D01*
X15404166Y-11620666D01*
X14537500Y-12887333D02*
X14670833Y-12820666D01*
X14737500Y-12687333D01*
X14737500Y-11487333D01*
X13804166Y-12887333D02*
X13937500Y-12820666D01*
X14004166Y-12687333D01*
X14004166Y-11487333D01*
X11470833Y-11554000D02*
X11604166Y-11487333D01*
X11804166Y-11487333D01*
X12004166Y-11554000D01*
X12137500Y-11687333D01*
X12204166Y-11820666D01*
X12270833Y-12087333D01*
X12270833Y-12287333D01*
X12204166Y-12554000D01*
X12137500Y-12687333D01*
X12004166Y-12820666D01*
X11804166Y-12887333D01*
X11670833Y-12887333D01*
X11470833Y-12820666D01*
X11404166Y-12754000D01*
X11404166Y-12287333D01*
X11670833Y-12287333D01*
X10204166Y-12887333D02*
X10204166Y-12154000D01*
X10270833Y-12020666D01*
X10404166Y-11954000D01*
X10670833Y-11954000D01*
X10804166Y-12020666D01*
X10204166Y-12820666D02*
X10337500Y-12887333D01*
X10670833Y-12887333D01*
X10804166Y-12820666D01*
X10870833Y-12687333D01*
X10870833Y-12554000D01*
X10804166Y-12420666D01*
X10670833Y-12354000D01*
X10337500Y-12354000D01*
X10204166Y-12287333D01*
X9337500Y-12887333D02*
X9470833Y-12820666D01*
X9537500Y-12687333D01*
X9537500Y-11487333D01*
X8604166Y-12887333D02*
X8737500Y-12820666D01*
X8804166Y-12687333D01*
X8804166Y-11487333D01*
X7470833Y-12887333D02*
X7470833Y-12154000D01*
X7537500Y-12020666D01*
X7670833Y-11954000D01*
X7937500Y-11954000D01*
X8070833Y-12020666D01*
X7470833Y-12820666D02*
X7604166Y-12887333D01*
X7937500Y-12887333D01*
X8070833Y-12820666D01*
X8137500Y-12687333D01*
X8137500Y-12554000D01*
X8070833Y-12420666D01*
X7937500Y-12354000D01*
X7604166Y-12354000D01*
X7470833Y-12287333D01*
X6204166Y-11954000D02*
X6204166Y-13087333D01*
X6270833Y-13220666D01*
X6337500Y-13287333D01*
X6470833Y-13354000D01*
X6670833Y-13354000D01*
X6804166Y-13287333D01*
X6204166Y-12820666D02*
X6337500Y-12887333D01*
X6604166Y-12887333D01*
X6737500Y-12820666D01*
X6804166Y-12754000D01*
X6870833Y-12620666D01*
X6870833Y-12220666D01*
X6804166Y-12087333D01*
X6737500Y-12020666D01*
X6604166Y-11954000D01*
X6337500Y-11954000D01*
X6204166Y-12020666D01*
X5537500Y-12887333D02*
X5537500Y-11487333D01*
X4937500Y-12887333D02*
X4937500Y-12154000D01*
X5004166Y-12020666D01*
X5137500Y-11954000D01*
X5337500Y-11954000D01*
X5470833Y-12020666D01*
X5537500Y-12087333D01*
X3737500Y-12820666D02*
X3870833Y-12887333D01*
X4137500Y-12887333D01*
X4270833Y-12820666D01*
X4337500Y-12687333D01*
X4337500Y-12154000D01*
X4270833Y-12020666D01*
X4137500Y-11954000D01*
X3870833Y-11954000D01*
X3737500Y-12020666D01*
X3670833Y-12154000D01*
X3670833Y-12287333D01*
X4337500Y-12420666D01*
X3070833Y-12887333D02*
X3070833Y-11954000D01*
X3070833Y-12220666D02*
X3004166Y-12087333D01*
X2937500Y-12020666D01*
X2804166Y-11954000D01*
X2670833Y-11954000D01*
M02*
